<svg xmlns="http://www.w3.org/2000/svg" width="14.968" height="30.19"><path data-name="Composite Path" d="M14.955 16.45a7.861 7.861 0 00-6.648-7.52v-.27a2.256 2.256 0 00-1.2-1.92L3.59 5.02a.97.97 0 01-.433-.7V2.98a.236.236 0 01.225-.23h5.487v.48a1.832 1.832 0 001.832 1.83h1.407a1.833 1.833 0 001.831-1.83V1.82a1.833 1.833 0 00-1.831-1.83h-1.407a1.829 1.829 0 00-1.774 1.4H3.382a1.589 1.589 0 00-1.589 1.59v1.34a2.249 2.249 0 001.195 1.92l3.517 1.73a.977.977 0 01.434.69v.25a7.824 7.824 0 00-6.936 7.54h-.017v10.99a2.742 2.742 0 002.738 2.74h9.513a2.742 2.742 0 002.736-2.74V16.45h-.017zM10.237 1.82a.472.472 0 01.468-.46h1.407a.473.473 0 01.468.46v1.41a.482.482 0 01-.468.47h-1.407a.48.48 0 01-.468-.47V1.82zm-2 12.85a.478.478 0 01.465.47v1.41a.469.469 0 01-.465.46H6.828a.469.469 0 01-.466-.46v-1.41a.478.478 0 01.466-.47h1.409zm5.374 3.14v9.63a1.4 1.4 0 01-1.372 1.38H2.731a1.4 1.4 0 01-1.373-1.38v-9.63h.007v-.68c0-.11-.009-.15-.007-.15a6.516 6.516 0 015.588-6.7v3.03h-.118a1.83 1.83 0 00-1.83 1.83v1.41a1.837 1.837 0 001.83 1.83h1.409a1.838 1.838 0 001.829-1.83v-1.41a1.838 1.838 0 00-1.756-1.83v-2.99a6.544 6.544 0 015.3 6.66 1.273 1.273 0 00-.007.15v.68h.006z" fill="#2c3233" fill-rule="evenodd"/></svg>