<svg xmlns="http://www.w3.org/2000/svg" width="26" height="26"><path data-name="Composite Path" d="M22.326 4.6l2.189 2.19a.685.685 0 010 .96L10.582 21.68l.918.92L25.434 8.67a2 2 0 00.576-1.4 1.955 1.955 0 00-.577-1.39l-5.3-5.3a1.974 1.974 0 00-2.8 0L3.404 14.51l.918.92L18.253 1.5a.672.672 0 01.957 0l2.19 2.19L8.194 16.9l.919.92zM2.599 18.08a1.4 1.4 0 00-1.009-.48 1.045 1.045 0 00-.844.43 1.6 1.6 0 00-.283.83l-.45 5.25a1.492 1.492 0 00-.008.17 1.724 1.724 0 00.5 1.23 1.748 1.748 0 001.226.49h.158l5.268-.45a1.566 1.566 0 00.828-.29 1.037 1.037 0 00.433-.84 1.462 1.462 0 00-.481-1.01z" fill="#2c3233" fill-rule="evenodd"/></svg>