<svg xmlns="http://www.w3.org/2000/svg" width="29.531" height="27.5"><path data-name="Composite Path" d="M29.539 8.22a3.425 3.425 0 00-3.176-3.61h-5.957V1.95a1.968 1.968 0 00-1.957-1.96h-7.367a1.968 1.968 0 00-1.959 1.96v2.66H3.167A3.422 3.422 0 00-.008 8.22v3.46a.4.4 0 000 .06.473.473 0 000 .07 1.94 1.94 0 00.054.45 3.348 3.348 0 001.383 1.86v9.01a4.37 4.37 0 004.359 4.36h17.954a4.372 4.372 0 004.361-4.36v-9.01a3.345 3.345 0 001.379-1.86 1.836 1.836 0 00.055-.45v-.13zM10.354 1.95a.741.741 0 01.728-.73h7.367a.743.743 0 01.729.73v2.66h-8.826zM26.87 14.86v8.27a3.149 3.149 0 01-3.128 3.13H5.788a3.151 3.151 0 01-3.129-3.13v-8.27c.042.02.1.04.138.06.238.11.484.22.744.32a27.752 27.752 0 007.556 1.58v1.31a1.547 1.547 0 001.538 1.54h4.258a1.548 1.548 0 001.539-1.54v-1.31a38.72 38.72 0 003.732-.51 21.618 21.618 0 003.824-1.07c.263-.1.508-.21.75-.33.042-.02.09-.03.137-.05zm-14.543.81v-.57a.321.321 0 01.308-.31h4.258a.32.32 0 01.308.31v3.03a.311.311 0 01-.308.3h-4.258a.312.312 0 01-.308-.3v-2.46zm14.036-9.83a2.223 2.223 0 011.944 2.38v3.44a.518.518 0 000 .08.678.678 0 000 .09 1.441 1.441 0 01-.024.17 2.85 2.85 0 01-1.539 1.53 1.776 1.776 0 01-.212.11c-.069.04-.141.08-.217.12s-.184.08-.28.13c-.159.07-.322.14-.5.21a22.555 22.555 0 01-4.994 1.23c-.673.1-1.379.18-2.109.25v-.48a1.542 1.542 0 00-1.539-1.54h-4.258a1.541 1.541 0 00-1.538 1.54v.48c-.593-.05-1.167-.12-1.724-.19a24 24 0 01-5.379-1.29c-.18-.07-.348-.14-.51-.22-.089-.04-.173-.08-.254-.12s-.168-.08-.248-.12-.129-.07-.191-.1A2.869 2.869 0 011.246 12a1.372 1.372 0 01-.024-.17l.006-.06v-.07c0-.02 0-.05-.006-.06V8.22a2.22 2.22 0 011.944-2.38h23.2z" fill="#2c3233" fill-rule="evenodd"/></svg>