<svg xmlns="http://www.w3.org/2000/svg" width="28.75" height="25.37"><path data-name="Composite Path" d="M13.935 24.94a.745.745 0 00-.06-.06l.232-.22-.234.22c-3.846-3.85-7.275-7.19-9.764-10.04C1.634 11.99.025 9.7-.012 7.59a1.341 1.341 0 010-.16A7.452 7.452 0 017.447.01a7.443 7.443 0 016.746 4.3l.166.36.006-.01.162-.35a7.452 7.452 0 016.752-4.3 7.446 7.446 0 017.457 7.42v.16c-.038 2.11-1.65 4.4-4.123 7.26-2.487 2.83-5.907 6.17-9.749 10.01a.146.146 0 00-.027.03l-.433.47-.477-.42zM1.29 7.46v.13c-.038 1.36 1.349 3.63 3.8 6.4 2.348 2.68 5.61 5.88 9.282 9.54 3.676-3.67 6.931-6.86 9.275-9.54 2.451-2.76 3.84-5.03 3.8-6.4v-.13a6.168 6.168 0 00-6.158-6.16 6.168 6.168 0 00-5.577 3.56l-.161.35-.093.2-.021.03a1.252 1.252 0 01-1.064.59 1.282 1.282 0 01-1.119-.68 1.353 1.353 0 01-.063-.13l-.166-.36A6.147 6.147 0 007.459 1.3a6.169 6.169 0 00-6.163 6.16zm13.11-2.7a.035.035 0 00-.008-.02l.008.02z" fill="#2c3233" fill-rule="evenodd"/></svg>