<svg version="1.1" id="Layer_1" xmlns="http://www.w3.org/2000/svg" x="0" y="0" viewBox="0 0 1440 765" xml:space="preserve"><style>.st1,.st3{opacity:.1;fill:#fff}.st3{fill:#6a6d89}</style><linearGradient id="SVGID_1_" gradientUnits="userSpaceOnUse" x1="117.069" y1="-136.105" x2="1319.76" y2="898.377"><stop offset="0" stop-color="#15eded"/><stop offset="1" stop-color="#029cf5"/></linearGradient><path fill="url(#SVGID_1_)" d="M0 0h1440v765H0z"/><path class="st1" d="M1359.1 141.7c-72.9-.4-79.4 148.6-225.3 150.2-164.8 1.8-142.7 75.5-249.3 75.1h-321c-106.7.4-84.5-203.7-249.3-205.5-145.9-1.6-152.4 71.5-225.3 71.9-26.6.1-58.3.9-88.8-8.7V765h1440V180c-28.1-15.3-56.7-38.2-81-38.3z"/><path d="M982.9 500.2l.9.4c.5-1.2 1-2.5 1.4-3.7l-.9-.4c-.5 1.2-1 2.4-1.4 3.7zm-2.9 7.5l.9.4c.5-1.2 1-2.5 1.4-3.7l-.9-.4c-.5 1.2-.9 2.4-1.4 3.7zm-5.7 14.9l.9.4c.5-1.2 1-2.5 1.4-3.7l-.9-.4c-.5 1.3-1 2.5-1.4 3.7zm18.9-48.5zm59.4-99.1l.7.7c1-.9 1.9-1.8 2.9-2.7l-.7-.7c-1 .9-1.9 1.8-2.9 2.7zm-61 102.8l.9.4c.5-1.2 1-2.5 1.5-3.7l-.9-.4c-.4 1.2-1 2.5-1.5 3.7zm-1.4 3.7zm-1.5 3.7l.9.4c.5-1.2 1-2.5 1.5-3.7l-.9-.4c-.5 1.3-1 2.5-1.5 3.7zm-3 7.5l.9.4c.5-1.2 1-2.5 1.5-3.7l-.9-.4c-.5 1.2-1 2.5-1.5 3.7zM956 567.1l.9.4c.6-1.2 1.1-2.4 1.7-3.7l-.9-.4c-.6 1.3-1.1 2.5-1.7 3.7zm15.4-37l.9.4c.5-1.2 1-2.5 1.4-3.7l-.9-.4c-.4 1.2-.9 2.5-1.4 3.7zm-18.8 44.2l.9.4c.6-1.2 1.2-2.4 1.7-3.6l-.9-.4c-.6 1.2-1.1 2.4-1.7 3.6zm8.3-18.2c-.5 1.2-1.1 2.5-1.6 3.7l.9.4c.5-1.2 1.1-2.4 1.6-3.7l-.9-.4zm7.6-18.5l.9.4c.5-1.2 1-2.5 1.5-3.7l-.9-.4c-.6 1.2-1 2.4-1.5 3.7zm-3 7.4l.9.4c.5-1.2 1-2.5 1.5-3.7l-.9-.4c-.5 1.2-1 2.5-1.5 3.7zM949 581.4l.9.5 1.8-3.6-.9-.5c-.6 1.3-1.2 2.5-1.8 3.6zm13.4-29l.9.4c.5-1.2 1-2.5 1.5-3.7l-.9-.4c-.4 1.3-.9 2.5-1.5 3.7zm65-146.3l.8.5c.7-1.1 1.5-2.2 2.2-3.3l-.8-.6c-.7 1.2-1.5 2.3-2.2 3.4zm4.5-6.6l.8.6c.8-1.1 1.6-2.2 2.3-3.2l-.8-.6c-.7 1-1.5 2.1-2.3 3.2zm-8.8 13.4l.9.5c.7-1.1 1.4-2.3 2.1-3.4l-.8-.5c-.8 1.1-1.5 2.3-2.2 3.4zm18.6-26.1l.8.6c.9-1 1.7-2 2.6-3l-.7-.7c-1 1-1.8 2.1-2.7 3.1zm5.3-6l.7.7c.9-1 1.8-1.9 2.7-2.9l-.7-.7c-.9.9-1.8 1.9-2.7 2.9zm-7.9 9.1c-.8 1-1.7 2.1-2.5 3.2l.8.6c.8-1.1 1.6-2.1 2.5-3.1l-.8-.7zm-18.1 26.4c-.7 1.1-1.4 2.3-2 3.5l.9.5c.7-1.2 1.3-2.3 2-3.5l-.9-.5zm-7.8 14.1l-1.8 3.6.9.5 1.8-3.6-.9-.5zm-13.8 28.9zm-1.6 3.7l.9.4c.5-1.2 1.1-2.5 1.6-3.7l-.9-.4c-.5 1.2-1.1 2.4-1.6 3.7zm3.2-7.4l.9.4c.5-1.2 1.1-2.4 1.6-3.6l-.9-.4c-.5 1.2-1 2.4-1.6 3.6zm6.8-14.5l.9.4 1.8-3.6-.9-.4-1.8 3.6zm-1.8 3.6c-.6 1.2-1.1 2.4-1.7 3.6l.9.4c.6-1.2 1.1-2.4 1.7-3.6l-.9-.4zm-11.3 25.7l.9.4c.5-1.2 1-2.5 1.5-3.7l-.9-.4c-.5 1.2-1 2.4-1.5 3.7zm20.4-43.6l.9.5c.6-1.2 1.3-2.3 1.9-3.5l-.9-.5c-.6 1.2-1.3 2.3-1.9 3.5zm-36.5 84.6c-.5 1.2-1 2.5-1.4 3.7l.9.4c.5-1.2 1-2.5 1.4-3.7l-.9-.4zM812.4 633.9h4v-1h-4v1zm-8 0h4v-1h-4v1zm-24 0h4v-1h-4v1zm8 0h4v-1h-4v1zm8 0h4v-1h-4v1zm24 0h4v-1h-4v1zm16 0h4v-1h-4v1zm-8 0h4v-1h-4v1zm16 0h4v-1h-4v1zm-72 0h4v-1h-4v1zm-48 0h4v-1h-4v1zm16 0h4v-1h-4v1zm-8 0h4v-1h-4v1zm16 0h4v-1h-4v1zm16 0h4v-1h-4v1zm-8 0h4v-1h-4v1zm96 0h4v-1h-4v1zm94.7-48.9c-.6 1.2-1.3 2.3-2 3.5l.9.5c.7-1.2 1.3-2.3 2-3.5l-.9-.5zm-32.8 39.3l.5.8c1.1-.7 2.2-1.5 3.3-2.3l-.6-.8c-1 .9-2.1 1.6-3.2 2.3zm-205.9 9.6h4v-1h-4v1zm212.3-14.3l.6.8c1-.9 2-1.7 3-2.7l-.7-.7c-.9.9-1.9 1.8-2.9 2.6zm22.4-27.7zm-4.3 6.7c-.7 1.1-1.5 2.2-2.3 3.3l.8.6c.8-1.1 1.5-2.2 2.3-3.3l-.8-.6zm2.2-3.3l.8.5c.7-1.1 1.4-2.3 2.1-3.4l-.9-.5c-.6 1.2-1.3 2.3-2 3.4zm-14.5 18.9l.7.7c.9-1 1.8-1.9 2.7-2.9l-.7-.7c-.9 1-1.8 2-2.7 2.9zm-58.1 19.7h4v-1h-4v1zm8 0h4v-1h-4v1zm-16 0h4v-1h-4v1zm31.9-1.4l.1 1c1.3-.2 2.7-.4 4-.7l-.2-1c-1.2.3-2.5.5-3.9.7zm7.8-1.6l.3 1c1.3-.4 2.6-.8 3.8-1.3l-.4-.9c-1.2.4-2.5.8-3.7 1.2zm7.3-2.8l.4.9 3.6-1.8-.5-.9c-1.1.7-2.3 1.3-3.5 1.8zm-22.1 4.8h-.8v1h.8c1.1 0 2.1 0 3.2-.1l-.1-1c-1 .1-2 .1-3.1.1zm48.9-27.8c-.8 1.1-1.6 2.1-2.5 3.1l.8.6c.8-1 1.7-2.1 2.5-3.2l-.8-.5zm370.5-444l.9.5c.6-1.2 1.3-2.3 1.9-3.5l-.9-.5c-.7 1.1-1.3 2.3-1.9 3.5zm-2 3.5c-.6 1.2-1.3 2.4-1.9 3.5l.9.5c.6-1.2 1.2-2.4 1.9-3.5l-.9-.5zm5.9-10.5l.9.5c.7-1.2 1.4-2.3 2-3.4l-.9-.5c-.7 1.1-1.3 2.2-2 3.4zm-11.4 21.2l.9.5 1.8-3.6-.9-.5-1.8 3.6zm-3.6 7.2l.9.4 1.8-3.6-.9-.4-1.8 3.6zm28.3-48.5l.8.6c.8-1.1 1.7-2.1 2.5-3.1l-.8-.7c-.8 1.1-1.7 2.1-2.5 3.2zm-11.3 16.6zm-45.9 89l.9.5c.6-1.2 1.3-2.3 1.9-3.5l-.9-.5c-.6 1.2-1.3 2.3-1.9 3.5zm52.4-99.1l.8.6c.8-1.1 1.5-2.2 2.3-3.3l-.8-.6c-.7 1.1-1.5 2.2-2.3 3.3zm-44.9 85l.9.5 1.8-3.6-.9-.5c-.6 1.3-1.2 2.4-1.8 3.6zm17.9-35.8l.9.4 1.8-3.6-.9-.4c-.7 1.2-1.2 2.4-1.8 3.6zm-14.2 28.7l.9.5 1.8-3.6-.9-.4c-.6 1.1-1.2 2.3-1.8 3.5zm-5.5 10.7c-.6 1.2-1.2 2.4-1.9 3.5l.9.5c.6-1.2 1.3-2.4 1.9-3.5l-.9-.5zm9.1-17.9l.9.4 1.8-3.6-.9-.4-1.8 3.6zm7-14.3l.9.4 1.8-3.6-.9-.4-1.8 3.6zm-3.5 7.2l.9.4 1.8-3.6-.9-.4-1.8 3.6zm29.7-56.9l.8.5c.7-1.1 1.4-2.3 2.2-3.4l-.8-.5c-.7 1.1-1.5 2.3-2.2 3.4zm89.4-37.8l.3 1c1.3-.3 2.6-.7 3.9-1.1l-.3-1c-1.3.4-2.6.8-3.9 1.1zm-7.7 1.6l.2 1c1.3-.2 2.6-.5 4-.7l-.2-1c-1.4.3-2.7.5-4 .7zm15.3-4l.3.9c1.2-.5 2.5-1 3.7-1.5l-.4-.9c-1.1.6-2.4 1-3.6 1.5zm17.5-9.2c-1.1.8-2.2 1.5-3.3 2.2l.5.8c1.1-.7 2.2-1.4 3.3-2.2l-.5-.8zm-10.2 6.1l.4.9c1.2-.6 2.4-1.2 3.6-1.9l-.5-.9c-1.2.7-2.3 1.3-3.5 1.9zm13.4-8.5l.6.8c1-.8 2.1-1.6 3.1-2.5l-.6-.8c-1 .9-2.1 1.7-3.1 2.5zm-103.3 32.5l.7.7c.9-1 1.8-1.9 2.8-2.8l-.7-.7c-.9.8-1.9 1.8-2.8 2.8zm63.3-16.3c-1.3.2-2.6.3-4 .4l.1 1c1.3-.1 2.7-.2 4-.4l-.1-1zm-47.4 4.1c-1.2.6-2.4 1.2-3.5 1.9l.5.9c1.1-.7 2.3-1.3 3.5-1.9l-.5-.9zm-10.1 6.6l.6.8c1-.9 2.1-1.7 3.1-2.5l-.6-.8c-1 .8-2 1.6-3.1 2.5zm13.8-8.2l.3.9c1.2-.4 2.5-.8 3.8-1.1l-.2-1c-1.4.4-2.6.8-3.9 1.2zm31.8-1.8v1c1.3 0 2.7-.1 4-.1v-1c-1.3.1-2.7.1-4 .1zm-8 .1v1h4v-1h-4zm-16-.1l.1 1c1.2-.1 2.5-.2 3.8-.2h.1v-1h-.1c-1.3 0-2.6.1-3.9.2zm8 .9c1.3 0 2.7.1 4 .1v-1c-1.3 0-2.7-.1-4-.1v1zm-163.6 205.5l.6.8c1.1-.7 2.2-1.5 3.3-2.3l-.6-.8c-1.2.8-2.2 1.6-3.3 2.3zm-51.6 19.8l.1 1c1.3-.2 2.7-.4 4-.6l-.2-1-3.9.6zm-7.9.9l.1 1c1.3-.1 2.7-.2 4-.4l-.1-1c-1.4.2-2.7.3-4 .4zm121.4-92.8l.9.5c.7-1.2 1.3-2.3 2-3.5l-.9-.5c-.7 1.2-1.4 2.3-2 3.5zm-137.4 94l.1 1c1.3-.2 2.6-.3 4-.4l-.1-1c-1.3.1-2.7.2-4 .4zm10.4-.8c-.8 0-1.6.1-2.4.1l.1 1c.8 0 1.6-.1 2.3-.1.6 0 1.1 0 1.6-.1l-.1-1c-.4 0-1 0-1.5.1zm36.7-6.9l.3.9c1.3-.4 2.5-.9 3.8-1.4l-.4-.9c-1.2.5-2.5 1-3.7 1.4zm-7.6 2.4l.3 1c1.3-.4 2.6-.7 3.8-1.1l-.3-1c-1.3.4-2.6.7-3.8 1.1zm-7.8 1.8l.2 1 3.9-.9-.2-1c-1.3.4-2.6.7-3.9.9zm-90.4 27.4l.6.8c1.1-.8 2.1-1.6 3.2-2.4l-.6-.8c-1 .8-2.1 1.6-3.2 2.4zm13.3-8.9l.5.9c1.1-.7 2.3-1.3 3.5-1.9l-.5-.9c-1.1.5-2.3 1.2-3.5 1.9zm-6.8 4.2l.6.8c1.1-.7 2.2-1.5 3.3-2.2l-.5-.9c-1.1.8-2.3 1.6-3.4 2.3zm106.7-29.7l.4.9c1.2-.5 2.5-1.1 3.7-1.6l-.4-.9c-1.3.5-2.5 1-3.7 1.6zm-66.3 12.5l-3.9.9.2 1 3.9-.9-.2-1zm-11.6 3.1l.3 1c1.3-.4 2.5-.8 3.8-1.2l-.3-1c-1.3.4-2.6.8-3.8 1.2zm-14.9 6.1l.4.9c1.2-.6 2.4-1.1 3.6-1.7l-.4-.9c-1.2.5-2.4 1.1-3.6 1.7zm7.3-3.3l.4.9c1.2-.5 2.5-1 3.7-1.4l-.3-.9c-1.3.4-2.5.9-3.8 1.4zm27.1-7.4c-1.3.2-2.6.4-4 .7l.2 1c1.3-.2 2.6-.5 3.9-.7l-.1-1zm124-67.5l.8.6c.8-1.1 1.5-2.2 2.3-3.3l-.8-.6c-.7 1.1-1.5 2.2-2.3 3.3zm-4.7 6.4l.8.6c.8-1.1 1.6-2.1 2.4-3.2l-.8-.6c-.8 1.1-1.6 2.2-2.4 3.2zm7-9.7zm6.7-10l.8.5c.7-1.1 1.4-2.3 2.1-3.4l-.8-.5c-.7 1.2-1.4 2.3-2.1 3.4zm4.2-6.8l.9.5c.7-1.1 1.4-2.3 2.1-3.5l-.9-.5c-.7 1.2-1.4 2.3-2.1 3.5zm-22.9 32.8l.8.6c.8-1 1.7-2.1 2.5-3.1l-.8-.6c-.8 1-1.6 2.1-2.5 3.1zm14.3-19.3l.8.6c.7-1.1 1.5-2.2 2.2-3.3l-.8-.5c-.7 1-1.5 2.1-2.2 3.2zm-189.6 102.6l.7.8c1-.9 2-1.7 3-2.6l-.6-.8c-1.1.8-2.1 1.7-3.1 2.6zm146.8-55.5l.6.8c1.1-.8 2.1-1.6 3.2-2.5l-.6-.8c-1.1.9-2.1 1.7-3.2 2.5zm-20.2 12.6l.4.9c1.2-.6 2.4-1.2 3.6-1.9l-.5-.9c-1.1.7-2.3 1.3-3.5 1.9zm7-3.8l.5.9c1.2-.7 2.3-1.4 3.4-2.1l-.5-.8c-1.1.7-2.2 1.4-3.4 2zm36.5-30.5l.7.7c.9-1 1.8-2 2.6-3l-.8-.7c-.7 1-1.6 2-2.5 3zm-5.4 5.8l.7.7c.9-1 1.9-1.9 2.8-2.9l-.7-.7c-1 1-1.9 2-2.8 2.9zm-5.7 5.6l.7.7c1-.9 1.9-1.8 2.9-2.8l-.7-.7c-1 1-1.9 1.9-2.9 2.8zm-6 5.3l.6.8c1-.9 2-1.7 3-2.6l-.7-.7c-.8.8-1.8 1.7-2.9 2.5zM716.4 633.9h4v-1h-4v1zM208.9 281.4c.8 1.1 1.6 2.1 2.5 3.2l.8-.6c-.8-1-1.7-2.1-2.5-3.1l-.8.5zm-1.6-3.8zm-3.1-2.7c.8 1.1 1.6 2.2 2.4 3.2l.8-.6c-.8-1.1-1.6-2.1-2.3-3.2l-.9.6zm26.9 29.5l-.7.7 3 2.7.7-.8c-1-.8-2-1.7-3-2.6zm-11.9-10.7l2.7 3 .7-.7c-.9-1-1.8-1.9-2.7-2.9l-.7.6zm-5.3-6.1c.9 1 1.7 2.1 2.6 3.1l.8-.7c-.9-1-1.7-2-2.6-3l-.8.6zm10.8 12c.9 1 1.9 1.9 2.8 2.8l.7-.7c-1-.9-1.9-1.9-2.8-2.8l-.7.7zm-29.5-37.9c.7 1.1 1.4 2.2 2.2 3.4l.8-.6c-.7-1.1-1.5-2.2-2.2-3.4l-.8.6zm4.4 6.7c.7 1.1 1.5 2.2 2.3 3.3l.8-.6c-.8-1.1-1.5-2.2-2.3-3.3l-.8.6zm-28-48.7l1.8 3.6.9-.5-1.8-3.6-.9.5zm-3.6-7.2l1.8 3.6.9-.5-1.8-3.6-.9.5zm22.9 42.4c.7 1.1 1.4 2.3 2.1 3.4l.8-.5c-.7-1.1-1.4-2.3-2.1-3.4l-.8.5zm-15.6-28.1c.6 1.2 1.2 2.4 1.9 3.6l.9-.5c-.6-1.2-1.2-2.4-1.9-3.5l-.9.4zm11.5 21.1c.7 1.2 1.3 2.3 2 3.5l.9-.5c-.7-1.2-1.4-2.3-2-3.5l-.9.5zm-7.8-14c.6 1.2 1.3 2.4 1.9 3.5l.9-.5c-.6-1.2-1.3-2.3-1.9-3.5l-.9.5zm3.9 7.1c.7 1.2 1.3 2.3 2 3.5l.9-.5c-.7-1.2-1.3-2.3-2-3.5l-.9.5zm146.5 100.3zm-12-.4c1.3.1 2.7.2 4 .3l.1-1c-1.3-.1-2.7-.2-4-.3l-.1 1zm-16-1.3c1.3.2 2.6.3 4 .5l.1-1c-1.3-.1-2.6-.3-3.9-.5l-.2 1zm-15.7-3.1c1.3.3 2.6.7 3.9 1l.2-1c-1.3-.3-2.6-.6-3.9-1l-.2 1zm-49.3-26c1 .9 2.1 1.7 3.1 2.5l.6-.8c-1-.8-2.1-1.7-3.1-2.5l-.6.8zm73 30c1.3.1 2.7.2 4 .2v-1c-1.3-.1-2.7-.1-4-.3v1.1zm23.8 2.4c1.3.3 2.6.5 3.9.8l.2-1c-1.3-.3-2.6-.6-3.9-.8l-.2 1zm-7.9-1.2l3.9.6.2-1c-1.3-.2-2.6-.4-4-.6l-.1 1zM164.5 205.3l1.8 3.6.9-.4-1.8-3.6-.9.4zm129 133c1.3.3 2.6.5 3.9.7l.2-1c-1.3-.2-2.6-.5-3.9-.7l-.2 1zm-50.8-22.9c1.1.8 2.2 1.6 3.2 2.3l.6-.8c-1.1-.8-2.2-1.5-3.2-2.3l-.6.8zm35.3 18.8c1.3.4 2.5.8 3.8 1.2l.3-1c-1.3-.4-2.5-.8-3.8-1.2l-.3 1zM249.3 320c1.1.7 2.2 1.5 3.4 2.2l.5-.9c-1.1-.7-2.3-1.4-3.4-2.1l-.5.8zm-9.1-7.8zm30.3 19.1c1.2.5 2.5 1 3.7 1.5l.4-.9c-1.2-.5-2.5-1-3.7-1.5l-.4.9zm-14.4-7c1.2.7 2.3 1.3 3.5 1.9l.5-.9c-1.2-.6-2.3-1.3-3.5-1.9l-.5.9zm7.1 3.7c1.2.6 2.4 1.2 3.6 1.7l.4-.9c-1.2-.5-2.4-1.1-3.6-1.7l-.4.9zM154.8 183.3l-.9.4 1.8 3.6.9-.4c-.7-1.2-1.3-2.4-1.8-3.6zM54.4 112.1c1.3.2 2.7.4 4 .5l.1-1c-1.3-.1-2.6-.3-3.9-.5l-.2 1zm109.2 89.2zM31.4 105.2c1.2.6 2.4 1.1 3.7 1.6l.4-.9c-1.2-.5-2.4-1-3.6-1.6l-.5.9zm7.4 3.1c1.3.5 2.5.9 3.8 1.3l.3-1c-1.3-.4-2.5-.8-3.8-1.2l-.3.9zm23.6 3.7l-.1 1c1.3.1 2.7.2 4 .2v-1c-1.2 0-2.6-.1-3.9-.2zm26.4.1c-.8 0-1.6 0-2.5.1v1c.8 0 1.6 0 2.5-.1h1.5v-1h-1.5zm-15.2.3h-3.3v1h4v-1h-.7zm8.8-.1c-1.3 0-2.7.1-4 .1v1c1.3 0 2.7-.1 4-.1v-1zM.4 80c.9 1 1.7 2.1 2.6 3l.7-.7c-.9-1-1.7-2-2.6-3l-.7.7zm1438.9 7.5zm0 0c-1 1-1.9 1.9-2.9 2.7l.7.7c1-.9 1.9-1.8 2.9-2.7v-.1l-.7-.6zM94.4 112.4l-.1 1c1.3.2 2.6.4 3.8.8l.3-1c-1.3-.3-2.6-.6-4-.8zm-70.1-11.1c1.2.7 2.3 1.4 3.5 2l.5-.9c-1.1-.6-2.3-1.3-3.4-2l-.6.9zM5.8 86c.9 1 1.9 1.9 2.8 2.9l.7-.7-2.8-2.8-.7.6zm11.9 10.8c1.1.8 2.2 1.6 3.3 2.3l.6-.8c-1.1-.7-2.1-1.5-3.2-2.3l-.7.8zm-6.2-5.2c1 .9 2 1.8 3 2.6l.6-.8c-1-.8-2-1.7-3-2.6l-.6.8zm35.2 18l-.2 1 3.9.9.2-1-3.9-.9zm99.9 59.9l1.8 3.6.9-.5-1.8-3.6-.9.5zm3.7 7.1l1.8 3.6.9-.4-1.8-3.6-.9.4zm-7.4-14.2c.6 1.2 1.3 2.3 1.9 3.5l.9-.5c-.6-1.2-1.3-2.4-1.9-3.5l-.9.5zm-41.1-47c1.2.5 2.4 1 3.6 1.6l.5-.9c-1.2-.6-2.4-1.2-3.7-1.7l-.4 1zm59.1 82.7l1.8 3.6.9-.4-1.8-3.6-.9.4zm180 146.6c1.3.3 2.6.7 3.8 1.1l.3-1c-1.3-.4-2.6-.7-3.9-1.1l-.2 1zM157.4 190.9l1.8 3.6.9-.4-1.8-3.6-.9.4zM139 155.4c.7 1.1 1.3 2.3 2 3.5l.9-.5c-.7-1.2-1.3-2.3-2-3.5l-.9.5zm-26.4-35zm2.5 3.3c1 .9 1.9 1.8 2.9 2.7l.7-.7c-1-1-2-1.9-2.9-2.7l-.7.7zm-6.3-4.7c1.1.7 2.2 1.4 3.2 2.3l.6-.8c-1.1-.8-2.2-1.6-3.3-2.3l-.5.8zm17.1 16.4c.8 1 1.6 2.1 2.4 3.2l.8-.6c-.8-1.1-1.6-2.2-2.4-3.2l-.8.6zm4.6 6.4c.7 1.1 1.5 2.2 2.2 3.3l.8-.5c-.7-1.1-1.5-2.3-2.2-3.3l-.8.5zm4.4 6.7c.7 1.1 1.4 2.3 2.1 3.4l.9-.5c-.7-1.2-1.4-2.3-2.1-3.4l-.9.5zm-14.2-19.2c.9 1 1.7 2 2.6 3l.8-.6c-.9-1-1.8-2.1-2.6-3l-.8.6zm467.7 504.6h4v-1h-4v1zm-54.5-8.2c1.1.7 2.3 1.4 3.5 2l.5-.9c-1.2-.6-2.3-1.3-3.4-2l-.6.9zm7.1 3.7c1.2.5 2.5 1 3.7 1.5l.3-.9c-1.2-.4-2.5-.9-3.7-1.5l-.3.9zm-13-9.2l-.6.8c1 .9 2.1 1.7 3.2 2.5l.6-.8c-1.1-.9-2.2-1.7-3.2-2.5zm-6.6-4.6c1 1 1.9 1.9 2.9 2.8l.7-.7c-1-.9-1.9-1.8-2.9-2.8l-.7.7zm27.1 16.5l3.9.9.2-1c-1.3-.2-2.6-.5-3.8-.9l-.3 1zm15.9 1.8h4v-1h-4v1zM516 609.6c.9 1 1.7 2.1 2.6 3l.7-.7c-.9-1-1.8-2-2.6-3l-.7.7zm56.4 24.3h4v-1h-4v1zm-16-.3c1.3.1 2.6.2 4 .3v-1c-1.3 0-2.6-.1-3.9-.3l-.1 1zm-65-65.3c.6 1.2 1.1 2.4 1.7 3.6l.9-.4c-.6-1.2-1.1-2.4-1.7-3.6l-.9.4zm3.5 7.3l1.8 3.6.9-.5-1.8-3.6-.9.5zm-10-22c.5 1.2 1 2.5 1.6 3.7l.9-.4c-.5-1.2-1-2.4-1.6-3.7l-.9.4zm13.6 29.1c.6 1.2 1.3 2.4 1.9 3.5l.9-.5c-.6-1.2-1.3-2.3-1.9-3.5l-.9.5zm8.1 13.9c.7 1.1 1.5 2.3 2.2 3.4l.8-.6c-.7-1.1-1.5-2.2-2.2-3.3l-.8.5zm-4.2-6.9c.7 1.2 1.4 2.3 2 3.5l.9-.5c-.7-1.1-1.4-2.3-2-3.4l-.9.4zm8.7 13.5c.8 1.1 1.6 2.2 2.4 3.2l.8-.6c-.8-1-1.6-2.1-2.4-3.2l-.8.6zm-23-42.2c.5 1.2 1.1 2.5 1.6 3.7l.9-.4c-.5-1.2-1.1-2.4-1.6-3.7l-.9.4zm172.3 72.9h4v-1h-4v1zm-8 0h4v-1h-4v1zm-72 0h4v-1h-4v1zm112 0h4v-1h-4v1zm-16 0h4v-1h-4v1zm-32 0h4v-1h-4v1zM348.5 347c1.3.4 2.5.9 3.7 1.3l.4-.9c-1.2-.5-2.5-.9-3.8-1.3l-.3.9zm319.9 286.9h4v-1h-4v1zm-72 0h4v-1h-4v1zm104 0h4v-1h-4v1zm-64 0h4v-1h-4v1zm-32 0h4v-1h-4v1zm24 0h4v-1h-4v1zm-16 0h4v-1h-4v1zm8 0h4v-1h-4v1zm64 0h4v-1h-4v1zM411 394.4c.8 1.1 1.6 2.1 2.4 3.2l.8-.6c-.8-1.1-1.6-2.2-2.4-3.2l-.8.6zm4.8 6.4c.8 1.1 1.5 2.2 2.3 3.3l.8-.6c-.8-1.1-1.5-2.2-2.3-3.3l-.8.6zm-9.7-12.7c.8 1 1.7 2.1 2.5 3.1l.8-.6c-.8-1.1-1.7-2.1-2.5-3.1l-.8.6zm14.1 19.3c.7 1.1 1.4 2.2 2.2 3.4l.8-.5c-.7-1.1-1.4-2.3-2.2-3.4l-.8.5zm4.3 6.8c.7 1.1 1.4 2.3 2.1 3.4l.9-.5c-.7-1.2-1.4-2.3-2.1-3.4l-.9.5zm-23.7-32.1l2.7 3 .8-.7-2.7-3-.8.7zm32.5 45.5l-.9.5c.6 1.2 1.3 2.4 1.9 3.5l.9-.5c-.7-1.1-1.3-2.3-1.9-3.5zm2.8 7.6l1.8 3.6.9-.4-1.8-3.6-.9.4zm-7.6-14.1c.7 1.2 1.3 2.3 2 3.5l.9-.5c-.6-1.2-1.3-2.3-2-3.5l-.9.5zm-65.3-68c1.2.6 2.4 1.2 3.5 1.8l.5-.9c-1.2-.6-2.4-1.3-3.6-1.9l-.4 1zm32.1 23.3l2.8 2.8.7-.7c-.9-1-1.9-1.9-2.8-2.9l-.7.8zM356 349.8c1.2.5 2.4 1 3.6 1.6l.4-.9c-1.2-.6-2.4-1.1-3.7-1.6l-.3.9zm14.2 7.1c1.1.7 2.3 1.4 3.4 2.1l.5-.8c-1.1-.7-2.3-1.4-3.4-2.1l-.5.8zm6.7 4.2c1.1.7 2.2 1.5 3.3 2.3l.6-.8c-1.1-.8-2.2-1.6-3.3-2.3l-.6.8zm13.2 9.1l-.7.8 3 2.7.7-.7c-1-1.1-2-2-3-2.8zm-6.8-4.4c1 .8 2.1 1.6 3.1 2.5l.6-.8c-1-.9-2.1-1.7-3.1-2.5l-.6.8zm78.3 128.1c.5 1.2 1 2.5 1.4 3.7l.9-.4c-.5-1.2-1-2.5-1.4-3.7l-.9.4zm5.7 15c.5 1.3 1 2.5 1.4 3.7l.9-.4c-.5-1.2-1-2.5-1.4-3.7l-.9.4zm2.9 7.5c.5 1.3 1 2.5 1.4 3.7l.9-.4c-.5-1.2-1-2.5-1.4-3.7l-.9.4zm-5.7-15c.5 1.3 1 2.5 1.4 3.7l.9-.4c-.5-1.2-1-2.5-1.4-3.7l-.9.4zm14.4 37.4c.5 1.2 1 2.5 1.5 3.7l.9-.4c-.5-1.2-1-2.5-1.5-3.7l-.9.4zm3 7.4c.5 1.2 1 2.5 1.5 3.7l.9-.4c-.5-1.2-1-2.5-1.5-3.7l-.9.4zm-5.9-14.9c.5 1.3 1 2.5 1.5 3.7l.9-.4c-.5-1.2-1-2.5-1.5-3.7l-.9.4zm-2.9-7.5c.5 1.3 1 2.5 1.4 3.7l.9-.4c-.5-1.2-1-2.5-1.4-3.7l-.9.4zm-26.7-66.9c.5 1.2 1.1 2.4 1.6 3.7l.9-.4c-.5-1.2-1.1-2.4-1.6-3.7l-.9.4zm12.3 29.6c.5 1.2 1 2.5 1.5 3.7l.9-.4c-.5-1.2-1-2.5-1.5-3.7l-.9.4zm-15.6-36.9c.6 1.2 1.1 2.4 1.7 3.6l.9-.4c-.6-1.2-1.1-2.4-1.7-3.6l-.9.4zm-3.4-7.3c.6 1.2 1.2 2.4 1.7 3.6l.9-.4c-.6-1.2-1.1-2.4-1.7-3.6l-.9.4zm6 10.5zm10 26.2c.5 1.2 1 2.5 1.5 3.7l.9-.4c-.5-1.2-1-2.5-1.5-3.7l-.9.4zm-5.2-15.2l-.9.4c.5 1.2 1 2.5 1.6 3.7l.9-.4c-.6-1.2-1.1-2.5-1.6-3.7zm2.2 7.8c.5 1.2 1 2.5 1.5 3.7l.9-.4c-.5-1.2-1-2.5-1.5-3.7l-.9.4z" opacity=".6" fill="#fff"/><path class="st1" d="M151 359.4c0 10-8.1 18-18 18s-18-8.1-18-18 8.1-18 18-18 18 8.1 18 18z"/><circle class="st1" cx="570.7" cy="327.9" r="18"/><path class="st3" d="M280.7 113.6c0 10-8.1 18-18 18s-18-8.1-18-18c0-10 8.1-18 18-18s18 8.1 18 18z"/><circle class="st3" cx="224.7" cy="704.4" r="8"/><path class="st3" d="M156.7 55.5c0 4.4-3.6 8-8 8s-8-3.6-8-8 3.6-8 8-8 8 3.6 8 8zm1027.8 136.1c0 7.7-6.3 14-14 14s-14-6.3-14-14 6.3-14 14-14c7.7-.1 14 6.2 14 14zM1399 668.7c0 7.7-6.3 14-14 14s-14-6.3-14-14 6.3-14 14-14 14 6.3 14 14z"/><path class="st1" d="M1136.7 30.5c0 8.3-6.7 15-15 15s-15-6.7-15-15 6.7-15 15-15 15 6.7 15 15zM81 444.5c0 3.3-2.7 6-6 6s-6-2.7-6-6 2.7-6 6-6 6 2.7 6 6zm552.5-65.7c0 3.3-2.7 6-6 6s-6-2.7-6-6 2.7-6 6-6 6 2.7 6 6zM1059 537.7c0 3.3-2.7 6-6 6s-6-2.7-6-6 2.7-6 6-6 6 2.7 6 6zm307-43.1c0 3.3-2.7 6-6 6s-6-2.7-6-6 2.7-6 6-6 6 2.7 6 6z"/></svg>