<svg version="1.1" id="Layer_1" xmlns="http://www.w3.org/2000/svg" x="0" y="0" viewBox="0 0 1440 1000" xml:space="preserve"><style>.st1,.st3{opacity:.1;fill:#fff}.st3{fill:#6a6d89}</style><linearGradient id="SVGID_1_" gradientUnits="userSpaceOnUse" x1="58.979" y1="-68.57" x2="1377.544" y2="1065.579"><stop offset="0" stop-color="#15eded"/><stop offset="1" stop-color="#029cf5"/></linearGradient><path fill="url(#SVGID_1_)" d="M0 0h1440v1000H0z"/><path class="st1" d="M1133.8 423.2c-236.1-89.6-221.1 79.4-393.6 79.4H563.5c-106.7.4-94.8-160.1-249.3-184.1-144.2-22.4-152.4 42.6-225.3 43-26.6.2-58.3 1-88.8-9.2V1000h1440V305.1c-28-16.2-56.6-40.4-80.9-40.5-73-.5-89 210.4-225.4 158.6z"/><path class="st1" d="M1133.8 753.5C969 755.3 991.1 829 884.5 828.6h-321c-106.7.4-84.5-203.4-249.3-205.2-145.9-1.6-152.4 71.4-225.3 71.8-26.6.1-58.3.9-88.8-8.7V1000h1440V641.8c-28-15.3-56.6-38.2-80.9-38.3-73-.4-79.5 148.4-225.4 150z"/><path d="M980.6 871.1c-.8 1.1-1.6 2.2-2.4 3.2l.8.6c.8-1.1 1.6-2.1 2.4-3.2l-.8-.6zm-11.9 16.1l.8.6c.8-1.1 1.6-2.1 2.4-3.2l-.8-.6c-.8 1-1.6 2.1-2.4 3.2zm4.8-6.4l.8.6c.8-1.1 1.6-2.1 2.4-3.2l-.8-.6c-.9 1-1.7 2.1-2.4 3.2zm9.4-12.9l.8.6c.8-1.1 1.6-2.1 2.4-3.2l-.8-.6c-.8 1-1.6 2.1-2.4 3.2zm4.8-6.5l.8.6c.8-1.1 1.6-2.1 2.4-3.2l-.8-.6c-.8 1.1-1.6 2.2-2.4 3.2zm94.6-70.1l.3 1c1.3-.3 2.6-.7 3.9-1l-.2-1c-1.4.3-2.7.6-4 1zM942 916.7l.6.8c1-.9 2-1.7 3-2.6l-.6-.9-3 2.7zm50.6-61.6l.8.6c.8-1 1.6-2.1 2.5-3.1l-.8-.6c-.9 1-1.7 2-2.5 3.1zm-56.9 66.4l.6.8c1.1-.8 2.2-1.6 3.2-2.4l-.6-.8c-1.1.9-2.1 1.7-3.2 2.4zm28.1-28l.8.6c.8-1 1.7-2.1 2.5-3.2l-.8-.6c-.9 1.1-1.7 2.1-2.5 3.2zm-5.1 6.1l.8.6c.9-1 1.7-2 2.6-3.1l-.8-.6c-.9 1.1-1.7 2.1-2.6 3.1zm-5.3 6l.7.7 2.7-3-.7-.7c-.9 1.1-1.8 2-2.7 3zm-5.5 5.7l.7.7c1-.9 1.9-1.9 2.8-2.8l-.7-.7c-.9 1-1.9 1.9-2.8 2.8zm104.5-108.5l.5.9 3.6-1.8-.4-.9c-1.3.6-2.5 1.2-3.7 1.8zm-7 3.8l.5.9c1.1-.7 2.3-1.3 3.5-2l-.5-.9c-1.2.7-2.3 1.3-3.5 2zm14.3-7.3l.4.9c1.2-.5 2.4-1.1 3.7-1.6l-.4-.9c-1.3.6-2.5 1.1-3.7 1.6zm15-5.7l.3 1c1.3-.4 2.5-.8 3.8-1.2l-.3-1c-1.3.4-2.6.8-3.8 1.2zm-7.6 2.7l.4.9c1.2-.5 2.5-.9 3.7-1.4l-.3-.9c-1.3.4-2.6.9-3.8 1.4zm-28.5 14.5l.5.8c1.1-.7 2.2-1.4 3.4-2.1l-.5-.9c-1.2.8-2.3 1.5-3.4 2.2zm-35.8 31.9l.8.7c.9-1 1.8-2 2.6-3l-.7-.7c-1 1-1.9 2-2.7 3zm29.2-27.3l.6.8c1.1-.8 2.1-1.6 3.2-2.3l-.6-.8c-1 .7-2.1 1.5-3.2 2.3zm-23.9 21.4l.7.7c.9-1 1.8-1.9 2.8-2.9l-.7-.7c-.9.9-1.8 1.9-2.8 2.9zm-10.5 12l.8.6c.8-1 1.7-2 2.6-3.1l-.8-.6c-.9 1.1-1.8 2.1-2.6 3.1zm16.1-17.8l.7.7c.9-.9 1.9-1.9 2.9-2.8l-.7-.7c-.9 1-1.9 1.9-2.9 2.8zm5.9-5.5l.7.7c1-.9 2-1.8 3-2.6l-.7-.8-3 2.7zm6.1-5.2l.6.8c1-.8 2.1-1.7 3.1-2.5l-.6-.8c-1.1.8-2.1 1.7-3.1 2.5zm-93.3 103.4c-1.1.7-2.2 1.4-3.4 2.1l.5.9c1.2-.7 2.3-1.4 3.4-2.1l-.5-.9zM787.3 938h4v-1h-4v1zm8 0h4v-1h-4v1zm-16 0h4v-1h-4v1zm32 0h4v-1h-4v1zm-40 0h4v-1h-4v1zm32 0h4v-1h-4v1zm-48 0h4v-1h-4v1zm-16 0h4v-1h-4v1zm-8 0h4v-1h-4v1zm16 0h4v-1h-4v1zm16 0h4v-1h-4v1zm56 0h4v-1h-4v1zm48 0h4v-1h-4v1zm28-1.5c-1.3.1-2.6.2-4 .3l.1 1c1.4-.1 2.7-.2 4-.3l-.1-1zm-8 .4h-3.9v1h4l-.1-1zm-60 1.1h4v-1h-4v1zm91-7c-1.2.5-2.5.9-3.7 1.4l.3.9c1.3-.4 2.5-.9 3.8-1.4l-.4-.9zm-11.3 3.6l.2 1c1.3-.3 2.6-.6 3.9-1l-.3-1c-1.2.3-2.5.7-3.8 1zm-31.7 3.4h4v-1h-4v1zm23.9-2l.1 1c1.3-.2 2.7-.4 4-.6l-.2-1-3.9.6zm-63.9 2h4v-1h-4v1zm8 0h4v-1h-4v1zm-120 0h4v-1h-4v1zm198.7-8.5l.4.9c1.2-.6 2.4-1.1 3.6-1.8l-.5-.9c-1.1.6-2.3 1.2-3.5 1.8zm-62.7 8.5h4v-1h-4v1zm-8 0h4v-1h-4v1zm238.8-148.6l.2 1c1.3-.3 2.6-.6 3.9-.8l-.2-1c-1.3.2-2.6.5-3.9.8zm242-117.9l.4.9c1.2-.6 2.4-1.1 3.6-1.5l-.4-.9c-1.2.4-2.4.9-3.6 1.5zm-13.8 8.2l.6.8c1.1-.8 2.2-1.6 3.3-2.3l-.6-.8c-1.1.8-2.2 1.5-3.3 2.3zm6.7-4.4l.5.9c1.1-.7 2.3-1.3 3.4-2l-.5-.9c-1.1.6-2.3 1.3-3.4 2zm14.5-6.7l.3 1c1.3-.4 2.5-.8 3.8-1.1l-.2-1c-1.3.3-2.6.7-3.9 1.1zm3.9-1.1zm-70.8 57l.7.7c.9-1 1.9-1.9 2.8-2.9l-.7-.7c-.9 1-1.9 2-2.8 2.9zm16.6-17.3l.7.7c.9-1 1.8-1.9 2.7-2.9l-.7-.7c-.9.9-1.8 1.9-2.7 2.9zm-5.5 5.8l.7.7c.9-1 1.8-1.9 2.7-2.9l-.7-.7c-.9 1-1.8 1.9-2.7 2.9zm-5.5 5.8l.7.7c.9-1 1.9-1.9 2.8-2.9l-.7-.7c-1 1-1.9 1.9-2.8 2.9zm22.1-23.2l.7.7 2.8-2.8-.7-.7-2.8 2.8zm5.7-5.6l.7.7c1-.9 2-1.8 2.9-2.7l-.7-.7c-.9.9-1.9 1.8-2.9 2.7zm-8.5 8.5c-.9.9-1.9 1.9-2.8 2.9l.7.7c.9-1 1.9-1.9 2.8-2.9l-.7-.7zm49.8-31.8l.2 1 3.9-.6-.1-1c-1.3.1-2.6.3-4 .6zm79.1-8.1l.3.9c1.3-.4 2.5-.9 3.8-1.4l-.4-.9c-1.2.5-2.5.9-3.7 1.4zm-7.6 2.4l.3 1c1.3-.4 2.6-.7 3.9-1.1l-.3-1c-1.4.3-2.6.7-3.9 1.1zm-7.8 1.8l.2 1 3.9-.9-.2-1c-1.3.4-2.6.6-3.9.9zm26.4-8.8zm0 0c-1.2.6-2.4 1.1-3.6 1.7l.4.9c1.2-.5 2.4-1.1 3.6-1.7l-.4-.9zm-34.2 10.2l.1 1c1.3-.2 2.6-.4 4-.6l-.2-1-3.9.6zm-23.9 1.6v1c1.3 0 2.7 0 4-.1v-1c-1.3.1-2.6.1-4 .1zm-16 1c1.3 0 2.7 0 4 .1v-1c-1.3 0-2.7 0-4-.1v1zm11-.9h-3v1h4v-1h-1zm13-.3v1c1.3-.1 2.7-.1 4-.2l-.1-1c-1.2.1-2.6.1-3.9.2zm-28.9.1c-1 0-2 0-3 .1v1c1 0 2-.1 3-.1h.9v-1h-.9zm36.9-.6l.1 1c1.3-.1 2.7-.3 4-.4l-.1-1c-1.4.1-2.7.3-4 .4zm-83.3 19.6l.6.8c1-.9 2-1.7 3.1-2.5l-.6-.8c-1 .8-2.1 1.6-3.1 2.5zm-174.2 99.5v1c1.3 0 2.7-.1 4-.2l-.1-1c-1.2.1-2.6.1-3.9.2zm15.9-1.1l.1 1c1.3-.1 2.7-.3 4-.4l-.1-1c-1.3.1-2.7.2-4 .4zm-7.9.6l.1 1c1.3-.1 2.7-.2 4-.3l-.1-1c-1.4.2-2.7.3-4 .3zm15.8-1.6l.1 1c1.3-.2 2.7-.4 4-.6l-.2-1c-1.2.3-2.5.4-3.9.6zm105.3-52l.7.7c1-.9 1.9-1.9 2.9-2.8l-.7-.7c-1 1-1.9 1.9-2.9 2.8zm-97.4 50.8l.2 1c1.3-.2 2.6-.5 3.9-.7l-.2-1c-1.3.2-2.6.5-3.9.7zm7.8-1.5l.2 1 3.9-.9-.2-1-3.9.9zm-75.4 7.7c-1.3.2-2.6.4-3.9.7l.2 1c1.3-.2 2.6-.5 3.9-.7l-.2-1zm4-.6l.1 1c1.3-.2 2.6-.4 4-.5l-.1-1c-1.4.1-2.7.3-4 .5zm7.9-1l.1 1c1.3-.1 2.6-.3 4-.4l-.1-1c-1.3.2-2.7.3-4 .4zm8-.7l.1 1c1.3-.1 2.6-.2 4-.2l-.1-1c-1.4.1-2.7.1-4 .2zm12-.5c-1.3 0-2.7.1-4 .1v1c1.3 0 2.6-.1 4-.1v-1zm51.3-6.8l.3 1c1.3-.3 2.6-.7 3.9-1.1l-.3-1c-1.3.4-2.6.8-3.9 1.1zm57.4-26.9l.6.8c1.1-.8 2.2-1.6 3.2-2.4l-.6-.8c-1.1.9-2.1 1.7-3.2 2.4zm9.5-7.2c-1 .8-2.1 1.7-3.1 2.5l.6.8c1.1-.8 2.1-1.7 3.1-2.5l-.6-.8zm-16.1 11.7l.5.8c1.1-.7 2.2-1.5 3.3-2.2l-.6-.8c-1 .8-2.1 1.5-3.2 2.2zm19.2-14.3l.6.8c1-.9 2-1.7 3-2.6l-.7-.8c-.9.9-1.9 1.8-2.9 2.6zm-58.6 33.3zm64.6-38.5l.7.7 3-2.7-.7-.7c-1.1.9-2 1.8-3 2.7zm-32 23.8l.5.9c1.2-.7 2.3-1.4 3.4-2.1l-.5-.8c-1.1.6-2.2 1.3-3.4 2zm-28.8 13.4l.3.9c1.3-.5 2.5-.9 3.8-1.4l-.4-.9c-1.2.5-2.4 1-3.7 1.4zm-7.6 2.5l.3 1c1.3-.4 2.6-.8 3.8-1.2l-.3-.9c-1.2.3-2.5.8-3.8 1.1zm15.1-5.3l.4.9c1.2-.5 2.5-1 3.7-1.6l-.4-.9c-1.3.5-2.5 1.1-3.7 1.6zm14.4-6.8l.5.9c1.2-.6 2.4-1.3 3.5-1.9l-.5-.9c-1.2.7-2.3 1.3-3.5 1.9zm-7.2 3.6l.4.9c1.2-.6 2.4-1.1 3.6-1.7l-.4-.9c-1.1.5-2.3 1.1-3.6 1.7zM563.3 937v1h4v-1h-4zM221.2 760.7zm3 2.8c1.2.6 2.4 1.2 3.6 1.9l.5-.9c-1.2-.6-2.4-1.2-3.5-1.8l-.6.8zm-7-3.9c1.1.7 2.3 1.4 3.5 2l.5-.9c-1.2-.7-2.3-1.3-3.4-2l-.6.9zm18.2 8.3zm-4.1-.8c1.2.6 2.4 1.1 3.6 1.7l.4-.9c-1.2-.5-2.4-1.1-3.6-1.7l-.4.9zm-20.9-11.8c1.1.7 2.2 1.5 3.4 2.2l.5-.8c-1.1-.7-2.2-1.4-3.3-2.2l-.6.8zm-6.5-4.6c1.1.8 2.2 1.6 3.3 2.3l.6-.8c-1.1-.8-2.2-1.5-3.2-2.3l-.7.8zM179.4 730c1 .9 1.9 1.8 2.9 2.8l.7-.7c-1-.9-1.9-1.8-2.9-2.8l-.7.7zm59.3 40.4c1.2.5 2.5 1 3.7 1.5l.4-.9c-1.2-.5-2.5-1-3.7-1.5l-.4.9zm-53.4-34.9l3 2.7.7-.7-3-2.7-.7.7zm-11.5-11.2l2.8 2.8.7-.7c-1-.9-1.9-1.9-2.8-2.8l-.7.7zm23.7 21.6c1 .8 2.1 1.6 3.2 2.5l.6-.8c-1.1-.8-2.1-1.6-3.1-2.4l-.7.7zm-6.2-5.1c1 .9 2 1.7 3.1 2.6l.6-.8c-1-.9-2.1-1.7-3.1-2.6l-.6.8zm85.7 40.9c1.3.2 2.6.5 3.9.7l.2-1c-1.3-.2-2.6-.4-3.9-.7l-.2 1zm31.9 3.4c1.3.1 2.7.1 4 .1v-1c-1.3 0-2.7-.1-4-.1v1zm-8-.4c1.3.1 2.7.2 4 .3l.1-1c-1.3-.1-2.7-.2-4-.3l-.1 1zm16 .7c1.3 0 2.7.1 4 .2v-1c-1.3-.1-2.7-.1-4-.2v1zm15.9 1c1.3.1 2.7.3 4 .4l.1-1c-1.3-.2-2.6-.3-4-.4l-.1 1zm-39.9-2.5c1.3.1 2.6.3 4 .4l.1-1c-1.3-.1-2.7-.3-4-.4l-.1 1zm31.9 1.8c1.3.1 2.7.2 4 .3l.1-1c-1.3-.1-2.7-.2-4-.3l-.1 1zm-55.6-5.6c1.3.3 2.6.6 3.9.8l.2-1c-1.3-.3-2.6-.5-3.9-.8l-.2 1zm-15.5-4.2c1.3.4 2.5.8 3.8 1.2l.3-1c-1.3-.4-2.6-.8-3.8-1.2l-.3 1zm7.7 2.3c1.3.3 2.6.7 3.9 1l.2-1c-1.3-.3-2.6-.7-3.9-1l-.2 1zm-93.2-59.6c.9 1 1.8 1.9 2.8 2.9l.7-.7c-.9-1-1.9-1.9-2.8-2.9l-.7.7zm78.3 53.8l-.3.9c1.2.5 2.5.9 3.8 1.3l.3-.9c-1.3-.4-2.6-.8-3.8-1.3zm38.4 10.5c1.3.2 2.6.4 4 .5l.1-1c-1.3-.2-2.6-.3-4-.5l-.1 1zM83.3 665.8v1c1.3 0 2.7 0 4-.1v-1c-1.3.1-2.6.1-4 .1zm-24 .7c1.3.1 2.7.1 4 .2v-1c-1.3 0-2.7-.1-4-.2v1zm-8-.5c1.3.1 2.7.2 4 .3l.1-1c-1.3-.1-2.6-.2-4-.3l-.1 1zm-15.8-2.5c1.3.3 2.6.5 3.9.8l.2-1c-1.3-.2-2.6-.5-3.9-.8l-.2 1zm7.9 1.5c1.3.2 2.7.4 4 .5l.1-1c-1.3-.2-2.6-.3-3.9-.5l-.2 1zm23.9 1.8h4v-1h-4v1zm8-.9v1h4v-1h-4zM12.6 656c1.2.6 2.5 1.1 3.7 1.6l.4-.9c-1.2-.5-2.4-1-3.6-1.6l-.5.9zM0 649.2c.7.4 1.3.8 2 1.2l.5-.9c-.8-.5-1.7-1-2.5-1.6v1.3zm5.4 3.2c1.2.7 2.4 1.3 3.5 1.9l.5-.9c-1.2-.6-2.3-1.2-3.5-1.9l-.5.9zm335.5 133.9l-.1 1 3.9.6.2-1c-1.4-.2-2.7-.4-4-.6zM27.7 661.6c1.3.4 2.6.7 3.9 1l.2-1c-1.3-.3-2.6-.7-3.8-1l-.3 1zm-7.7-2.5c1.3.5 2.5.9 3.8 1.3l.3-.9c-1.3-.4-2.5-.8-3.8-1.3l-.3.9zm86.9 10.1c1.3.4 2.5.8 3.8 1.2l.3-.9c-1.3-.5-2.5-.9-3.8-1.3l-.3 1zm21.2 10.6c1.1.8 2.1 1.6 3.2 2.4l.6-.8c-1.1-.8-2.1-1.6-3.2-2.4l-.6.8zm-36.8-13.1c1.3 0 2.7.1 4 .2l.1-1c-1.3-.1-2.7-.2-4-.2l-.1 1zm54.8 28.7l2.8 2.8.7-.7c-.9-1-1.9-1.9-2.8-2.8l-.7.7zm-5.8-5.5c1 .9 1.9 1.8 2.9 2.7l.7-.7c-1-.9-1.9-1.9-2.9-2.8l-.7.8zm16.9 17c.9 1 1.8 1.9 2.7 2.9l.7-.7c-.9-1-1.8-1.9-2.7-2.9l-.7.7zm-5.5-5.8c.9 1 1.8 1.9 2.8 2.9l.7-.7c-.9-1-1.8-1.9-2.8-2.9l-.7.7zm-17.4-16.4c1 .8 2 1.7 3 2.6l.7-.8c-1-.9-2-1.8-3-2.6l-.7.8zm581 253.3h4v-1h-4v1zM162.7 712.8c.9 1 1.8 1.9 2.7 2.9l.7-.7c-.9-1-1.8-1.9-2.7-2.9l-.7.7zm-63.5-45.4c1.3.2 2.6.4 3.9.7l.2-1c-1.3-.3-2.6-.5-3.9-.7l-.2 1zm22.2 8.1c1.1.7 2.3 1.4 3.4 2.1l.5-.8c-1.1-.7-2.3-1.4-3.4-2.1l-.5.8zm-7.1-3.6c1.2.5 2.4 1.1 3.6 1.7l.5-.9c-1.2-.6-2.4-1.2-3.6-1.7l-.5.9zm11 4.8zm462 261.3h4v-1h-4v1zm-8 0h4v-1h-4v1zm-8 0h4v-1h-4v1zm32 0h4v-1h-4v1zm-48-.3c1.3.1 2.6.2 4 .2v-1c-1.3 0-2.7-.1-4-.2v1zm40 .3h4v-1h-4v1zm-47.8-2.2l-.2 1c1.3.2 2.6.4 4 .5l.1-1c-1.3-.1-2.6-.3-3.9-.5zm63.8 2.2h4v-1h-4v1zm-94-12c1.1.7 2.3 1.4 3.5 2l.5-.9c-1.2-.6-2.3-1.3-3.5-2l-.5.9zm-6.6-4.4c1.1.8 2.2 1.6 3.3 2.3l.6-.8c-1.1-.7-2.2-1.5-3.2-2.3l-.7.8zm13.7 8.2c1.2.6 2.4 1.1 3.7 1.6l.4-.9c-1.2-.5-2.4-1.1-3.6-1.6l-.5.9zm15.1 5.5l3.9.9.2-1-3.9-.9-.2 1zm-35.1-18.7c1 .9 2 1.7 3.1 2.6l.6-.8c-1-.8-2.1-1.7-3.1-2.5l-.6.7zm27.4 16.3c1.2.4 2.5.9 3.8 1.3l.3-1c-1.3-.4-2.5-.8-3.8-1.2l-.3.9zm151.5 5.1h4v-1h-4v1zm-16 0h4v-1h-4v1zm24 0h4v-1h-4v1zm-16 0h4v-1h-4v1zm24 0h4v-1h-4v1zm-80 0h4v-1h-4v1zm88 0h4v-1h-4v1zm-72 0h4v-1h-4v1zm-8 0h4v-1h-4v1zm24 0h4v-1h-4v1zm-8 0h4v-1h-4v1zm16 0h4v-1h-4v1zm-191.1-64.1c.8 1.1 1.6 2.2 2.4 3.2l.8-.6c-.8-1.1-1.6-2.1-2.4-3.2l-.8.6zm-74.3-70.8c1.2.6 2.4 1.2 3.5 1.8l.5-.9-3.6-1.8-.4.9zm13.9 7.9c1.1.7 2.2 1.5 3.3 2.2l.6-.8c-1.1-.7-2.2-1.5-3.3-2.2l-.6.8zm24.8 19.8c1 .9 1.9 1.9 2.8 2.8l.7-.7-2.8-2.8-.7.7zm-18.3-15.3c1.1.8 2.1 1.6 3.2 2.4l.6-.8c-1.1-.8-2.1-1.6-3.2-2.4l-.6.8zm12.5 9.9l3 2.7.7-.7-3-2.7-.7.7zm-6.1-5.1c1 .8 2.1 1.7 3.1 2.5l.6-.8c-1-.9-2-1.7-3.1-2.6l-.6.9zM401 806.8c1.2.7 2.3 1.3 3.4 2l.5-.9c-1.1-.7-2.3-1.4-3.5-2l-.4.9zm-36.8-14.9c1.3.3 2.6.7 3.8 1.1l.3-1c-1.3-.4-2.6-.7-3.9-1.1l-.2 1zm22.5 7.8c1.2.5 2.4 1.1 3.6 1.6l.4-.9c-1.2-.6-2.4-1.1-3.7-1.6l-.3.9zm-30.3-9.6l3.9.9.2-1-3.9-.9-.2 1zm22.9 6.7c1.3.5 2.5.9 3.7 1.4l.4-.9c-1.2-.5-2.5-1-3.7-1.5l-.4 1zm-7.5-2.6c1.3.4 2.5.8 3.8 1.3l.3-.9c-1.3-.4-2.5-.9-3.8-1.3l-.3.9zm115.9 105.1c.9 1 1.7 2 2.6 3l.8-.7c-.9-1-1.7-2-2.6-3l-.8.7zm-10-12.6c.8 1.1 1.6 2.1 2.4 3.2l.8-.6c-.8-1.1-1.6-2.1-2.4-3.2l-.8.6zm4.9 6.4c.8 1.1 1.7 2.1 2.5 3.1l.8-.6c-.8-1-1.7-2.1-2.5-3.1l-.8.6zm-9.7-12.8c.8 1.1 1.6 2.2 2.4 3.2l.8-.6c-.8-1.1-1.6-2.1-2.4-3.2l-.8.6zm-124.3-91.8c1.3.2 2.6.5 3.9.7l.2-1c-1.3-.3-2.6-.5-3.9-.7l-.2 1zm149.9 122.6c1 .9 1.9 1.9 2.9 2.8l.7-.7c-1-.9-1.9-1.8-2.9-2.7l-.7.6zm-5.6-5.7c.9 1 1.8 2 2.7 2.9l.7-.7c-.9-1-1.8-1.9-2.7-2.9l-.7.7zm-29.4-38c.8 1.1 1.6 2.1 2.4 3.2l.8-.6c-.8-1.1-1.6-2.1-2.4-3.2l-.8.6zm-25.3-30.9c.9 1 1.8 1.9 2.7 2.9l.7-.7c-.9-1-1.8-2-2.7-2.9l-.7.7zm5.4 5.9c.9 1 1.8 2 2.6 3l.8-.6c-.9-1-1.7-2-2.6-3l-.8.6zm5.2 6.1c.9 1 1.7 2.1 2.5 3.1l.8-.6c-.8-1-1.7-2.1-2.5-3.1l-.8.6zm5 6.2c.8 1 1.6 2.1 2.5 3.2l.8-.6c-.8-1.1-1.6-2.1-2.5-3.2l-.8.6zm4.9 6.3c.8 1.1 1.6 2.1 2.4 3.2l.8-.6c-.8-1.1-1.6-2.1-2.4-3.2l-.8.6zm524.2-223.5l.9.4c.5-1.2 1-2.5 1.4-3.7l-.9-.4c-.5 1.2-1 2.5-1.4 3.7zM980 645l.9.4c.5-1.2 1-2.5 1.4-3.7l-.9-.4c-.5 1.2-.9 2.4-1.4 3.7zm-5.7 14.9l.9.4c.5-1.2 1-2.5 1.4-3.7l-.9-.4c-.5 1.3-1 2.5-1.4 3.7zm18.9-48.5zm59.4-98.9l.7.7c1-.9 1.9-1.8 2.9-2.7l-.7-.7c-1 .9-1.9 1.8-2.9 2.7zm-61 102.7l.9.4c.5-1.2 1-2.5 1.5-3.7l-.9-.4c-.4 1.2-1 2.4-1.5 3.7zm-1.4 3.7zm-1.5 3.7l.9.4c.5-1.2 1-2.5 1.5-3.7l-.9-.4c-.5 1.2-1 2.5-1.5 3.7zm-3 7.4l.9.4c.5-1.2 1-2.5 1.5-3.7l-.9-.4c-.5 1.3-1 2.5-1.5 3.7zM956 704.3l.9.4c.6-1.2 1.1-2.4 1.7-3.6l-.9-.4c-.6 1.2-1.1 2.4-1.7 3.6zm15.4-36.9l.9.4c.5-1.2 1-2.5 1.4-3.7l-.9-.4c-.4 1.2-.9 2.5-1.4 3.7zm-18.8 44.1l.9.4c.6-1.2 1.2-2.4 1.7-3.6l-.9-.4c-.6 1.3-1.1 2.5-1.7 3.6zm8.3-18.1c-.5 1.2-1.1 2.5-1.6 3.7l.9.4c.5-1.2 1.1-2.4 1.6-3.7l-.9-.4zm7.6-18.5l.9.4c.5-1.2 1-2.5 1.5-3.7l-.9-.4c-.6 1.2-1 2.4-1.5 3.7zm-3 7.4l.9.4c.5-1.2 1-2.5 1.5-3.7l-.9-.4c-.5 1.2-1 2.5-1.5 3.7zM949 718.7l.9.5 1.8-3.6-.9-.5-1.8 3.6zm13.4-29l.9.4c.5-1.2 1-2.5 1.5-3.7l-.8-.4c-.5 1.2-1 2.5-1.6 3.7zm65-146.1l.8.5c.7-1.1 1.5-2.2 2.2-3.3l-.8-.6c-.7 1.1-1.5 2.3-2.2 3.4zm4.5-6.6l.8.6c.8-1.1 1.6-2.2 2.3-3.2l-.8-.6c-.7 1-1.5 2.1-2.3 3.2zm-8.8 13.3l.9.5c.7-1.1 1.4-2.3 2.1-3.4l-.8-.5c-.8 1.2-1.5 2.3-2.2 3.4zm18.6-26l.8.6c.9-1 1.7-2 2.6-3l-.7-.7c-1 1-1.8 2-2.7 3.1zm5.3-6l.7.7c.9-1 1.8-1.9 2.7-2.9l-.7-.7c-.9.9-1.8 1.9-2.7 2.9zm-7.9 9.1c-.8 1-1.7 2.1-2.5 3.2l.8.6c.8-1.1 1.6-2.1 2.5-3.1l-.8-.7zm-18.1 26.4c-.7 1.1-1.4 2.3-2 3.5l.9.5c.7-1.2 1.3-2.3 2-3.5l-.9-.5zm-7.8 14l-1.8 3.6.9.5c.6-1.2 1.2-2.4 1.8-3.5l-.9-.6zm-13.8 28.9zm-1.6 3.6l.9.4c.5-1.2 1.1-2.4 1.6-3.7l-.9-.4c-.5 1.3-1.1 2.5-1.6 3.7zm3.2-7.3l.9.4c.5-1.2 1.1-2.4 1.6-3.6l-.9-.4c-.5 1.2-1 2.4-1.6 3.6zm6.8-14.5l.9.4 1.8-3.6-.9-.4-1.8 3.6zm-1.8 3.6c-.6 1.2-1.1 2.4-1.7 3.6l.9.4c.6-1.2 1.1-2.4 1.7-3.6l-.9-.4zm-11.3 25.6l.9.4c.5-1.2 1-2.5 1.5-3.7l-.9-.4c-.5 1.3-1 2.5-1.5 3.7zm20.4-43.5l.9.5c.6-1.2 1.3-2.3 1.9-3.5l-.9-.5c-.6 1.2-1.3 2.4-1.9 3.5zm-36.5 84.5c-.5 1.2-1 2.5-1.4 3.7l.9.4c.5-1.2 1-2.5 1.4-3.7l-.9-.4zM812.4 771.1h4v-1h-4v1zm-8 0h4v-1h-4v1zm-24 0h4v-1h-4v1zm8 0h4v-1h-4v1zm8 0h4v-1h-4v1zm24 0h4v-1h-4v1zm16 0h4v-1h-4v1zm-8 0h4v-1h-4v1zm16 0h4v-1h-4v1zm-72 0h4v-1h-4v1zm-48 0h4v-1h-4v1zm16 0h4v-1h-4v1zm-8 0h4v-1h-4v1zm16 0h4v-1h-4v1zm16 0h4v-1h-4v1zm-8 0h4v-1h-4v1zm96 0h4v-1h-4v1zm94.7-48.9c-.6 1.2-1.3 2.3-2 3.5l.9.5c.7-1.1 1.3-2.3 2-3.5l-.9-.5zm-32.8 39.3l.5.8c1.1-.7 2.2-1.5 3.3-2.3l-.6-.8c-1 .8-2.1 1.6-3.2 2.3zm-205.9 9.6h4v-1h-4v1zm212.3-14.3l.6.8c1-.9 2-1.7 3-2.7l-.7-.7c-.9.9-1.9 1.7-2.9 2.6zm22.4-27.7zm-4.3 6.7c-.7 1.1-1.5 2.2-2.3 3.3l.8.6c.8-1.1 1.5-2.2 2.3-3.3l-.8-.6zm2.2-3.3l.8.5c.7-1.1 1.4-2.3 2.1-3.4l-.9-.5c-.6 1.2-1.3 2.3-2 3.4zm-14.5 18.9l.7.7c.9-1 1.8-1.9 2.7-2.9l-.7-.7c-.9 1-1.8 1.9-2.7 2.9zm-58.1 19.7h4v-1h-4v1zm8 0h4v-1h-4v1zm-16 0h4v-1h-4v1zm31.9-1.5l.1 1c1.3-.2 2.7-.4 4-.7l-.2-1c-1.2.4-2.5.6-3.9.7zm7.8-1.6l.3 1c1.3-.4 2.6-.8 3.8-1.3l-.4-.9c-1.2.5-2.5.9-3.7 1.2zm7.3-2.7l.4.9 3.6-1.8-.5-.9c-1.1.6-2.3 1.2-3.5 1.8zm-22.1 4.8h-.8v1h.8c1.1 0 2.1 0 3.2-.1l-.1-1c-1 .1-2 .1-3.1.1zm48.9-27.8c-.8 1.1-1.6 2.1-2.5 3.1l.8.6c.8-1 1.7-2.1 2.5-3.1l-.8-.6zm370.5-443.4l.9.5c.6-1.2 1.3-2.3 1.9-3.5l-.9-.5c-.7 1.1-1.3 2.3-1.9 3.5zm-2 3.5c-.6 1.2-1.3 2.3-1.9 3.5l.9.5c.6-1.2 1.2-2.4 1.9-3.5l-.9-.5zm5.9-10.5l.9.5c.7-1.2 1.4-2.3 2-3.4l-.9-.5c-.7 1.1-1.3 2.2-2 3.4zm-11.4 21.2l.9.5 1.8-3.6-.9-.5-1.8 3.6zm-3.6 7.1l.9.4 1.8-3.6-.9-.4-1.8 3.6zm28.3-48.4l.8.6c.8-1.1 1.7-2.1 2.5-3.1l-.8-.6c-.8 1-1.7 2.1-2.5 3.1zm-11.3 16.6zm-45.9 88.9l.9.5c.6-1.2 1.3-2.3 1.9-3.5l-.9-.5c-.6 1.2-1.3 2.3-1.9 3.5zm52.4-99l.8.6c.8-1.1 1.5-2.2 2.3-3.2l-.8-.6c-.7 1-1.5 2.1-2.3 3.2zm-44.9 84.9l.9.5 1.8-3.6-.9-.5c-.6 1.3-1.2 2.4-1.8 3.6zm17.9-35.8l.9.4 1.8-3.6-.9-.4c-.7 1.2-1.2 2.4-1.8 3.6zm-14.2 28.7l.9.5 1.8-3.6-.9-.4c-.6 1.1-1.2 2.3-1.8 3.5zm-5.5 10.7c-.6 1.2-1.2 2.3-1.9 3.5l.9.5c.6-1.2 1.3-2.4 1.9-3.5l-.9-.5zm9.1-17.8l.9.4 1.8-3.6-.9-.4-1.8 3.6zm7-14.4l.9.4 1.8-3.6-.9-.4-1.8 3.6zm-3.5 7.2l.9.4 1.8-3.6-.9-.4-1.8 3.6zm29.7-56.8l.8.5c.7-1.1 1.4-2.3 2.2-3.4l-.8-.5c-.7 1.2-1.5 2.3-2.2 3.4zm89.4-37.8l.3 1c1.3-.3 2.6-.7 3.9-1.1l-.3-1c-1.3.5-2.6.8-3.9 1.1zm-7.7 1.7l.2 1c1.3-.2 2.6-.5 4-.7l-.2-1c-1.4.2-2.7.5-4 .7zm15.3-4l.3.9c1.2-.5 2.5-1 3.7-1.5l-.4-.9c-1.1.5-2.4 1-3.6 1.5zm17.5-9.3c-1.1.8-2.2 1.5-3.3 2.2l.5.8c1.1-.7 2.2-1.4 3.3-2.2l-.5-.8zm-10.2 6.1l.4.9c1.2-.6 2.4-1.2 3.6-1.9l-.5-.9c-1.2.7-2.3 1.3-3.5 1.9zm13.4-8.4l.6.8c1-.8 2.1-1.6 3.1-2.5l-.6-.8c-1 .9-2.1 1.7-3.1 2.5zm-103.3 32.4l.7.7c.9-1 1.8-1.9 2.8-2.8l-.7-.7c-.9.9-1.9 1.8-2.8 2.8zm63.3-16.3c-1.3.2-2.6.3-4 .4l.1 1c1.3-.1 2.7-.2 4-.4l-.1-1zm-47.4 4.1c-1.2.6-2.4 1.2-3.5 1.9l.5.9c1.1-.7 2.3-1.3 3.5-1.9l-.5-.9zm-10.1 6.7l.6.8c1-.9 2.1-1.7 3.1-2.4l-.6-.8c-1 .7-2 1.5-3.1 2.4zm13.8-8.2l.3.9c1.2-.4 2.5-.8 3.8-1.1l-.2-1c-1.4.3-2.6.7-3.9 1.2zm31.8-1.8v1c1.3 0 2.7-.1 4-.1v-1c-1.3 0-2.7.1-4 .1zm-8 0v1h4v-1h-.2c-1.3.1-2.5 0-3.8 0zm-16 0l.1 1c1.2-.1 2.5-.2 3.8-.2h.1v-1h-.1c-1.3 0-2.6 0-3.9.2zm8 .8c1.3 0 2.7.1 4 .1v-1c-1.3 0-2.7-.1-4-.1v1zm-163.6 205.3l.6.8c1.1-.7 2.2-1.5 3.3-2.3l-.6-.8c-1.2.8-2.2 1.6-3.3 2.3zm-51.6 19.8l.1 1c1.3-.2 2.7-.4 4-.6l-.2-1-3.9.6zm-7.9.9l.1 1c1.3-.1 2.7-.2 4-.4l-.1-1c-1.4.1-2.7.2-4 .4zm121.4-92.7l.9.5c.7-1.2 1.3-2.3 2-3.5l-.9-.5c-.7 1.1-1.4 2.3-2 3.5zm-137.4 93.8l.1 1c1.3-.2 2.6-.3 4-.4l-.1-1c-1.3.1-2.7.3-4 .4zm10.4-.8c-.8 0-1.6.1-2.4.1l.1 1c.8 0 1.6-.1 2.3-.1.6 0 1.1 0 1.6-.1l-.1-1c-.4.1-1 .1-1.5.1zm36.7-6.8l.3.9c1.3-.4 2.5-.9 3.8-1.4l-.4-.9c-1.2.5-2.5.9-3.7 1.4zm-7.6 2.3l.3 1c1.3-.4 2.6-.7 3.8-1.1l-.3-1c-1.3.4-2.6.8-3.8 1.1zm-7.8 1.9l.2 1 3.9-.9-.2-1-3.9.9zm-90.4 27.3l.6.8c1.1-.8 2.1-1.6 3.2-2.4l-.6-.8c-1 .8-2.1 1.6-3.2 2.4zm13.3-8.9l.5.9c1.1-.7 2.3-1.3 3.5-1.9l-.5-.9c-1.1.6-2.3 1.2-3.5 1.9zm-6.8 4.2l.6.8c1.1-.7 2.2-1.5 3.3-2.2l-.5-.8c-1.1.8-2.3 1.5-3.4 2.2zm106.7-29.7l.4.9c1.2-.5 2.5-1.1 3.7-1.6l-.4-.9c-1.3.6-2.5 1.1-3.7 1.6zm-66.3 12.5l-3.9.9.2 1 3.9-.9-.2-1zm-11.6 3.2l.3 1c1.3-.4 2.5-.8 3.8-1.2l-.3-1c-1.3.4-2.6.8-3.8 1.2zm-14.9 6l.4.9c1.2-.6 2.4-1.1 3.6-1.7l-.4-.9c-1.2.6-2.4 1.1-3.6 1.7zm7.3-3.3l.4.9c1.2-.5 2.5-1 3.7-1.4l-.3-.9c-1.3.4-2.5.9-3.8 1.4zm27.1-7.3c-1.3.2-2.6.4-4 .7l.2 1c1.3-.2 2.6-.5 3.9-.7l-.1-1zm124-67.5l.8.6c.8-1.1 1.5-2.2 2.3-3.3l-.8-.6c-.7 1.2-1.5 2.2-2.3 3.3zm-4.7 6.4l.8.6c.8-1.1 1.6-2.1 2.4-3.2l-.8-.6c-.8 1.1-1.6 2.2-2.4 3.2zm7-9.6zm6.7-10l.8.5c.7-1.1 1.4-2.3 2.1-3.4l-.8-.5c-.7 1.1-1.4 2.2-2.1 3.4zm4.2-6.8l.9.5c.7-1.1 1.4-2.3 2.1-3.4l-.9-.5c-.7 1.1-1.4 2.2-2.1 3.4zm-22.9 32.7l.8.6c.8-1 1.7-2.1 2.5-3.1l-.8-.6c-.8 1-1.6 2.1-2.5 3.1zm14.3-19.2l.8.6c.7-1.1 1.5-2.2 2.2-3.3l-.8-.5c-.7.9-1.5 2.1-2.2 3.2zm-189.6 102.4l.7.8c1-.9 2-1.7 3-2.6l-.6-.8c-1.1.8-2.1 1.7-3.1 2.6zm146.8-55.4l.6.8c1.1-.8 2.1-1.6 3.2-2.5l-.6-.8c-1.1.9-2.1 1.7-3.2 2.5zm-20.2 12.6l.4.9c1.2-.6 2.4-1.2 3.6-1.9l-.5-.9c-1.1.7-2.3 1.3-3.5 1.9zm7-3.8l.5.9c1.2-.7 2.3-1.4 3.4-2.1l-.5-.8c-1.1.7-2.2 1.3-3.4 2zm36.5-30.5l.7.7c.9-1 1.8-2 2.6-3l-.8-.7c-.7 1-1.6 2-2.5 3zm-5.4 5.8l.7.7c.9-1 1.9-1.9 2.8-2.9l-.7-.7c-1 1-1.9 2-2.8 2.9zm-5.7 5.6l.7.7c1-.9 1.9-1.8 2.9-2.8l-.7-.7c-1 1-1.9 1.9-2.9 2.8zm-6 5.3l.6.8c1-.9 2-1.7 3-2.6l-.7-.7c-.8.8-1.8 1.7-2.9 2.5zM716.4 771.1h4v-1h-4v1zM208.9 419c.8 1.1 1.6 2.1 2.5 3.2l.8-.6c-.8-1-1.7-2.1-2.5-3.1l-.8.5zm-1.6-3.8zm-3.1-2.6c.8 1.1 1.6 2.2 2.4 3.2l.8-.6c-.8-1.1-1.6-2.1-2.3-3.2l-.9.6zm26.9 29.4l-.7.7 3 2.7.7-.7-3-2.7zm-11.9-10.7l2.7 3 .7-.7c-.9-1-1.8-1.9-2.7-2.9l-.7.6zm-5.3-6.1c.9 1 1.7 2.1 2.6 3.1l.8-.7c-.9-1-1.7-2-2.6-3l-.8.6zm10.8 12c.9 1 1.9 1.9 2.8 2.8l.7-.7c-1-.9-1.9-1.9-2.8-2.8l-.7.7zm-29.5-37.9c.7 1.1 1.4 2.2 2.2 3.4l.8-.6c-.7-1.1-1.5-2.2-2.2-3.3l-.8.5zm4.4 6.7c.7 1.1 1.5 2.2 2.3 3.3l.8-.6c-.8-1.1-1.5-2.2-2.3-3.3l-.8.6zm-28-48.6l1.8 3.6.9-.5-1.8-3.6-.9.5zm-3.6-7.1l1.8 3.6.9-.5-1.8-3.6-.9.5zm22.9 42.2c.7 1.1 1.4 2.3 2.1 3.4l.8-.5c-.7-1.1-1.4-2.3-2.1-3.4l-.8.5zm-15.6-28c.6 1.2 1.2 2.4 1.9 3.5l.9-.5c-.6-1.2-1.2-2.4-1.9-3.5l-.9.5zm11.5 21.1c.7 1.2 1.3 2.3 2 3.5l.9-.5c-.7-1.1-1.4-2.3-2-3.5l-.9.5zm-7.8-14c.6 1.2 1.3 2.3 1.9 3.5l.9-.5c-.6-1.2-1.3-2.3-1.9-3.5l-.9.5zm3.9 7c.7 1.2 1.3 2.3 2 3.5l.9-.5c-.7-1.2-1.3-2.3-2-3.5l-.9.5zm146.5 100.2zm-12-.3c1.3.1 2.7.2 4 .3l.1-1c-1.3-.1-2.7-.2-4-.3l-.1 1zm-16-1.3c1.3.2 2.6.3 4 .5l.1-1c-1.3-.1-2.6-.3-3.9-.5l-.2 1zm-15.7-3.2c1.3.3 2.6.7 3.9 1l.2-1c-1.3-.3-2.6-.6-3.9-1l-.2 1zm-49.3-25.9c1 .9 2.1 1.7 3.1 2.5l.6-.8c-1-.8-2.1-1.7-3.1-2.5l-.6.8zm73 29.9c1.3.1 2.7.2 4 .2v-1c-1.3-.1-2.7-.1-4-.2v1zm23.8 2.5c1.3.3 2.6.5 3.9.8l.2-1c-1.3-.3-2.6-.6-3.9-.8l-.2 1zm-7.9-1.3l3.9.6.2-1c-1.3-.2-2.6-.4-4-.6l-.1 1zM164.5 343.1l1.8 3.6.9-.4-1.8-3.6-.9.4zm129 132.8c1.3.3 2.6.5 3.9.7l.2-1c-1.3-.2-2.6-.5-3.9-.7l-.2 1zM242.7 453c1.1.8 2.2 1.6 3.2 2.3l.6-.8c-1.1-.8-2.2-1.5-3.2-2.3l-.6.8zm35.3 18.7c1.3.4 2.5.8 3.8 1.2l.3-1c-1.3-.4-2.5-.8-3.8-1.2l-.3 1zm-28.7-14.1c1.1.7 2.2 1.5 3.4 2.2l.5-.9c-1.1-.7-2.3-1.4-3.4-2.1l-.5.8zm-9.1-7.8zm30.3 19.1c1.2.5 2.5 1 3.7 1.5l.4-.9c-1.2-.5-2.5-1-3.7-1.5l-.4.9zm-14.4-7.1c1.2.7 2.3 1.3 3.5 1.9l.5-.9c-1.2-.6-2.3-1.3-3.5-1.9l-.5.9zm7.1 3.8c1.2.6 2.4 1.2 3.6 1.7l.4-.9c-1.2-.5-2.4-1.1-3.6-1.7l-.4.9zM154.8 321.1l-.9.4 1.8 3.6.9-.4c-.7-1.2-1.3-2.4-1.8-3.6zM54.4 250c1.3.2 2.7.4 4 .5l.1-1c-1.3-.1-2.6-.3-3.9-.5l-.2 1zm109.2 89zM31.4 243c1.2.6 2.4 1.1 3.7 1.6l.4-.9c-1.2-.5-2.4-1-3.6-1.6l-.5.9zm7.4 3.1c1.3.5 2.5.9 3.8 1.3l.3-1c-1.3-.4-2.5-.8-3.8-1.2l-.3.9zm23.6 3.8l-.1 1c1.3.1 2.7.2 4 .2v-1c-1.2 0-2.6-.1-3.9-.2zm26.4.1c-.8 0-1.6 0-2.5.1v1c.8 0 1.6 0 2.5-.1h1.5v-1h-1.5zm-15.2.3h-3.3v1h4v-1h-.7zm8.8-.2c-1.3 0-2.7.1-4 .1v1c1.3 0 2.7-.1 4-.1v-1zm-82-32.2c.9 1 1.7 2.1 2.6 3l.7-.7c-.9-1-1.7-2-2.6-3l-.7.7zm1438.9 7.5zm0 0c-1 1-1.9 1.9-2.9 2.7l.7.7c1-.9 1.9-1.8 2.9-2.7v-.1l-.7-.6zM94.4 250.3l-.1 1c1.3.2 2.6.4 3.8.8l.3-1c-1.3-.4-2.6-.6-4-.8zm-70.1-11.1c1.2.7 2.3 1.4 3.5 2l.5-.9c-1.1-.6-2.3-1.3-3.4-2l-.6.9zM5.8 223.9c.9 1 1.9 1.9 2.8 2.9l.7-.7c-.9-.9-1.9-1.8-2.8-2.8l-.7.6zm11.9 10.7c1.1.8 2.2 1.6 3.3 2.3l.6-.8c-1.1-.7-2.1-1.5-3.2-2.3l-.7.8zm-6.2-5.1c1 .9 2 1.8 3 2.6l.6-.8c-1-.8-2-1.7-3-2.6l-.6.8zm35.2 18l-.2 1 3.9.9.2-1-3.9-.9zm99.9 59.7l1.8 3.6.9-.5-1.8-3.6-.9.5zm3.7 7.2l1.8 3.6.9-.4-1.8-3.6-.9.4zm-7.4-14.2c.6 1.2 1.3 2.3 1.9 3.5l.9-.5c-.6-1.2-1.3-2.4-1.9-3.5l-.9.5zm-41.1-46.9c1.2.5 2.4 1 3.6 1.6l.5-.9c-1.2-.6-2.4-1.2-3.7-1.6l-.4.9zm59.1 82.6l1.8 3.6.9-.4-1.8-3.6-.9.4zm180 146.3c1.3.3 2.6.7 3.8 1.1l.3-1c-1.3-.4-2.6-.7-3.9-1.1l-.2 1zM157.4 328.7l1.8 3.6.9-.4-1.8-3.6-.9.4zM139 293.2c.7 1.1 1.3 2.3 2 3.5l.9-.5c-.7-1.2-1.3-2.3-2-3.5l-.9.5zm-26.4-34.9zm2.5 3.3c1 .9 1.9 1.8 2.9 2.7l.7-.7c-1-1-2-1.9-2.9-2.7l-.7.7zm-6.3-4.8c1.1.7 2.2 1.4 3.2 2.3l.6-.8c-1.1-.8-2.2-1.6-3.3-2.3l-.5.8zm17.1 16.4c.8 1 1.6 2.1 2.4 3.2l.8-.6c-.8-1.1-1.6-2.2-2.4-3.2l-.8.6zm4.6 6.5c.7 1.1 1.5 2.2 2.2 3.3l.8-.5c-.7-1.1-1.5-2.3-2.2-3.3l-.8.5zm4.4 6.6c.7 1.1 1.4 2.3 2.1 3.4l.9-.5c-.7-1.2-1.4-2.3-2.1-3.4l-.9.5zm-14.2-19.2c.9 1 1.7 2 2.6 3l.8-.6c-.9-1-1.8-2.1-2.6-3l-.8.6zm467.7 504h4v-1h-4v1zm-54.5-8.3c1.1.7 2.3 1.4 3.5 2l.5-.9c-1.2-.6-2.3-1.3-3.4-2l-.6.9zm7.1 3.8c1.2.5 2.5 1 3.7 1.5l.3-.9c-1.2-.4-2.5-.9-3.7-1.5l-.3.9zm-13-9.2l-.6.8c1 .9 2.1 1.7 3.2 2.4l.6-.8c-1.1-.8-2.2-1.6-3.2-2.4zm-6.6-4.7c1 1 1.9 1.9 2.9 2.8l.7-.7c-1-.9-1.9-1.8-2.9-2.7l-.7.6zm27.1 16.6l3.9.9.2-1c-1.3-.2-2.6-.5-3.8-.9l-.3 1zm15.9 1.8h4v-1h-4v1zM516 746.8c.9 1 1.7 2 2.6 3l.7-.7c-.9-1-1.8-2-2.6-3l-.7.7zm56.4 24.3h4v-1h-4v1zm-16-.4c1.3.1 2.6.2 4 .3v-1c-1.3 0-2.6-.1-3.9-.3l-.1 1zm-65-65.1c.6 1.2 1.1 2.4 1.7 3.6l.9-.4c-.6-1.2-1.1-2.4-1.7-3.6l-.9.4zm3.5 7.2l1.8 3.6.9-.5-1.8-3.6-.9.5zm-10-21.9c.5 1.2 1 2.5 1.6 3.7l.9-.4c-.5-1.2-1-2.4-1.6-3.7l-.9.4zm13.6 29c.6 1.2 1.3 2.4 1.9 3.5l.9-.5c-.6-1.2-1.3-2.3-1.9-3.5l-.9.5zm8.1 13.9c.7 1.1 1.5 2.3 2.2 3.4l.8-.6c-.7-1.1-1.5-2.2-2.2-3.3l-.8.5zm-4.2-6.9c.7 1.2 1.4 2.3 2 3.4l.9-.5c-.7-1.1-1.4-2.3-2-3.4l-.9.5zm8.7 13.5c.8 1.1 1.6 2.2 2.4 3.2l.8-.6c-.8-1-1.6-2.1-2.4-3.2l-.8.6zm-23-42.1c.5 1.2 1.1 2.5 1.6 3.7l.9-.4c-.5-1.2-1.1-2.4-1.6-3.7l-.9.4zm172.3 72.8h4v-1h-4v1zm-8 0h4v-1h-4v1zm-72 0h4v-1h-4v1zm112 0h4v-1h-4v1zm-16 0h4v-1h-4v1zm-32 0h4v-1h-4v1zM348.5 484.5c1.3.4 2.5.9 3.7 1.3l.4-.9c-1.2-.5-2.5-.9-3.8-1.3l-.3.9zm319.9 286.6h4v-1h-4v1zm-72 0h4v-1h-4v1zm104 0h4v-1h-4v1zm-64 0h4v-1h-4v1zm-32 0h4v-1h-4v1zm24 0h4v-1h-4v1zm-16 0h4v-1h-4v1zm8 0h4v-1h-4v1zm64 0h4v-1h-4v1zM411 531.8c.8 1.1 1.6 2.1 2.4 3.2l.8-.6c-.8-1.1-1.6-2.1-2.4-3.2l-.8.6zm4.8 6.5c.8 1.1 1.5 2.2 2.3 3.3l.8-.6c-.8-1.1-1.5-2.2-2.3-3.3l-.8.6zm-9.7-12.7c.8 1 1.7 2 2.5 3.1l.8-.6c-.8-1-1.7-2.1-2.5-3.1l-.8.6zm14.1 19.3c.7 1.1 1.4 2.2 2.2 3.4l.8-.5c-.7-1.1-1.4-2.3-2.2-3.4l-.8.5zm4.3 6.7c.7 1.1 1.4 2.3 2.1 3.4l.9-.5c-.7-1.2-1.4-2.3-2.1-3.4l-.9.5zm-23.7-32l2.7 3 .8-.7-2.7-3-.8.7zm32.5 45.4l-.9.5c.6 1.2 1.3 2.3 1.9 3.5l.9-.5c-.7-1.1-1.3-2.3-1.9-3.5zm2.8 7.6l1.8 3.6.9-.4-1.8-3.6-.9.4zm-7.6-14.1c.7 1.2 1.3 2.3 2 3.5l.9-.5c-.6-1.2-1.3-2.3-2-3.5l-.9.5zm-65.3-67.9c1.2.6 2.4 1.2 3.5 1.8l.5-.9c-1.2-.6-2.4-1.3-3.6-1.9l-.4 1zm32.1 23.3l2.8 2.8.7-.7c-.9-1-1.9-1.9-2.8-2.8l-.7.7zM356 487.3c1.2.5 2.4 1 3.6 1.6l.4-.9c-1.2-.6-2.4-1.1-3.7-1.6l-.3.9zm14.2 7.1c1.1.7 2.3 1.4 3.4 2.1l.5-.8c-1.1-.7-2.3-1.4-3.4-2.1l-.5.8zm6.7 4.3c1.1.7 2.2 1.5 3.3 2.3l.6-.8c-1.1-.8-2.2-1.6-3.3-2.3l-.6.8zm13.2 9l-.7.8 3 2.7.7-.7c-1-1-2-1.9-3-2.8zm-6.8-4.3c1 .8 2.1 1.6 3.1 2.5l.6-.8c-1-.8-2.1-1.7-3.1-2.5l-.6.8zm78.3 127.9c.5 1.2 1 2.5 1.4 3.7l.9-.4c-.5-1.2-1-2.5-1.4-3.7l-.9.4zm5.7 14.9c.5 1.2 1 2.5 1.4 3.7l.9-.4c-.5-1.2-1-2.5-1.4-3.7l-.9.4zm2.9 7.5c.5 1.3 1 2.5 1.4 3.7l.9-.4c-.5-1.2-1-2.5-1.4-3.7l-.9.4zm-5.7-15c.5 1.2 1 2.5 1.4 3.7l.9-.4c-.5-1.2-1-2.5-1.4-3.7l-.9.4zm14.4 37.4c.5 1.2 1 2.5 1.5 3.7l.9-.4c-.5-1.2-1-2.5-1.5-3.7l-.9.4zm3 7.4c.5 1.2 1 2.5 1.5 3.7l.9-.4c-.5-1.2-1-2.5-1.5-3.7l-.9.4zm-5.9-14.9c.5 1.2 1 2.5 1.5 3.7l.9-.4c-.5-1.2-1-2.5-1.5-3.7l-.9.4zm-2.9-7.5c.5 1.3 1 2.5 1.4 3.7l.9-.4c-.5-1.2-1-2.5-1.4-3.7l-.9.4zm-26.7-66.8c.5 1.2 1.1 2.4 1.6 3.7l.9-.4c-.5-1.2-1.1-2.4-1.6-3.7l-.9.4zm12.3 29.5c.5 1.2 1 2.5 1.5 3.7l.9-.4c-.5-1.2-1-2.5-1.5-3.7l-.9.4zM443.1 587c.6 1.2 1.1 2.4 1.7 3.6l.9-.4c-.6-1.2-1.1-2.4-1.7-3.6l-.9.4zm-3.4-7.3c.6 1.2 1.2 2.4 1.7 3.6l.9-.4c-.6-1.2-1.1-2.4-1.7-3.6l-.9.4zm6 10.5zm10 26.2c.5 1.2 1 2.5 1.5 3.7l.9-.4c-.5-1.2-1-2.5-1.5-3.7l-.9.4zm-5.2-15.2l-.9.4c.5 1.2 1 2.5 1.6 3.7l.9-.4c-.6-1.3-1.1-2.5-1.6-3.7zm2.2 7.8c.5 1.2 1 2.5 1.5 3.7l.9-.4c-.5-1.2-1-2.5-1.5-3.7l-.9.4z" opacity=".6" fill="#fff"/><circle class="st1" cx="133" cy="497" r="18"/><circle class="st1" cx="570.7" cy="465.5" r="18"/><circle class="st3" cx="262.7" cy="251.5" r="18"/><circle class="st3" cx="224.7" cy="841.5" r="8"/><circle class="st3" cx="148.7" cy="193.5" r="8"/><circle class="st3" cx="1170.5" cy="329.3" r="14"/><circle class="st3" cx="1385" cy="805.8" r="14"/><circle class="st1" cx="1121.7" cy="168.5" r="15"/><circle class="st1" cx="75" cy="582" r="6"/><circle class="st1" cx="627.5" cy="516.3" r="6"/><circle class="st1" cx="1053" cy="675" r="6"/><circle class="st1" cx="1360" cy="632" r="6"/></svg>