<svg xmlns="http://www.w3.org/2000/svg" viewBox="0 0 51.7 52.7"><linearGradient id="a" gradientUnits="userSpaceOnUse" x1="6.799" y1="15.454" x2="50.189" y2="15.454"><stop offset="0" stop-color="#15eded"/><stop offset="1" stop-color="#029cf5"/></linearGradient><path d="M42.8 25.1L50 4.5c.1-.3.2-.6.2-.8 0-.4-.1-.7-.3-.9-.1-.1-.2-.2-.4-.2-.1 0-.1 0-.2-.1h-.2c-.2 0-.4-.1-.5-.1H9.8c-1.7 0-3 1.4-3 3v21c.4 1.2 1.5 2.1 2.9 2.1H38c1.7.1 4.3-1.7 4.8-3.4z" fill="url(#a)"/><path d="M16.5 42.1c-2.9 0-5.3 2.4-5.3 5.3s2.4 5.3 5.3 5.3 5.3-2.4 5.3-5.3-2.4-5.3-5.3-5.3zm0 7c-.9 0-1.7-.8-1.7-1.7 0-.9.8-1.7 1.7-1.7.9 0 1.7.8 1.7 1.7-.1.9-.8 1.7-1.7 1.7zm21.2-7c-2.9 0-5.3 2.4-5.3 5.3s2.4 5.3 5.3 5.3 5.3-2.4 5.3-5.3-2.3-5.3-5.3-5.3zm0 7c-.9 0-1.7-.8-1.7-1.7 0-.9.7-1.7 1.7-1.7.9 0 1.7.7 1.7 1.7 0 .9-.8 1.7-1.7 1.7zM50.3 1.3c-.7-.6-1.6-1-2.5-1.2h-.2c-.4-.1-.7-.1-1-.1H1.8C.8 0 0 .8 0 1.8s.8 1.8 1.8 1.8h4c-.3.9-.5 1.8-.5 2.8v28.1c0 3.5 2.9 6.4 6.4 6.4h33c1 0 1.8-.8 1.8-1.8s-.8-1.8-1.8-1.8H11.6c-1.5 0-2.7-1.2-2.7-2.7v-4.2c.8.4 1.7.6 2.6.6H37c3.4-.1 6.6-2.3 7.8-5.5l4.5-12.8 2-5.8c.2-.6.3-1.3.3-2 .1-1.4-.4-2.7-1.3-3.6zm-2.4 4.2l-6.5 18.6c-.5 1.5-2.8 3.2-4.4 3.1H11.5c-1.2 0-2.2-.8-2.6-1.9V6.4c0-1.5 1.2-2.7 2.7-2.7h35c.2 0 .3 0 .5.1h.3c.2.1.3.1.4.2.2.2.3.4.3.8 0 .2 0 .4-.2.7z" fill="#233148"/></svg>