<svg xmlns="http://www.w3.org/2000/svg" viewBox="0 0 37.3 61.85"><linearGradient id="a" gradientUnits="userSpaceOnUse" x1="1.994" y1="28.786" x2="35.309" y2="28.786"><stop offset="0" stop-color="#15eded"/><stop offset="1" stop-color="#029cf5"/></linearGradient><path d="M30.32 49.62H6.98C4.24 49.62 2 47.39 2 44.64v-31.7c0-2.75 2.24-4.98 4.98-4.99h23.35c2.74 0 4.98 2.24 4.99 4.98v31.7c-.02 2.76-2.25 4.99-5 4.99z" fill="url(#a)"/><path d="M30.32 0H6.98A7 7 0 000 6.98v47.89a7 7 0 006.98 6.98h23.34a7 7 0 006.98-6.98V6.98A6.993 6.993 0 0030.32 0zM6.98 3.99h23.34c1.51 0 2.77 1.17 2.95 2.64-.9-.42-1.89-.67-2.95-.67H6.98c-1.06 0-2.05.25-2.95.67.18-1.47 1.44-2.64 2.95-2.64zm26.33 50.88c0 1.63-1.36 2.99-2.99 2.99H6.98c-1.63 0-2.99-1.36-2.99-2.99v-3.94c.91.43 1.92.68 2.99.68h23.34c1.07 0 2.09-.25 2.99-.68v3.94zm0-10.23c0 1.63-1.36 2.99-2.99 2.99H6.98c-1.63 0-2.99-1.36-2.99-2.99v-31.7c0-1.63 1.36-2.99 2.99-2.99h23.34c1.63 0 2.99 1.36 2.99 2.99v31.7zm-10.79 7.99h-7.74c-.55 0-1 .45-1 1v2c0 .55.45 1 1 1h7.74c.55 0 1-.45 1-1v-2c0-.55-.45-1-1-1z" fill="#233148"/></svg>