<svg xmlns="http://www.w3.org/2000/svg" viewBox="0 0 55.82 52.02"><linearGradient id="a" gradientUnits="userSpaceOnUse" x1="3.184" y1="18.626" x2="53.978" y2="18.626"><stop offset="0" stop-color="#15eded"/><stop offset="1" stop-color="#029cf5"/></linearGradient><path d="M49.36 35.4H7.8c-1.84-.01-3.5-1.1-4.23-2.8-.25-.58-.38-1.19-.38-1.82V6.46c0-2.54 2.07-4.61 4.61-4.61h41.56c2.54.01 4.61 2.08 4.62 4.62v24.32c-.01 2.54-2.08 4.61-4.62 4.61z" fill="url(#a)"/><path d="M49.36 0H7.8C4.23.01 1.34 2.9 1.34 6.46v24.32c0 2.67 1.62 4.95 3.92 5.94v10.91c.01 1.06.2 2.05.78 2.92.54.86 1.62 1.46 2.66 1.46h.08c1.17-.02 2.16-.53 3.07-1.26l12.79-10.47c1.06-.87 2.65-2.01 4.2-3.04h20.52c3.57-.01 6.46-2.9 6.46-6.47V6.46c0-3.56-2.89-6.45-6.46-6.46zM22.3 37.44L9.51 47.9c-.2.16-.37.27-.5.34-.03-.14-.06-.34-.05-.6V37.25h13.58c-.08.06-.17.13-.24.19zm29.83-6.66c0 1.51-1.26 2.77-2.77 2.77H7.8c-1.13 0-2.11-.7-2.54-1.69-.14-.33-.23-.7-.23-1.09V6.46c0-1.51 1.26-2.77 2.77-2.77h41.56c1.51 0 2.77 1.26 2.77 2.77v24.32z" fill="#233148"/></svg>