<svg xmlns="http://www.w3.org/2000/svg" viewBox="0 0 50.26 51.38"><linearGradient id="a" gradientUnits="userSpaceOnUse" x1="6.799" y1="14.12" x2="50.189" y2="14.12"><stop offset="0" stop-color="#15eded"/><stop offset="1" stop-color="#029cf5"/></linearGradient><path d="M42.78 23.75l7.25-20.6c.12-.33.16-.61.16-.83-.01-.45-.13-.66-.33-.86a1.244 1.244 0 00-.57-.29c-.05-.01-.1-.03-.15-.04-.17-.04-.35-.06-.54-.06H9.83C8.17 1.07 6.8 2.44 6.8 4.1v20.98c.41 1.2 1.54 2.09 2.87 2.09h28.29c1.77.09 4.32-1.72 4.82-3.42z" fill="url(#a)"/><path d="M16.47 40.74a5.32 5.32 0 00-5.32 5.33c0 2.94 2.38 5.32 5.32 5.32 2.94 0 5.32-2.38 5.32-5.32a5.32 5.32 0 00-5.32-5.33zm0 6.99c-.92 0-1.67-.75-1.67-1.67 0-.92.75-1.67 1.67-1.67.92 0 1.67.75 1.67 1.67 0 .92-.75 1.67-1.67 1.67zm21.25-6.99c-2.94 0-5.32 2.38-5.32 5.32 0 2.94 2.38 5.32 5.32 5.32 2.94 0 5.32-2.38 5.32-5.32 0-2.94-2.38-5.32-5.32-5.32zm0 6.99c-.92 0-1.67-.75-1.67-1.67 0-.92.75-1.67 1.67-1.67.92 0 1.67.75 1.67 1.67.01.92-.74 1.67-1.67 1.67zM50.26 0c-.7-.64-1.58-1.04-2.53-1.22l-.21-.03c-.29-.04-.59-.07-.9-.07H32.77c-.11-.01-.23-.01-.34-.01H1.83C.82-1.33 0-.51 0 .49s.82 1.82 1.83 1.82h3.91s-.01.01-.01.02h.15a6.3 6.3 0 00-.63 2.74v28.14a6.408 6.408 0 006.39 6.39H44.8c1 0 1.83-.82 1.83-1.82 0-1.01-.82-1.83-1.83-1.83H11.64c-1.5 0-2.74-1.25-2.74-2.74V29c.79.35 1.66.55 2.59.55h25.55c3.42-.08 6.59-2.32 7.8-5.52l4.52-12.85 2.03-5.77c.22-.65.34-1.3.34-1.95.02-1.31-.51-2.59-1.47-3.46zm-2.32 4.21L41.4 22.82c-.45 1.53-2.76 3.17-4.36 3.09H11.49c-1.2 0-2.22-.81-2.59-1.89V5.07c0-1.49 1.24-2.73 2.73-2.74h35.01c.17 0 .33.02.49.05l.14.03c.05.01.1.03.16.05.16.06.28.14.36.22.18.18.29.37.3.78 0 .2-.04.45-.15.75z" fill="#233148"/></svg>