<svg xmlns="http://www.w3.org/2000/svg" viewBox="0 0 49.84 58.91"><linearGradient id="a" gradientUnits="userSpaceOnUse" x1="3.582" y1="9.143" x2="39.691" y2="9.143"><stop offset="0" stop-color="#15eded"/><stop offset="1" stop-color="#029cf5"/></linearGradient><path d="M35.06 16.43H8.21c-2.55-.01-4.63-2.08-4.63-4.63V6.48a4.64 4.64 0 014.63-4.63h26.85c2.55.01 4.62 2.08 4.63 4.63v5.32a4.64 4.64 0 01-4.63 4.63z" fill="url(#a)"/><path d="M43.76 6.17h-2.24A6.481 6.481 0 0035.06 0H8.21C4.63.01 1.74 2.9 1.73 6.48v5.32c.01 3.58 2.9 6.47 6.48 6.48h26.85c3.58-.01 6.47-2.9 6.48-6.48V9.88h2.22c1.23 0 2.37 1.1 2.37 2.55.09 1.47-1.54 3.91-3.13 4.49l-17.85 7.52c-3.14 1.42-5.31 4.69-5.4 8.13v2.04c-2.77.74-4.82 3.25-4.82 6.26v11.57c.01 3.58 2.9 6.47 6.48 6.48h.46c3.58-.01 6.47-2.9 6.48-6.48V40.85c0-3.03-2.09-5.56-4.9-6.28v-2.02c-.09-1.64 1.58-4.16 3.13-4.72l17.85-7.52c3.1-1.4 5.31-4.54 5.4-7.9 0-3.38-2.66-6.22-6.07-6.24zm-5.92 5.63c0 1.52-1.26 2.77-2.78 2.78H8.21c-1.52 0-2.77-1.26-2.78-2.78V6.48A2.8 2.8 0 018.21 3.7h26.85c1.51 0 2.77 1.26 2.78 2.78v5.32zm-13.2 29.05v11.57c0 1.51-1.26 2.78-2.78 2.78h-.46a2.8 2.8 0 01-2.78-2.78V40.85a2.8 2.8 0 012.78-2.78h.46c1.52.01 2.78 1.27 2.78 2.78z" fill="#233148"/></svg>