<?xml version="1.0" encoding="utf-8"?>
<!-- Generator: Adobe Illustrator 24.1.2, SVG Export Plug-In . SVG Version: 6.00 Build 0)  -->
<svg version="1.1" id="Layer_1" xmlns="http://www.w3.org/2000/svg" xmlns:xlink="http://www.w3.org/1999/xlink" x="0px" y="0px"
	 viewBox="0 0 1440 765" style="enable-background:new 0 0 1440 765;" xml:space="preserve">
<style type="text/css">
	.st0{fill:url(#SVGID_1_);}
	.st1{opacity:0.1;fill:#FFFFFF;}
	.st2{opacity:0.6;fill:#FFFFFF;}
	.st3{opacity:0.1;fill:#6A6D89;}
</style>
<g>
	<linearGradient id="SVGID_1_" gradientUnits="userSpaceOnUse" x1="117.0688" y1="-136.1045" x2="1319.7599" y2="898.3766">
		<stop  offset="0" style="stop-color:#15EDED"/>
		<stop  offset="1" style="stop-color:#029CF5"/>
	</linearGradient>
	<rect class="st0" width="1440" height="765"/>
	<path class="st1" d="M1359.1,141.7c-72.9-0.4-79.4,148.6-225.3,150.2C969,293.7,991.1,367.4,884.5,367h-321
		c-106.7,0.4-84.5-203.7-249.3-205.5c-145.9-1.6-152.4,71.5-225.3,71.9c-26.6,0.1-58.3,0.9-88.8-8.7V765h1440V180
		C1412,164.7,1383.4,141.8,1359.1,141.7z"/>
	<path class="st2" d="M982.9,500.2l0.9,0.4c0.5-1.2,1-2.5,1.4-3.7l-0.9-0.4C983.8,497.7,983.3,498.9,982.9,500.2z M980,507.7
		l0.9,0.4c0.5-1.2,1-2.5,1.4-3.7l-0.9-0.4C980.9,505.2,980.5,506.4,980,507.7z M974.3,522.6l0.9,0.4c0.5-1.2,1-2.5,1.4-3.7l-0.9-0.4
		C975.2,520.2,974.7,521.4,974.3,522.6z M993.2,474.1L993.2,474.1L993.2,474.1L993.2,474.1z M1052.6,375l0.7,0.7
		c1-0.9,1.9-1.8,2.9-2.7l-0.7-0.7C1054.5,373.2,1053.6,374.1,1052.6,375z M991.6,477.8l0.9,0.4c0.5-1.2,1-2.5,1.5-3.7l-0.9-0.4
		C992.7,475.3,992.1,476.6,991.6,477.8z M990.2,481.5L990.2,481.5L990.2,481.5L990.2,481.5z M988.7,485.2l0.9,0.4
		c0.5-1.2,1-2.5,1.5-3.7l-0.9-0.4C989.7,482.8,989.2,484,988.7,485.2z M985.7,492.7l0.9,0.4c0.5-1.2,1-2.5,1.5-3.7l-0.9-0.4
		C986.7,490.2,986.2,491.5,985.7,492.7z M956,567.1l0.9,0.4c0.6-1.2,1.1-2.4,1.7-3.7l-0.9-0.4C957.1,564.7,956.6,565.9,956,567.1z
		 M971.4,530.1l0.9,0.4c0.5-1.2,1-2.5,1.4-3.7l-0.9-0.4C972.4,527.6,971.9,528.9,971.4,530.1z M952.6,574.3l0.9,0.4
		c0.6-1.2,1.2-2.4,1.7-3.6l-0.9-0.4C953.7,571.9,953.2,573.1,952.6,574.3z M960.9,556.1c-0.5,1.2-1.1,2.5-1.6,3.7l0.9,0.4
		c0.5-1.2,1.1-2.4,1.6-3.7L960.9,556.1L960.9,556.1z M968.5,537.6l0.9,0.4c0.5-1.2,1-2.5,1.5-3.7l-0.9-0.4
		C969.4,535.1,969,536.3,968.5,537.6z M965.5,545l0.9,0.4c0.5-1.2,1-2.5,1.5-3.7l-0.9-0.4C966.5,542.5,966,543.8,965.5,545z
		 M949,581.4l0.9,0.5c0.6-1.2,1.2-2.4,1.8-3.6l-0.9-0.5C950.2,579.1,949.6,580.3,949,581.4z M962.4,552.4l0.9,0.4
		c0.5-1.2,1-2.5,1.5-3.7l-0.9-0.4C963.5,550,963,551.2,962.4,552.4z M1027.4,406.1l0.8,0.5c0.7-1.1,1.5-2.2,2.2-3.3l-0.8-0.6
		C1028.9,403.9,1028.1,405,1027.4,406.1z M1031.9,399.5l0.8,0.6c0.8-1.1,1.6-2.2,2.3-3.2l-0.8-0.6
		C1033.5,397.3,1032.7,398.4,1031.9,399.5z M1023.1,412.9l0.9,0.5c0.7-1.1,1.4-2.3,2.1-3.4l-0.8-0.5
		C1024.5,410.6,1023.8,411.8,1023.1,412.9z M1041.7,386.8l0.8,0.6c0.9-1,1.7-2,2.6-3l-0.7-0.7
		C1043.4,384.7,1042.6,385.8,1041.7,386.8z M1047,380.8l0.7,0.7c0.9-1,1.8-1.9,2.7-2.9l-0.7-0.7
		C1048.8,378.8,1047.9,379.8,1047,380.8z M1039.1,389.9c-0.8,1-1.7,2.1-2.5,3.2l0.8,0.6c0.8-1.1,1.6-2.1,2.5-3.1L1039.1,389.9
		L1039.1,389.9z M1021,416.3c-0.7,1.1-1.4,2.3-2,3.5l0.9,0.5c0.7-1.2,1.3-2.3,2-3.5L1021,416.3L1021,416.3z M1013.2,430.4
		c-0.6,1.2-1.2,2.4-1.8,3.6l0.9,0.5c0.6-1.2,1.2-2.4,1.8-3.6L1013.2,430.4L1013.2,430.4z M999.4,459.3L999.4,459.3L999.4,459.3
		L999.4,459.3z M997.8,463l0.9,0.4c0.5-1.2,1.1-2.5,1.6-3.7l-0.9-0.4C998.9,460.5,998.3,461.7,997.8,463z M1001,455.6l0.9,0.4
		c0.5-1.2,1.1-2.4,1.6-3.6l-0.9-0.4C1002.1,453.2,1001.6,454.4,1001,455.6z M1007.8,441.1l0.9,0.4c0.6-1.2,1.2-2.4,1.8-3.6l-0.9-0.4
		C1009,438.7,1008.4,439.9,1007.8,441.1z M1006,444.7c-0.6,1.2-1.1,2.4-1.7,3.6l0.9,0.4c0.6-1.2,1.1-2.4,1.7-3.6L1006,444.7
		L1006,444.7z M994.7,470.4l0.9,0.4c0.5-1.2,1-2.5,1.5-3.7l-0.9-0.4C995.7,467.9,995.2,469.1,994.7,470.4z M1015.1,426.8l0.9,0.5
		c0.6-1.2,1.3-2.3,1.9-3.5l-0.9-0.5C1016.4,424.5,1015.7,425.6,1015.1,426.8z M978.6,511.4c-0.5,1.2-1,2.5-1.4,3.7l0.9,0.4
		c0.5-1.2,1-2.5,1.4-3.7L978.6,511.4L978.6,511.4z M812.4,633.9h4v-1h-4V633.9z M804.4,633.9h4v-1h-4V633.9z M780.4,633.9h4v-1h-4
		V633.9z M788.4,633.9h4v-1h-4V633.9z M796.4,633.9h4v-1h-4V633.9z M820.4,633.9h4v-1h-4V633.9z M836.4,633.9h4v-1h-4V633.9z
		 M828.4,633.9h4v-1h-4V633.9z M844.4,633.9h4v-1h-4V633.9z M772.4,633.9h4v-1h-4V633.9z M724.4,633.9h4v-1h-4V633.9z M740.4,633.9
		h4v-1h-4V633.9z M732.4,633.9h4v-1h-4V633.9z M748.4,633.9h4v-1h-4V633.9z M764.4,633.9h4v-1h-4V633.9z M756.4,633.9h4v-1h-4V633.9
		z M852.4,633.9h4v-1h-4V633.9z M947.1,585c-0.6,1.2-1.3,2.3-2,3.5l0.9,0.5c0.7-1.2,1.3-2.3,2-3.5L947.1,585L947.1,585z
		 M914.3,624.3l0.5,0.8c1.1-0.7,2.2-1.5,3.3-2.3l-0.6-0.8C916.5,622.9,915.4,623.6,914.3,624.3z M708.4,633.9h4v-1h-4V633.9z
		 M920.7,619.6l0.6,0.8c1-0.9,2-1.7,3-2.7l-0.7-0.7C922.7,617.9,921.7,618.8,920.7,619.6z M943.1,591.9L943.1,591.9L943.1,591.9
		L943.1,591.9z M938.8,598.6c-0.7,1.1-1.5,2.2-2.3,3.3l0.8,0.6c0.8-1.1,1.5-2.2,2.3-3.3L938.8,598.6L938.8,598.6z M941,595.3
		l0.8,0.5c0.7-1.1,1.4-2.3,2.1-3.4l-0.9-0.5C942.4,593.1,941.7,594.2,941,595.3z M926.5,614.2l0.7,0.7c0.9-1,1.8-1.9,2.7-2.9
		l-0.7-0.7C928.3,612.3,927.4,613.3,926.5,614.2z M868.4,633.9h4v-1h-4V633.9z M876.4,633.9h4v-1h-4V633.9z M860.4,633.9h4v-1h-4
		V633.9z M892.3,632.5l0.1,1c1.3-0.2,2.7-0.4,4-0.7l-0.2-1C895,632.1,893.7,632.3,892.3,632.5z M900.1,630.9l0.3,1
		c1.3-0.4,2.6-0.8,3.8-1.3l-0.4-0.9C902.6,630.1,901.3,630.5,900.1,630.9z M907.4,628.1l0.4,0.9c1.2-0.6,2.4-1.2,3.6-1.8l-0.5-0.9
		C909.8,627,908.6,627.6,907.4,628.1z M885.3,632.9c-0.3,0-0.6,0-0.8,0h0v1h0c0.3,0,0.6,0,0.8,0c1.1,0,2.1,0,3.2-0.1l-0.1-1
		C887.4,632.9,886.4,632.9,885.3,632.9z M934.2,605.1c-0.8,1.1-1.6,2.1-2.5,3.1l0.8,0.6c0.8-1,1.7-2.1,2.5-3.2L934.2,605.1
		L934.2,605.1z M1304.7,161.1l0.9,0.5c0.6-1.2,1.3-2.3,1.9-3.5l-0.9-0.5C1305.9,158.7,1305.3,159.9,1304.7,161.1z M1302.7,164.6
		c-0.6,1.2-1.3,2.4-1.9,3.5l0.9,0.5c0.6-1.2,1.2-2.4,1.9-3.5L1302.7,164.6L1302.7,164.6z M1308.6,154.1l0.9,0.5
		c0.7-1.2,1.4-2.3,2-3.4l-0.9-0.5C1309.9,151.8,1309.3,152.9,1308.6,154.1z M1297.2,175.3l0.9,0.5c0.6-1.2,1.2-2.4,1.8-3.6l-0.9-0.5
		C1298.4,172.9,1297.8,174.1,1297.2,175.3z M1293.6,182.5l0.9,0.4c0.6-1.2,1.2-2.4,1.8-3.6l-0.9-0.4
		C1294.8,180.1,1294.2,181.3,1293.6,182.5z M1321.9,134l0.8,0.6c0.8-1.1,1.7-2.1,2.5-3.1l-0.8-0.7
		C1323.6,131.9,1322.7,132.9,1321.9,134z M1310.6,150.6L1310.6,150.6C1310.6,150.6,1310.6,150.6,1310.6,150.6L1310.6,150.6z
		 M1264.7,239.6l0.9,0.5c0.6-1.2,1.3-2.3,1.9-3.5l-0.9-0.5C1266,237.3,1265.3,238.4,1264.7,239.6z M1317.1,140.5l0.8,0.6
		c0.8-1.1,1.5-2.2,2.3-3.3l-0.8-0.6C1318.7,138.3,1317.9,139.4,1317.1,140.5z M1272.2,225.5l0.9,0.5c0.6-1.2,1.2-2.4,1.8-3.6
		l-0.9-0.5C1273.4,223.2,1272.8,224.3,1272.2,225.5z M1290.1,189.7l0.9,0.4c0.6-1.2,1.2-2.4,1.8-3.6l-0.9-0.4
		C1291.2,187.3,1290.7,188.5,1290.1,189.7z M1275.9,218.4l0.9,0.5c0.6-1.2,1.2-2.4,1.8-3.6l-0.9-0.4
		C1277.1,216,1276.5,217.2,1275.9,218.4z M1270.4,229.1c-0.6,1.2-1.2,2.4-1.9,3.5l0.9,0.5c0.6-1.2,1.3-2.4,1.9-3.5L1270.4,229.1
		L1270.4,229.1z M1279.5,211.2l0.9,0.4c0.6-1.2,1.2-2.4,1.8-3.6l-0.9-0.4C1280.7,208.8,1280.1,210,1279.5,211.2z M1286.5,196.9
		l0.9,0.4c0.6-1.2,1.2-2.4,1.8-3.6l-0.9-0.4C1287.7,194.5,1287.1,195.7,1286.5,196.9z M1283,204.1l0.9,0.4c0.6-1.2,1.2-2.4,1.8-3.6
		l-0.9-0.4C1284.2,201.7,1283.6,202.9,1283,204.1z M1312.7,147.2l0.8,0.5c0.7-1.1,1.4-2.3,2.2-3.4l-0.8-0.5
		C1314.2,144.9,1313.4,146.1,1312.7,147.2z M1402.1,109.4l0.3,1c1.3-0.3,2.6-0.7,3.9-1.1l-0.3-1
		C1404.7,108.7,1403.4,109.1,1402.1,109.4z M1394.4,111l0.2,1c1.3-0.2,2.6-0.5,4-0.7l-0.2-1C1397,110.6,1395.7,110.8,1394.4,111z
		 M1409.7,107l0.3,0.9c1.2-0.5,2.5-1,3.7-1.5l-0.4-0.9C1412.2,106.1,1410.9,106.5,1409.7,107z M1427.2,97.8
		c-1.1,0.8-2.2,1.5-3.3,2.2l0.5,0.8c1.1-0.7,2.2-1.4,3.3-2.2L1427.2,97.8L1427.2,97.8z M1417,103.9l0.4,0.9c1.2-0.6,2.4-1.2,3.6-1.9
		l-0.5-0.9C1419.3,102.7,1418.2,103.3,1417,103.9z M1430.4,95.4l0.6,0.8c1-0.8,2.1-1.6,3.1-2.5l-0.6-0.8
		C1432.5,93.8,1431.4,94.6,1430.4,95.4z M1327.1,127.9l0.7,0.7c0.9-1,1.8-1.9,2.8-2.8l-0.7-0.7C1329,125.9,1328,126.9,1327.1,127.9z
		 M1390.4,111.6c-1.3,0.2-2.6,0.3-4,0.4l0.1,1c1.3-0.1,2.7-0.2,4-0.4L1390.4,111.6L1390.4,111.6z M1343,115.7
		c-1.2,0.6-2.4,1.2-3.5,1.9l0.5,0.9c1.1-0.7,2.3-1.3,3.5-1.9L1343,115.7L1343,115.7z M1332.9,122.3l0.6,0.8c1-0.9,2.1-1.7,3.1-2.5
		l-0.6-0.8C1335,120.6,1334,121.4,1332.9,122.3z M1346.7,114.1l0.3,0.9c1.2-0.4,2.5-0.8,3.8-1.1l-0.2-1
		C1349.2,113.3,1348,113.7,1346.7,114.1z M1378.5,112.3l0,1c1.3,0,2.7-0.1,4-0.1l0-1C1381.2,112.3,1379.8,112.3,1378.5,112.3z
		 M1370.5,112.4l0,1c1.3,0,2.5,0,3.8,0h0.2v-1h-0.2C1373,112.4,1371.8,112.4,1370.5,112.4z M1354.5,112.3l0.1,1
		c1.2-0.1,2.5-0.2,3.8-0.2h0.1l0-1c0,0-0.1,0-0.1,0C1357.1,112.1,1355.8,112.2,1354.5,112.3z M1362.5,113.2c1.3,0,2.7,0.1,4,0.1l0-1
		c-1.3,0-2.7-0.1-4-0.1L1362.5,113.2z M1198.9,318.7l0.6,0.8c1.1-0.7,2.2-1.5,3.3-2.3l-0.6-0.8C1201,317.2,1200,318,1198.9,318.7z
		 M1147.3,338.5l0.1,1c1.3-0.2,2.7-0.4,4-0.6l-0.2-1C1149.9,338.1,1148.6,338.3,1147.3,338.5z M1139.4,339.4l0.1,1
		c1.3-0.1,2.7-0.2,4-0.4l-0.1-1C1142,339.2,1140.7,339.3,1139.4,339.4z M1260.8,246.6l0.9,0.5c0.7-1.2,1.3-2.3,2-3.5l-0.9-0.5
		C1262.1,244.3,1261.4,245.4,1260.8,246.6z M1123.4,340.6l0.1,1c1.3-0.2,2.6-0.3,4-0.4l-0.1-1
		C1126.1,340.3,1124.7,340.4,1123.4,340.6z M1133.8,339.8c-0.8,0-1.6,0.1-2.4,0.1l0.1,1c0.8,0,1.6-0.1,2.3-0.1c0.6,0,1.1,0,1.6-0.1
		l-0.1-1C1134.9,339.7,1134.3,339.7,1133.8,339.8z M1170.5,332.9l0.3,0.9c1.3-0.4,2.5-0.9,3.8-1.4l-0.4-0.9
		C1173,332,1171.7,332.5,1170.5,332.9z M1162.9,335.3l0.3,1c1.3-0.4,2.6-0.7,3.8-1.1l-0.3-1C1165.4,334.6,1164.1,334.9,1162.9,335.3
		z M1155.1,337.1l0.2,1c1.3-0.3,2.6-0.6,3.9-0.9l-0.2-1C1157.7,336.6,1156.4,336.9,1155.1,337.1z M1064.7,364.5l0.6,0.8
		c1.1-0.8,2.1-1.6,3.2-2.4l-0.6-0.8C1066.9,362.9,1065.8,363.7,1064.7,364.5z M1078,355.6l0.5,0.9c1.1-0.7,2.3-1.3,3.5-1.9l-0.5-0.9
		C1080.4,354.2,1079.2,354.9,1078,355.6z M1071.2,359.8l0.6,0.8c1.1-0.7,2.2-1.5,3.3-2.2l-0.5-0.9
		C1073.5,358.3,1072.3,359.1,1071.2,359.8z M1177.9,330.1l0.4,0.9c1.2-0.5,2.5-1.1,3.7-1.6l-0.4-0.9
		C1180.3,329,1179.1,329.5,1177.9,330.1z M1111.6,342.6c-1.3,0.3-2.6,0.6-3.9,0.9l0.2,1c1.3-0.3,2.6-0.6,3.9-0.9L1111.6,342.6
		L1111.6,342.6z M1100,345.7l0.3,1c1.3-0.4,2.5-0.8,3.8-1.2l-0.3-1C1102.5,344.9,1101.2,345.3,1100,345.7z M1085.1,351.8l0.4,0.9
		c1.2-0.6,2.4-1.1,3.6-1.7l-0.4-0.9C1087.5,350.6,1086.3,351.2,1085.1,351.8z M1092.4,348.5l0.4,0.9c1.2-0.5,2.5-1,3.7-1.4l-0.3-0.9
		C1094.9,347.5,1093.7,348,1092.4,348.5z M1119.5,341.1c-1.3,0.2-2.6,0.4-4,0.7l0.2,1c1.3-0.2,2.6-0.5,3.9-0.7L1119.5,341.1
		L1119.5,341.1z M1243.5,273.6l0.8,0.6c0.8-1.1,1.5-2.2,2.3-3.3l-0.8-0.6C1245.1,271.4,1244.3,272.5,1243.5,273.6z M1238.8,280
		l0.8,0.6c0.8-1.1,1.6-2.1,2.4-3.2l-0.8-0.6C1240.4,277.9,1239.6,279,1238.8,280z M1245.8,270.3L1245.8,270.3
		C1245.8,270.3,1245.8,270.3,1245.8,270.3L1245.8,270.3z M1252.5,260.3l0.8,0.5c0.7-1.1,1.4-2.3,2.1-3.4l-0.8-0.5
		C1253.9,258.1,1253.2,259.2,1252.5,260.3z M1256.7,253.5l0.9,0.5c0.7-1.1,1.4-2.3,2.1-3.5l-0.9-0.5
		C1258.1,251.2,1257.4,252.3,1256.7,253.5z M1233.8,286.3l0.8,0.6c0.8-1,1.7-2.1,2.5-3.1l-0.8-0.6
		C1235.5,284.2,1234.7,285.3,1233.8,286.3z M1248.1,267l0.8,0.6c0.7-1.1,1.5-2.2,2.2-3.3l-0.8-0.5
		C1249.6,264.8,1248.8,265.9,1248.1,267z M1058.5,369.6l0.7,0.8c1-0.9,2-1.7,3-2.6l-0.6-0.8C1060.5,367.8,1059.5,368.7,1058.5,369.6
		z M1205.3,314.1l0.6,0.8c1.1-0.8,2.1-1.6,3.2-2.5l-0.6-0.8C1207.4,312.5,1206.4,313.3,1205.3,314.1z M1185.1,326.7l0.4,0.9
		c1.2-0.6,2.4-1.2,3.6-1.9l-0.5-0.9C1187.5,325.5,1186.3,326.1,1185.1,326.7z M1192.1,322.9l0.5,0.9c1.2-0.7,2.3-1.4,3.4-2.1
		l-0.5-0.8C1194.4,321.6,1193.3,322.3,1192.1,322.9z M1228.6,292.4l0.7,0.7c0.9-1,1.8-2,2.6-3l-0.8-0.7
		C1230.4,290.4,1229.5,291.4,1228.6,292.4z M1223.2,298.2l0.7,0.7c0.9-1,1.9-1.9,2.8-2.9l-0.7-0.7
		C1225,296.3,1224.1,297.3,1223.2,298.2z M1217.5,303.8l0.7,0.7c1-0.9,1.9-1.8,2.9-2.8l-0.7-0.7
		C1219.4,302,1218.5,302.9,1217.5,303.8z M1211.5,309.1l0.6,0.8c1-0.9,2-1.7,3-2.6l-0.7-0.7C1213.6,307.4,1212.6,308.3,1211.5,309.1
		z M716.4,633.9h4v-1h-4V633.9z M208.9,281.4c0.8,1.1,1.6,2.1,2.5,3.2l0.8-0.6c-0.8-1-1.7-2.1-2.5-3.1L208.9,281.4z M207.3,277.6
		L207.3,277.6L207.3,277.6L207.3,277.6z M204.2,274.9c0.8,1.1,1.6,2.2,2.4,3.2l0.8-0.6c-0.8-1.1-1.6-2.1-2.3-3.2L204.2,274.9z
		 M231.1,304.4l-0.7,0.7c1,0.9,2,1.8,3,2.7l0.7-0.8h0C233.1,306.2,232.1,305.3,231.1,304.4z M219.2,293.7c0.9,1,1.8,2,2.7,3l0.7-0.7
		c-0.9-1-1.8-1.9-2.7-2.9L219.2,293.7z M213.9,287.6c0.9,1,1.7,2.1,2.6,3.1l0.8-0.7c-0.9-1-1.7-2-2.6-3L213.9,287.6z M224.7,299.6
		c0.9,1,1.9,1.9,2.8,2.8l0.7-0.7c-1-0.9-1.9-1.9-2.8-2.8L224.7,299.6z M195.2,261.7c0.7,1.1,1.4,2.2,2.2,3.4l0.8-0.6
		c-0.7-1.1-1.5-2.2-2.2-3.4L195.2,261.7z M199.6,268.4c0.7,1.1,1.5,2.2,2.3,3.3l0.8-0.6c-0.8-1.1-1.5-2.2-2.3-3.3L199.6,268.4z
		 M171.6,219.7c0.6,1.2,1.2,2.4,1.8,3.6l0.9-0.5c-0.6-1.2-1.2-2.4-1.8-3.6L171.6,219.7z M168,212.5c0.6,1.2,1.2,2.4,1.8,3.6l0.9-0.5
		c-0.6-1.2-1.2-2.4-1.8-3.6L168,212.5z M190.9,254.9c0.7,1.1,1.4,2.3,2.1,3.4l0.8-0.5c-0.7-1.1-1.4-2.3-2.1-3.4L190.9,254.9z
		 M175.3,226.8c0.6,1.2,1.2,2.4,1.9,3.6l0.9-0.5c-0.6-1.2-1.2-2.4-1.9-3.5L175.3,226.8z M186.8,247.9c0.7,1.2,1.3,2.3,2,3.5l0.9-0.5
		c-0.7-1.2-1.4-2.3-2-3.5L186.8,247.9z M179,233.9c0.6,1.2,1.3,2.4,1.9,3.5l0.9-0.5c-0.6-1.2-1.3-2.3-1.9-3.5L179,233.9z M182.9,241
		c0.7,1.2,1.3,2.3,2,3.5l0.9-0.5c-0.7-1.2-1.3-2.3-2-3.5L182.9,241z M329.4,341.3L329.4,341.3L329.4,341.3L329.4,341.3z
		 M317.4,340.9c1.3,0.1,2.7,0.2,4,0.3l0.1-1c-1.3-0.1-2.7-0.2-4-0.3L317.4,340.9z M301.4,339.6c1.3,0.2,2.6,0.3,4,0.5l0.1-1
		c-1.3-0.1-2.6-0.3-3.9-0.5L301.4,339.6z M285.7,336.5c1.3,0.3,2.6,0.7,3.9,1l0.2-1c-1.3-0.3-2.6-0.6-3.9-1L285.7,336.5z
		 M236.4,310.5c1,0.9,2.1,1.7,3.1,2.5l0.6-0.8c-1-0.8-2.1-1.7-3.1-2.5L236.4,310.5z M309.4,340.5c1.3,0.1,2.7,0.2,4,0.2l0-1
		c-1.3-0.1-2.7-0.1-4-0.3L309.4,340.5z M333.2,342.9c1.3,0.3,2.6,0.5,3.9,0.8l0.2-1c-1.3-0.3-2.6-0.6-3.9-0.8L333.2,342.9z
		 M325.3,341.7c1.3,0.2,2.6,0.4,3.9,0.6l0.2-1c-1.3-0.2-2.6-0.4-4-0.6L325.3,341.7z M164.5,205.3c0.6,1.2,1.2,2.4,1.8,3.6l0.9-0.4h0
		c-0.6-1.2-1.2-2.4-1.8-3.6L164.5,205.3z M293.5,338.3c1.3,0.3,2.6,0.5,3.9,0.7l0.2-1c-1.3-0.2-2.6-0.5-3.9-0.7L293.5,338.3z
		 M242.7,315.4c1.1,0.8,2.2,1.6,3.2,2.3l0.6-0.8h0c-1.1-0.8-2.2-1.5-3.2-2.3L242.7,315.4z M278,334.2c1.3,0.4,2.5,0.8,3.8,1.2l0.3-1
		c-1.3-0.4-2.5-0.8-3.8-1.2L278,334.2z M249.3,320c1.1,0.7,2.2,1.5,3.4,2.2l0.5-0.9c-1.1-0.7-2.3-1.4-3.4-2.1L249.3,320z
		 M240.2,312.2L240.2,312.2L240.2,312.2C240.2,312.2,240.2,312.2,240.2,312.2z M270.5,331.3c1.2,0.5,2.5,1,3.7,1.5l0.4-0.9v0
		c-1.2-0.5-2.5-1-3.7-1.5L270.5,331.3z M256.1,324.3c1.2,0.7,2.3,1.3,3.5,1.9l0.5-0.9c-1.2-0.6-2.3-1.3-3.5-1.9L256.1,324.3z
		 M263.2,328c1.2,0.6,2.4,1.2,3.6,1.7l0.4-0.9c-1.2-0.5-2.4-1.1-3.6-1.7L263.2,328z M154.8,183.3l-0.9,0.4c0.6,1.2,1.2,2.4,1.8,3.6
		l0.9-0.4h0C155.9,185.7,155.3,184.5,154.8,183.3z M54.4,112.1c1.3,0.2,2.7,0.4,4,0.5l0.1-1c-1.3-0.1-2.6-0.3-3.9-0.5L54.4,112.1z
		 M163.6,201.3L163.6,201.3L163.6,201.3L163.6,201.3z M31.4,105.2c1.2,0.6,2.4,1.1,3.7,1.6l0.4-0.9c-1.2-0.5-2.4-1-3.6-1.6
		L31.4,105.2z M38.8,108.3c1.3,0.5,2.5,0.9,3.8,1.3l0.3-1c-1.3-0.4-2.5-0.8-3.8-1.2L38.8,108.3z M62.4,112l-0.1,1
		c1.3,0.1,2.7,0.2,4,0.2l0-1h0C65.1,112.2,63.7,112.1,62.4,112z M88.8,112.1c-0.8,0-1.6,0-2.5,0.1l0,1c0.8,0,1.6,0,2.5-0.1
		c0.2,0,0.5,0,0.7,0c0.3,0,0.5,0,0.8,0l0-1c-0.3,0-0.5,0-0.8,0C89.3,112.1,89.1,112.1,88.8,112.1z M73.6,112.4c-1.1,0-2.2,0-3.3,0
		l0,1c1.1,0,2.2,0,3.3,0h0.7l0-1C74.1,112.4,73.9,112.4,73.6,112.4z M82.4,112.3c-1.3,0-2.7,0.1-4,0.1l0,1c1.3,0,2.7-0.1,4-0.1
		L82.4,112.3L82.4,112.3z M0.4,80c0.9,1,1.7,2.1,2.6,3l0.7-0.7c-0.9-1-1.7-2-2.6-3L0.4,80z M1439.3,87.5L1439.3,87.5
		C1439.3,87.5,1439.3,87.5,1439.3,87.5L1439.3,87.5z M1439.3,87.5c-1,1-1.9,1.9-2.9,2.7l0.7,0.7c1-0.9,1.9-1.8,2.9-2.7v-0.1
		L1439.3,87.5z M94.4,112.4l-0.1,1c1.3,0.2,2.6,0.4,3.8,0.8l0.3-1h0C97.1,112.9,95.8,112.6,94.4,112.4z M24.3,101.3
		c1.2,0.7,2.3,1.4,3.5,2l0.5-0.9c-1.1-0.6-2.3-1.3-3.4-2L24.3,101.3z M5.8,86c0.9,1,1.9,1.9,2.8,2.9l0.7-0.7
		c-0.9-0.9-1.9-1.9-2.8-2.8L5.8,86z M17.7,96.8c1.1,0.8,2.2,1.6,3.3,2.3l0.6-0.8c-1.1-0.7-2.1-1.5-3.2-2.3L17.7,96.8z M11.5,91.6
		c1,0.9,2,1.8,3,2.6l0.6-0.8c-1-0.8-2-1.7-3-2.6L11.5,91.6z M46.7,109.6l-0.2,1c1.3,0.3,2.6,0.6,3.9,0.9l0.2-1h0
		C49.3,110.2,48,109.9,46.7,109.6z M146.6,169.5c0.6,1.2,1.2,2.4,1.8,3.6l0.9-0.5c-0.6-1.2-1.2-2.4-1.8-3.6L146.6,169.5z
		 M150.3,176.6c0.6,1.2,1.2,2.4,1.8,3.6l0.9-0.4c-0.6-1.2-1.2-2.4-1.8-3.6L150.3,176.6z M142.9,162.4c0.6,1.2,1.3,2.3,1.9,3.5
		l0.9-0.5c-0.6-1.2-1.3-2.4-1.9-3.5L142.9,162.4z M101.8,115.4c1.2,0.5,2.4,1,3.6,1.6l0.5-0.9c-1.2-0.6-2.4-1.2-3.7-1.7L101.8,115.4
		z M160.9,198.1c0.6,1.2,1.2,2.4,1.8,3.6l0.9-0.4c-0.6-1.2-1.2-2.4-1.8-3.6L160.9,198.1z M340.9,344.7c1.3,0.3,2.6,0.7,3.8,1.1
		l0.3-1c-1.3-0.4-2.6-0.7-3.9-1.1L340.9,344.7z M157.4,190.9c0.6,1.2,1.2,2.4,1.8,3.6l0.9-0.4c-0.6-1.2-1.2-2.4-1.8-3.6L157.4,190.9
		z M139,155.4c0.7,1.1,1.3,2.3,2,3.5l0.9-0.5c-0.7-1.2-1.3-2.3-2-3.5L139,155.4z M112.6,120.4L112.6,120.4L112.6,120.4
		C112.6,120.4,112.6,120.4,112.6,120.4z M115.1,123.7c1,0.9,1.9,1.8,2.9,2.7l0.7-0.7c-1-1-2-1.9-2.9-2.7L115.1,123.7z M108.8,119
		c1.1,0.7,2.2,1.4,3.2,2.3l0.6-0.8c-1.1-0.8-2.2-1.6-3.3-2.3L108.8,119z M125.9,135.4c0.8,1,1.6,2.1,2.4,3.2l0.8-0.6v0
		c-0.8-1.1-1.6-2.2-2.4-3.2L125.9,135.4z M130.5,141.8c0.7,1.1,1.5,2.2,2.2,3.3l0.8-0.5c-0.7-1.1-1.5-2.3-2.2-3.3L130.5,141.8z
		 M134.9,148.5c0.7,1.1,1.4,2.3,2.1,3.4l0.9-0.5c-0.7-1.2-1.4-2.3-2.1-3.4L134.9,148.5z M120.7,129.3c0.9,1,1.7,2,2.6,3l0.8-0.6
		c-0.9-1-1.8-2.1-2.6-3L120.7,129.3z M588.4,633.9h4v-1h-4V633.9z M533.9,625.7c1.1,0.7,2.3,1.4,3.5,2l0.5-0.9
		c-1.2-0.6-2.3-1.3-3.4-2L533.9,625.7z M541,629.4c1.2,0.5,2.5,1,3.7,1.5l0.3-0.9c-1.2-0.4-2.5-0.9-3.7-1.5L541,629.4z M528,620.2
		l-0.6,0.8c1,0.9,2.1,1.7,3.2,2.5l0.6-0.8h0C530.1,621.8,529,621,528,620.2z M521.4,615.6c1,1,1.9,1.9,2.9,2.8l0.7-0.7
		c-1-0.9-1.9-1.8-2.9-2.8L521.4,615.6z M548.5,632.1c1.3,0.3,2.6,0.6,3.9,0.9l0.2-1c-1.3-0.2-2.6-0.5-3.8-0.9L548.5,632.1z
		 M564.4,633.9h4v-1h-4V633.9z M516,609.6c0.9,1,1.7,2.1,2.6,3l0.7-0.7c-0.9-1-1.8-2-2.6-3L516,609.6z M572.4,633.9h4v-1h-4V633.9z
		 M556.4,633.6c1.3,0.1,2.6,0.2,4,0.3l0-1c-1.3,0-2.6-0.1-3.9-0.3L556.4,633.6z M491.4,568.3c0.6,1.2,1.1,2.4,1.7,3.6l0.9-0.4
		c-0.6-1.2-1.1-2.4-1.7-3.6L491.4,568.3z M494.9,575.6c0.6,1.2,1.2,2.4,1.8,3.6l0.9-0.5v0c-0.6-1.2-1.2-2.4-1.8-3.6L494.9,575.6z
		 M484.9,553.6c0.5,1.2,1,2.5,1.6,3.7l0.9-0.4c-0.5-1.2-1-2.4-1.6-3.7L484.9,553.6z M498.5,582.7c0.6,1.2,1.3,2.4,1.9,3.5l0.9-0.5
		c-0.6-1.2-1.3-2.3-1.9-3.5L498.5,582.7z M506.6,596.6c0.7,1.1,1.5,2.3,2.2,3.4l0.8-0.6l0,0c-0.7-1.1-1.5-2.2-2.2-3.3L506.6,596.6z
		 M502.4,589.7c0.7,1.2,1.4,2.3,2,3.5l0.9-0.5v0c-0.7-1.1-1.4-2.3-2-3.4L502.4,589.7z M511.1,603.2c0.8,1.1,1.6,2.2,2.4,3.2l0.8-0.6
		c-0.8-1-1.6-2.1-2.4-3.2L511.1,603.2z M488.1,561c0.5,1.2,1.1,2.5,1.6,3.7l0.9-0.4c-0.5-1.2-1.1-2.4-1.6-3.7L488.1,561z
		 M660.4,633.9h4v-1h-4V633.9z M652.4,633.9h4v-1h-4V633.9z M580.4,633.9h4v-1h-4V633.9z M692.4,633.9h4v-1h-4V633.9z M676.4,633.9
		h4v-1h-4V633.9z M644.4,633.9h4v-1h-4V633.9z M348.5,347c1.3,0.4,2.5,0.9,3.7,1.3l0.4-0.9c-1.2-0.5-2.5-0.9-3.8-1.3L348.5,347z
		 M668.4,633.9h4v-1h-4V633.9z M596.4,633.9h4v-1h-4V633.9z M700.4,633.9h4v-1h-4V633.9z M636.4,633.9h4v-1h-4V633.9z M604.4,633.9
		h4v-1h-4V633.9z M628.4,633.9h4v-1h-4V633.9z M612.4,633.9h4v-1h-4V633.9z M620.4,633.9h4v-1h-4V633.9z M684.4,633.9h4v-1h-4V633.9
		z M411,394.4c0.8,1.1,1.6,2.1,2.4,3.2l0.8-0.6c-0.8-1.1-1.6-2.2-2.4-3.2L411,394.4z M415.8,400.8c0.8,1.1,1.5,2.2,2.3,3.3l0.8-0.6
		c-0.8-1.1-1.5-2.2-2.3-3.3L415.8,400.8z M406.1,388.1c0.8,1,1.7,2.1,2.5,3.1l0.8-0.6c-0.8-1.1-1.7-2.1-2.5-3.1L406.1,388.1z
		 M420.2,407.4c0.7,1.1,1.4,2.2,2.2,3.4l0.8-0.5c-0.7-1.1-1.4-2.3-2.2-3.4L420.2,407.4z M424.5,414.2c0.7,1.1,1.4,2.3,2.1,3.4
		l0.9-0.5c-0.7-1.2-1.4-2.3-2.1-3.4L424.5,414.2z M400.8,382.1c0.9,1,1.8,2,2.7,3l0.8-0.7c-0.9-1-1.8-2-2.7-3L400.8,382.1z
		 M433.3,427.6l-0.9,0.5c0.6,1.2,1.3,2.4,1.9,3.5l0.9-0.5h0C434.5,430,433.9,428.8,433.3,427.6z M436.1,435.2
		c0.6,1.2,1.2,2.4,1.8,3.6l0.9-0.4c-0.6-1.2-1.2-2.4-1.8-3.6L436.1,435.2z M428.5,421.1c0.7,1.2,1.3,2.3,2,3.5l0.9-0.5v0
		c-0.6-1.2-1.3-2.3-2-3.5L428.5,421.1z M363.2,353.1c1.2,0.6,2.4,1.2,3.5,1.8l0.5-0.9c-1.2-0.6-2.4-1.3-3.6-1.9L363.2,353.1z
		 M395.3,376.4c0.9,0.9,1.9,1.9,2.8,2.8l0.7-0.7c-0.9-1-1.9-1.9-2.8-2.9L395.3,376.4z M356,349.8c1.2,0.5,2.4,1,3.6,1.6l0.4-0.9
		c-1.2-0.6-2.4-1.1-3.7-1.6L356,349.8z M370.2,356.9c1.1,0.7,2.3,1.4,3.4,2.1l0.5-0.8c-1.1-0.7-2.3-1.4-3.4-2.1L370.2,356.9z
		 M376.9,361.1c1.1,0.7,2.2,1.5,3.3,2.3l0.6-0.8c-1.1-0.8-2.2-1.6-3.3-2.3L376.9,361.1z M390.1,370.2l-0.7,0.8c1,0.9,2,1.8,3,2.7
		l0.7-0.7h0C392.1,371.9,391.1,371,390.1,370.2z M383.3,365.8c1,0.8,2.1,1.6,3.1,2.5l0.6-0.8c-1-0.9-2.1-1.7-3.1-2.5L383.3,365.8z
		 M461.6,493.9c0.5,1.2,1,2.5,1.4,3.7l0.9-0.4c-0.5-1.2-1-2.5-1.4-3.7L461.6,493.9z M467.3,508.9c0.5,1.3,1,2.5,1.4,3.7l0.9-0.4
		c-0.5-1.2-1-2.5-1.4-3.7L467.3,508.9z M470.2,516.4c0.5,1.3,1,2.5,1.4,3.7l0.9-0.4c-0.5-1.2-1-2.5-1.4-3.7L470.2,516.4z
		 M464.5,501.4c0.5,1.3,1,2.5,1.4,3.7l0.9-0.4c-0.5-1.2-1-2.5-1.4-3.7L464.5,501.4z M478.9,538.8c0.5,1.2,1,2.5,1.5,3.7l0.9-0.4
		c-0.5-1.2-1-2.5-1.5-3.7L478.9,538.8z M481.9,546.2c0.5,1.2,1,2.5,1.5,3.7l0.9-0.4c-0.5-1.2-1-2.5-1.5-3.7L481.9,546.2z M476,531.3
		c0.5,1.3,1,2.5,1.5,3.7l0.9-0.4c-0.5-1.2-1-2.5-1.5-3.7L476,531.3z M473.1,523.8c0.5,1.3,1,2.5,1.4,3.7l0.9-0.4
		c-0.5-1.2-1-2.5-1.4-3.7L473.1,523.8z M446.4,456.9c0.5,1.2,1.1,2.4,1.6,3.7l0.9-0.4c-0.5-1.2-1.1-2.4-1.6-3.7L446.4,456.9z
		 M458.7,486.5c0.5,1.2,1,2.5,1.5,3.7l0.9-0.4c-0.5-1.2-1-2.5-1.5-3.7L458.7,486.5z M443.1,449.6c0.6,1.2,1.1,2.4,1.7,3.6l0.9-0.4
		c-0.6-1.2-1.1-2.4-1.7-3.6L443.1,449.6z M439.7,442.3c0.6,1.2,1.2,2.4,1.7,3.6l0.9-0.4c-0.6-1.2-1.1-2.4-1.7-3.6L439.7,442.3z
		 M445.7,452.8L445.7,452.8L445.7,452.8C445.7,452.8,445.7,452.8,445.7,452.8z M455.7,479c0.5,1.2,1,2.5,1.5,3.7l0.9-0.4
		c-0.5-1.2-1-2.5-1.5-3.7L455.7,479z M450.5,463.8l-0.9,0.4c0.5,1.2,1,2.5,1.6,3.7l0.9-0.4l0,0C451.5,466.3,451,465,450.5,463.8z
		 M452.7,471.6c0.5,1.2,1,2.5,1.5,3.7l0.9-0.4c-0.5-1.2-1-2.5-1.5-3.7L452.7,471.6z"/>
	<path class="st1" d="M151,359.4c0,10-8.1,18-18,18c-9.9,0-18-8.1-18-18s8.1-18,18-18C142.9,341.4,151,349.5,151,359.4z"/>
	<ellipse class="st1" cx="570.7" cy="327.9" rx="18" ry="18"/>
	<path class="st3" d="M280.7,113.6c0,10-8.1,18-18,18s-18-8.1-18-18c0-10,8.1-18,18-18S280.7,103.7,280.7,113.6z"/>
	<ellipse class="st3" cx="224.7" cy="704.4" rx="8" ry="8"/>
	<path class="st3" d="M156.7,55.5c0,4.4-3.6,8-8,8c-4.4,0-8-3.6-8-8c0-4.4,3.6-8,8-8C153.1,47.5,156.7,51.1,156.7,55.5z"/>
	<path class="st3" d="M1184.5,191.6c0,7.7-6.3,14-14,14c-7.7,0-14-6.3-14-14c0-7.7,6.3-14,14-14
		C1178.2,177.5,1184.5,183.8,1184.5,191.6z"/>
	<path class="st3" d="M1399,668.7c0,7.7-6.3,14-14,14c-7.7,0-14-6.3-14-14c0-7.7,6.3-14,14-14C1392.7,654.7,1399,661,1399,668.7z"/>
	<path class="st1" d="M1136.7,30.5c0,8.3-6.7,15-15,15c-8.3,0-15-6.7-15-15c0-8.3,6.7-15,15-15C1130,15.5,1136.7,22.2,1136.7,30.5z"
		/>
	<path class="st1" d="M81,444.5c0,3.3-2.7,6-6,6c-3.3,0-6-2.7-6-6c0-3.3,2.7-6,6-6C78.3,438.5,81,441.2,81,444.5z"/>
	<path class="st1" d="M633.5,378.8c0,3.3-2.7,6-6,6c-3.3,0-6-2.7-6-6c0-3.3,2.7-6,6-6C630.8,372.8,633.5,375.5,633.5,378.8z"/>
	<path class="st1" d="M1059,537.7c0,3.3-2.7,6-6,6c-3.3,0-6-2.7-6-6c0-3.3,2.7-6,6-6C1056.3,531.7,1059,534.4,1059,537.7z"/>
	<path class="st1" d="M1366,494.6c0,3.3-2.7,6-6,6c-3.3,0-6-2.7-6-6c0-3.3,2.7-6,6-6C1363.3,488.6,1366,491.3,1366,494.6z"/>
</g>
</svg>
