<?xml version="1.0" encoding="utf-8"?>
<!-- Generator: Adobe Illustrator 24.1.2, SVG Export Plug-In . SVG Version: 6.00 Build 0)  -->
<svg version="1.1" id="Layer_1" xmlns="http://www.w3.org/2000/svg" xmlns:xlink="http://www.w3.org/1999/xlink" x="0px" y="0px"
	 viewBox="0 0 1440 1000" style="enable-background:new 0 0 1440 1000;" xml:space="preserve">
<style type="text/css">
	.st0{fill:url(#SVGID_1_);}
	.st1{opacity:0.1;fill:#FFFFFF;}
	.st2{opacity:0.6;fill:#FFFFFF;}
	.st3{opacity:0.1;fill:#6A6D89;}
</style>
<g>
	<linearGradient id="SVGID_1_" gradientUnits="userSpaceOnUse" x1="58.9793" y1="-68.5695" x2="1377.5437" y2="1065.5789">
		<stop  offset="0" style="stop-color:#15EDED"/>
		<stop  offset="1" style="stop-color:#029CF5"/>
	</linearGradient>
	<rect class="st0" width="1440" height="1000"/>
	<path class="st1" d="M1133.8,423.2c-236.1-89.6-221.1,79.4-393.6,79.4H563.5c-106.7,0.4-94.8-160.1-249.3-184.1
		c-144.2-22.4-152.4,42.6-225.3,43c-26.6,0.2-58.3,1-88.8-9.2V1000h1440V305.1c-28-16.2-56.6-40.4-80.9-40.5
		C1286.2,264.1,1270.2,475,1133.8,423.2z"/>
	<path class="st1" d="M1133.8,753.5C969,755.3,991.1,829,884.5,828.6h-321C456.8,829,479,625.2,314.2,623.4
		c-145.9-1.6-152.4,71.4-225.3,71.8c-26.6,0.1-58.3,0.9-88.8-8.7V1000h1440V641.8c-28-15.3-56.6-38.2-80.9-38.3
		C1286.2,603.1,1279.7,751.9,1133.8,753.5z"/>
	<path class="st2" d="M980.6,871.1c-0.8,1.1-1.6,2.2-2.4,3.2l0.8,0.6c0.8-1.1,1.6-2.1,2.4-3.2L980.6,871.1L980.6,871.1z
		 M968.7,887.2l0.8,0.6c0.8-1.1,1.6-2.1,2.4-3.2l-0.8-0.6C970.3,885,969.5,886.1,968.7,887.2z M973.5,880.8l0.8,0.6
		c0.8-1.1,1.6-2.1,2.4-3.2l-0.8-0.6C975,878.6,974.2,879.7,973.5,880.8z M982.9,867.9l0.8,0.6c0.8-1.1,1.6-2.1,2.4-3.2l-0.8-0.6
		C984.5,865.7,983.7,866.8,982.9,867.9z M987.7,861.4l0.8,0.6c0.8-1.1,1.6-2.1,2.4-3.2l-0.8-0.6
		C989.3,859.3,988.5,860.4,987.7,861.4z M1082.3,791.3l0.3,1c1.3-0.3,2.6-0.7,3.9-1l-0.2-1C1084.9,790.6,1083.6,790.9,1082.3,791.3z
		 M942,916.7l0.6,0.8c1-0.9,2-1.7,3-2.6L945,914C944,914.9,943,915.8,942,916.7z M992.6,855.1l0.8,0.6c0.8-1,1.6-2.1,2.5-3.1
		l-0.8-0.6C994.2,853,993.4,854,992.6,855.1z M935.7,921.5l0.6,0.8c1.1-0.8,2.2-1.6,3.2-2.4l-0.6-0.8
		C937.8,920,936.8,920.8,935.7,921.5z M963.8,893.5l0.8,0.6c0.8-1,1.7-2.1,2.5-3.2l-0.8-0.6C965.4,891.4,964.6,892.4,963.8,893.5z
		 M958.7,899.6l0.8,0.6c0.9-1,1.7-2,2.6-3.1l-0.8-0.6C960.4,897.6,959.6,898.6,958.7,899.6z M953.4,905.6l0.7,0.7c0.9-1,1.8-2,2.7-3
		l-0.7-0.7C955.2,903.7,954.3,904.6,953.4,905.6z M947.9,911.3l0.7,0.7c1-0.9,1.9-1.9,2.8-2.8l-0.7-0.7
		C949.8,909.5,948.8,910.4,947.9,911.3z M1052.4,802.8l0.5,0.9c1.2-0.6,2.4-1.2,3.6-1.8l-0.4-0.9
		C1054.8,801.6,1053.6,802.2,1052.4,802.8z M1045.4,806.6l0.5,0.9c1.1-0.7,2.3-1.3,3.5-2l-0.5-0.9
		C1047.7,805.3,1046.6,805.9,1045.4,806.6z M1059.7,799.3l0.4,0.9c1.2-0.5,2.4-1.1,3.7-1.6l-0.4-0.9
		C1062.1,798.3,1060.9,798.8,1059.7,799.3z M1074.7,793.6l0.3,1c1.3-0.4,2.5-0.8,3.8-1.2l-0.3-1
		C1077.2,792.8,1075.9,793.2,1074.7,793.6z M1067.1,796.3l0.4,0.9c1.2-0.5,2.5-0.9,3.7-1.4l-0.3-0.9
		C1069.6,795.3,1068.3,795.8,1067.1,796.3z M1038.6,810.8l0.5,0.8c1.1-0.7,2.2-1.4,3.4-2.1l-0.5-0.9
		C1040.8,809.4,1039.7,810.1,1038.6,810.8z M1002.8,842.7l0.8,0.7c0.9-1,1.8-2,2.6-3l-0.7-0.7
		C1004.5,840.7,1003.6,841.7,1002.8,842.7z M1032,815.4l0.6,0.8c1.1-0.8,2.1-1.6,3.2-2.3l-0.6-0.8
		C1034.2,813.8,1033.1,814.6,1032,815.4z M1008.1,836.8l0.7,0.7c0.9-1,1.8-1.9,2.8-2.9l-0.7-0.7
		C1010,834.8,1009.1,835.8,1008.1,836.8z M997.6,848.8l0.8,0.6c0.8-1,1.7-2,2.6-3.1l-0.8-0.6C999.3,846.8,998.4,847.8,997.6,848.8z
		 M1013.7,831l0.7,0.7c0.9-0.9,1.9-1.9,2.9-2.8l-0.7-0.7C1015.7,829.2,1014.7,830.1,1013.7,831z M1019.6,825.5l0.7,0.7
		c1-0.9,2-1.8,3-2.6l-0.7-0.8C1021.6,823.7,1020.6,824.6,1019.6,825.5z M1025.7,820.3l0.6,0.8c1-0.8,2.1-1.7,3.1-2.5l-0.6-0.8
		C1027.7,818.6,1026.7,819.5,1025.7,820.3z M932.4,923.7c-1.1,0.7-2.2,1.4-3.4,2.1l0.5,0.9c1.2-0.7,2.3-1.4,3.4-2.1L932.4,923.7
		L932.4,923.7z M787.3,938h4v-1h-4V938z M795.3,938h4v-1h-4V938z M779.3,938h4v-1h-4V938z M811.3,938h4v-1h-4V938z M771.3,938h4v-1
		h-4V938z M803.3,938h4v-1h-4V938z M755.3,938h4v-1h-4V938z M739.3,938h4v-1h-4V938z M731.3,938h4v-1h-4V938z M747.3,938h4v-1h-4
		V938z M763.3,938h4v-1h-4V938z M819.3,938h4v-1h-4V938z M867.3,938h4v-1h-4V938z M895.3,936.5c-1.3,0.1-2.6,0.2-4,0.3l0.1,1
		c1.4-0.1,2.7-0.2,4-0.3L895.3,936.5L895.3,936.5z M887.3,936.9c-0.7,0-1.3,0-2,0c-0.3,0-0.6,0-0.8,0h-1.1v1h1.1c0.3,0,0.6,0,0.9,0
		c0.7,0,1.4,0,2,0L887.3,936.9L887.3,936.9z M827.3,938h4v-1h-4V938z M918.3,931c-1.2,0.5-2.5,0.9-3.7,1.4l0.3,0.9
		c1.3-0.4,2.5-0.9,3.8-1.4L918.3,931L918.3,931z M907,934.6l0.2,1c1.3-0.3,2.6-0.6,3.9-1l-0.3-1C909.6,933.9,908.3,934.3,907,934.6z
		 M875.3,938h4v-1h-4V938z M899.2,936l0.1,1c1.3-0.2,2.7-0.4,4-0.6l-0.2-1C901.8,935.6,900.5,935.8,899.2,936z M835.3,938h4v-1h-4
		V938z M843.3,938h4v-1h-4V938z M723.3,938h4v-1h-4V938z M922,929.5l0.4,0.9c1.2-0.6,2.4-1.1,3.6-1.8l-0.5-0.9
		C924.4,928.3,923.2,928.9,922,929.5z M859.3,938h4v-1h-4V938z M851.3,938h4v-1h-4V938z M1090.1,789.4l0.2,1
		c1.3-0.3,2.6-0.6,3.9-0.8l-0.2-1C1092.7,788.8,1091.4,789.1,1090.1,789.4z M1332.1,671.5l0.4,0.9c1.2-0.6,2.4-1.1,3.6-1.5l-0.4-0.9
		C1334.5,670.4,1333.3,670.9,1332.1,671.5z M1318.3,679.7l0.6,0.8c1.1-0.8,2.2-1.6,3.3-2.3l-0.6-0.8
		C1320.5,678.2,1319.4,678.9,1318.3,679.7z M1325,675.3l0.5,0.9c1.1-0.7,2.3-1.3,3.4-2l-0.5-0.9
		C1327.3,673.9,1326.1,674.6,1325,675.3z M1339.5,668.6l0.3,1c1.3-0.4,2.5-0.8,3.8-1.1l-0.2-1
		C1342.1,667.8,1340.8,668.2,1339.5,668.6z M1343.4,667.5L1343.4,667.5C1343.4,667.5,1343.4,667.5,1343.4,667.5L1343.4,667.5z
		 M1272.6,724.5l0.7,0.7c0.9-1,1.9-1.9,2.8-2.9l-0.7-0.7C1274.5,722.6,1273.5,723.6,1272.6,724.5z M1289.2,707.2l0.7,0.7
		c0.9-1,1.8-1.9,2.7-2.9l-0.7-0.7C1291,705.2,1290.1,706.2,1289.2,707.2z M1283.7,713l0.7,0.7c0.9-1,1.8-1.9,2.7-2.9l-0.7-0.7
		C1285.5,711.1,1284.6,712,1283.7,713z M1278.2,718.8l0.7,0.7c0.9-1,1.9-1.9,2.8-2.9l-0.7-0.7C1280,716.9,1279.1,717.8,1278.2,718.8
		z M1300.3,695.6l0.7,0.7c0.9-0.9,1.9-1.9,2.8-2.8l-0.7-0.7C1302.2,693.7,1301.2,694.7,1300.3,695.6z M1306,690l0.7,0.7
		c1-0.9,2-1.8,2.9-2.7l-0.7-0.7C1308,688.2,1307,689.1,1306,690z M1297.5,698.5c-0.9,0.9-1.9,1.9-2.8,2.9l0.7,0.7
		c0.9-1,1.9-1.9,2.8-2.9L1297.5,698.5L1297.5,698.5z M1347.3,666.7l0.2,1c1.3-0.2,2.6-0.4,3.9-0.6l-0.1-1
		C1350,666.2,1348.7,666.4,1347.3,666.7z M1426.4,658.6l0.3,0.9c1.3-0.4,2.5-0.9,3.8-1.4l-0.4-0.9
		C1428.9,657.7,1427.6,658.1,1426.4,658.6z M1418.8,661l0.3,1c1.3-0.4,2.6-0.7,3.9-1.1l-0.3-1C1421.3,660.2,1420.1,660.6,1418.8,661
		z M1411,662.8l0.2,1c1.3-0.3,2.6-0.6,3.9-0.9l-0.2-1C1413.6,662.3,1412.3,662.5,1411,662.8z M1437.4,654L1437.4,654
		C1437.4,654,1437.4,654,1437.4,654L1437.4,654z M1437.4,654c-1.2,0.6-2.4,1.1-3.6,1.7l0.4,0.9c1.2-0.5,2.4-1.1,3.6-1.7L1437.4,654z
		 M1403.2,664.2l0.1,1c1.3-0.2,2.6-0.4,4-0.6l-0.2-1C1405.8,663.8,1404.5,664,1403.2,664.2z M1379.3,665.8l0,1c1.3,0,2.7,0,4-0.1
		l0-1C1382,665.8,1380.7,665.8,1379.3,665.8z M1363.3,666.8c1.3,0,2.7,0,4,0.1l0-1c-1.3,0-2.7,0-4-0.1L1363.3,666.8z M1374.3,665.9
		c-1,0-2,0-3,0l0,1c1,0,2,0,3,0c0.3,0,0.7,0,1,0l0-1C1375,665.9,1374.7,665.9,1374.3,665.9z M1387.3,665.6l0,1
		c1.3-0.1,2.7-0.1,4-0.2l-0.1-1C1390,665.5,1388.6,665.5,1387.3,665.6z M1358.4,665.7c-1,0-2,0-3,0.1l0,1c1,0,2-0.1,3-0.1
		c0.2,0,0.5,0,0.7,0c0.1,0,0.1,0,0.2,0l0-1c-0.1,0-0.1,0-0.2,0C1358.9,665.7,1358.6,665.7,1358.4,665.7z M1395.3,665.1l0.1,1
		c1.3-0.1,2.7-0.3,4-0.4l-0.1-1C1397.9,664.8,1396.6,665,1395.3,665.1z M1312,684.7l0.6,0.8c1-0.9,2-1.7,3.1-2.5l-0.6-0.8
		C1314.1,683,1313,683.8,1312,684.7z M1137.8,784.2l0,1c1.3,0,2.7-0.1,4-0.2l-0.1-1C1140.5,784.1,1139.1,784.1,1137.8,784.2z
		 M1153.7,783.1l0.1,1c1.3-0.1,2.7-0.3,4-0.4l-0.1-1C1156.4,782.8,1155,782.9,1153.7,783.1z M1145.8,783.7l0.1,1
		c1.3-0.1,2.7-0.2,4-0.3l-0.1-1C1148.4,783.6,1147.1,783.7,1145.8,783.7z M1161.6,782.1l0.1,1c1.3-0.2,2.7-0.4,4-0.6l-0.2-1
		C1164.3,781.8,1163,781.9,1161.6,782.1z M1266.9,730.1l0.7,0.7c1-0.9,1.9-1.9,2.9-2.8l-0.7-0.7
		C1268.8,728.3,1267.9,729.2,1266.9,730.1z M1169.5,780.9l0.2,1c1.3-0.2,2.6-0.5,3.9-0.7l-0.2-1
		C1172.1,780.4,1170.8,780.7,1169.5,780.9z M1177.3,779.4l0.2,1c1.3-0.3,2.6-0.6,3.9-0.9l-0.2-1
		C1179.9,778.8,1178.6,779.1,1177.3,779.4z M1101.9,787.1c-1.3,0.2-2.6,0.4-3.9,0.7l0.2,1c1.3-0.2,2.6-0.5,3.9-0.7L1101.9,787.1
		L1101.9,787.1z M1105.9,786.5l0.1,1c1.3-0.2,2.6-0.4,4-0.5l-0.1-1C1108.5,786.1,1107.2,786.3,1105.9,786.5z M1113.8,785.5l0.1,1
		c1.3-0.1,2.6-0.3,4-0.4l-0.1-1C1116.5,785.3,1115.1,785.4,1113.8,785.5z M1121.8,784.8l0.1,1c1.3-0.1,2.6-0.2,4-0.2l-0.1-1
		C1124.4,784.7,1123.1,784.7,1121.8,784.8z M1133.8,784.3c-1.3,0-2.7,0.1-4,0.1l0,1c1.3,0,2.6-0.1,4-0.1L1133.8,784.3L1133.8,784.3z
		 M1185.1,777.5l0.3,1c1.3-0.3,2.6-0.7,3.9-1.1l-0.3-1C1187.7,776.8,1186.4,777.2,1185.1,777.5z M1242.5,750.6l0.6,0.8
		c1.1-0.8,2.2-1.6,3.2-2.4l-0.6-0.8C1244.6,749.1,1243.6,749.9,1242.5,750.6z M1252,743.4c-1,0.8-2.1,1.7-3.1,2.5l0.6,0.8
		c1.1-0.8,2.1-1.7,3.1-2.5L1252,743.4L1252,743.4z M1235.9,755.1l0.5,0.8c1.1-0.7,2.2-1.5,3.3-2.2l-0.6-0.8
		C1238.1,753.7,1237,754.4,1235.9,755.1z M1255.1,740.8l0.6,0.8c1-0.9,2-1.7,3-2.6l-0.7-0.8C1257.1,739.1,1256.1,740,1255.1,740.8z
		 M1196.5,774.1L1196.5,774.1L1196.5,774.1L1196.5,774.1z M1261.1,735.6l0.7,0.7c1-0.9,2-1.8,3-2.7l-0.7-0.7
		C1263,733.8,1262.1,734.7,1261.1,735.6z M1229.1,759.4l0.5,0.9c1.2-0.7,2.3-1.4,3.4-2.1l-0.5-0.8
		C1231.4,758,1230.3,758.7,1229.1,759.4z M1200.3,772.8l0.3,0.9c1.3-0.5,2.5-0.9,3.8-1.4l-0.4-0.9
		C1202.8,771.9,1201.6,772.4,1200.3,772.8z M1192.7,775.3l0.3,1c1.3-0.4,2.6-0.8,3.8-1.2l-0.3-0.9
		C1195.3,774.5,1194,775,1192.7,775.3z M1207.8,770l0.4,0.9c1.2-0.5,2.5-1,3.7-1.6l-0.4-0.9C1210.2,768.9,1209,769.5,1207.8,770z
		 M1222.2,763.2l0.5,0.9c1.2-0.6,2.4-1.3,3.5-1.9l-0.5-0.9C1224.5,762,1223.4,762.6,1222.2,763.2z M1215,766.8l0.4,0.9
		c1.2-0.6,2.4-1.1,3.6-1.7l-0.4-0.9C1217.5,765.6,1216.3,766.2,1215,766.8z M563.3,937l0,1c0.1,0,0.1,0,0.2,0h3.8v-1h-3.8
		C563.4,937,563.4,937,563.3,937z M221.2,760.7L221.2,760.7L221.2,760.7L221.2,760.7z M224.2,763.5c1.2,0.6,2.4,1.2,3.6,1.9l0.5-0.9
		c-1.2-0.6-2.4-1.2-3.5-1.8L224.2,763.5z M217.2,759.6c1.1,0.7,2.3,1.4,3.5,2l0.5-0.9c-1.2-0.7-2.3-1.3-3.4-2L217.2,759.6z
		 M235.4,767.9L235.4,767.9L235.4,767.9L235.4,767.9z M231.3,767.1c1.2,0.6,2.4,1.1,3.6,1.7l0.4-0.9c-1.2-0.5-2.4-1.1-3.6-1.7
		L231.3,767.1z M210.4,755.3c1.1,0.7,2.2,1.5,3.4,2.2l0.5-0.8c-1.1-0.7-2.2-1.4-3.3-2.2L210.4,755.3z M203.9,750.7
		c1.1,0.8,2.2,1.6,3.3,2.3l0.6-0.8c-1.1-0.8-2.2-1.5-3.2-2.3L203.9,750.7z M179.4,730c1,0.9,1.9,1.8,2.9,2.8l0.7-0.7
		c-1-0.9-1.9-1.8-2.9-2.8L179.4,730z M238.7,770.4c1.2,0.5,2.5,1,3.7,1.5l0.4-0.9c-1.2-0.5-2.5-1-3.7-1.5L238.7,770.4z M185.3,735.5
		c1,0.9,2,1.8,3,2.7l0.7-0.7c-1-0.9-2-1.8-3-2.7L185.3,735.5z M173.8,724.3c0.9,0.9,1.9,1.9,2.8,2.8l0.7-0.7c-1-0.9-1.9-1.9-2.8-2.8
		L173.8,724.3z M197.5,745.9c1,0.8,2.1,1.6,3.2,2.5l0.6-0.8c-1.1-0.8-2.1-1.6-3.1-2.4L197.5,745.9z M191.3,740.8
		c1,0.9,2,1.7,3.1,2.6l0.6-0.8c-1-0.9-2.1-1.7-3.1-2.6L191.3,740.8z M277,781.7c1.3,0.2,2.6,0.5,3.9,0.7l0.2-1
		c-1.3-0.2-2.6-0.4-3.9-0.7L277,781.7z M308.9,785.1c1.3,0.1,2.7,0.1,4,0.1l0-1h0c-1.3,0-2.7-0.1-4-0.1L308.9,785.1z M300.9,784.7
		c1.3,0.1,2.7,0.2,4,0.3l0.1-1c-1.3-0.1-2.7-0.2-4-0.3L300.9,784.7z M316.9,785.4c1.3,0,2.7,0.1,4,0.2l0-1c-1.3-0.1-2.7-0.1-4-0.2
		L316.9,785.4z M332.8,786.4c1.3,0.1,2.7,0.3,4,0.4l0.1-1c-1.3-0.2-2.6-0.3-4-0.4L332.8,786.4z M292.9,783.9c1.3,0.1,2.6,0.3,4,0.4
		l0.1-1h0c-1.3-0.1-2.7-0.3-4-0.4L292.9,783.9z M324.8,785.7c1.3,0.1,2.7,0.2,4,0.3l0.1-1h0c-1.3-0.1-2.7-0.2-4-0.3L324.8,785.7z
		 M269.2,780.1c1.3,0.3,2.6,0.6,3.9,0.8l0.2-1c-1.3-0.3-2.6-0.5-3.9-0.8L269.2,780.1z M253.7,775.9c1.3,0.4,2.5,0.8,3.8,1.2l0.3-1
		c-1.3-0.4-2.6-0.8-3.8-1.2L253.7,775.9z M261.4,778.2c1.3,0.3,2.6,0.7,3.9,1l0.2-1c-1.3-0.3-2.6-0.7-3.9-1L261.4,778.2z
		 M168.2,718.6c0.9,1,1.8,1.9,2.8,2.9l0.7-0.7c-0.9-1-1.9-1.9-2.8-2.9L168.2,718.6z M246.5,772.4l-0.3,0.9c1.2,0.5,2.5,0.9,3.8,1.3
		l0.3-0.9h0C249,773.3,247.7,772.9,246.5,772.4z M284.9,782.9c1.3,0.2,2.6,0.4,4,0.5l0.1-1c-1.3-0.2-2.6-0.3-4-0.5L284.9,782.9z
		 M83.3,665.8l0,1c1.3,0,2.7,0,4-0.1l0-1C86,665.8,84.7,665.8,83.3,665.8z M59.3,666.5c1.3,0.1,2.7,0.1,4,0.2l0-1
		c-1.3,0-2.7-0.1-4-0.2L59.3,666.5z M51.3,666c1.3,0.1,2.7,0.2,4,0.3l0.1-1c-1.3-0.1-2.6-0.2-4-0.3L51.3,666z M35.5,663.5
		c1.3,0.3,2.6,0.5,3.9,0.8l0.2-1c-1.3-0.2-2.6-0.5-3.9-0.8L35.5,663.5z M43.4,665c1.3,0.2,2.7,0.4,4,0.5l0.1-1
		c-1.3-0.2-2.6-0.3-3.9-0.5L43.4,665z M67.3,666.8c1.3,0,2.7,0,4,0l0-1c-1.3,0-2.7,0-4,0L67.3,666.8z M75.3,665.9l0,1
		c1.3,0,2.7,0,4,0l0-1C78,665.9,76.7,665.9,75.3,665.9z M12.6,656c1.2,0.6,2.5,1.1,3.7,1.6l0.4-0.9v0c-1.2-0.5-2.4-1-3.6-1.6
		L12.6,656z M0,649.2c0.7,0.4,1.3,0.8,2,1.2l0.5-0.9c-0.8-0.5-1.7-1-2.5-1.6V649.2z M5.4,652.4c1.2,0.7,2.4,1.3,3.5,1.9l0.5-0.9
		c-1.2-0.6-2.3-1.2-3.5-1.9L5.4,652.4z M340.9,786.3l-0.1,1c1.3,0.2,2.6,0.4,3.9,0.6l0.2-1h0C343.5,786.7,342.2,786.5,340.9,786.3z
		 M27.7,661.6c1.3,0.4,2.6,0.7,3.9,1l0.2-1c-1.3-0.3-2.6-0.7-3.8-1L27.7,661.6z M20,659.1c1.3,0.5,2.5,0.9,3.8,1.3l0.3-0.9v0
		c-1.3-0.4-2.5-0.8-3.8-1.3L20,659.1z M106.9,669.2c1.3,0.4,2.5,0.8,3.8,1.2l0.3-0.9c-1.3-0.5-2.5-0.9-3.8-1.3L106.9,669.2z
		 M128.1,679.8c1.1,0.8,2.1,1.6,3.2,2.4l0.6-0.8c-1.1-0.8-2.1-1.6-3.2-2.4L128.1,679.8z M91.3,666.7c1.3,0,2.7,0.1,4,0.2l0.1-1
		c-1.3-0.1-2.7-0.2-4-0.2L91.3,666.7z M146.1,695.4c0.9,0.9,1.9,1.9,2.8,2.8l0.7-0.7h0c-0.9-1-1.9-1.9-2.8-2.8L146.1,695.4z
		 M140.3,689.9c1,0.9,1.9,1.8,2.9,2.7l0.7-0.7c-1-0.9-1.9-1.9-2.9-2.8L140.3,689.9z M157.2,706.9c0.9,1,1.8,1.9,2.7,2.9l0.7-0.7
		c-0.9-1-1.8-1.9-2.7-2.9L157.2,706.9z M151.7,701.1c0.9,1,1.8,1.9,2.8,2.9l0.7-0.7h0c-0.9-1-1.8-1.9-2.8-2.9L151.7,701.1z
		 M134.3,684.7c1,0.8,2,1.7,3,2.6l0.7-0.8h0c-1-0.9-2-1.8-3-2.6L134.3,684.7z M715.3,938h4v-1h-4V938z M162.7,712.8
		c0.9,1,1.8,1.9,2.7,2.9l0.7-0.7c-0.9-1-1.8-1.9-2.7-2.9L162.7,712.8z M99.2,667.4c1.3,0.2,2.6,0.4,3.9,0.7l0.2-1h0
		c-1.3-0.3-2.6-0.5-3.9-0.7L99.2,667.4z M121.4,675.5c1.1,0.7,2.3,1.4,3.4,2.1l0.5-0.8c-1.1-0.7-2.3-1.4-3.4-2.1L121.4,675.5z
		 M114.3,671.9c1.2,0.5,2.4,1.1,3.6,1.7l0.5-0.9c-1.2-0.6-2.4-1.2-3.6-1.7L114.3,671.9z M125.3,676.7L125.3,676.7L125.3,676.7
		C125.3,676.7,125.3,676.7,125.3,676.7z M587.3,938h4v-1h-4V938z M579.3,938h4v-1h-4V938z M571.3,938h4v-1h-4V938z M603.3,938h4v-1
		h-4V938z M555.3,937.7c1.3,0.1,2.6,0.2,4,0.2l0-1c-1.3,0-2.7-0.1-4-0.2L555.3,937.7z M595.3,938h4v-1h-4V938z M547.5,935.8l-0.2,1
		c1.3,0.2,2.6,0.4,4,0.5l0.1-1h0C550.1,936.2,548.8,936,547.5,935.8z M611.3,938h4v-1h-4V938z M517.3,926c1.1,0.7,2.3,1.4,3.5,2
		l0.5-0.9c-1.2-0.6-2.3-1.3-3.5-2L517.3,926z M510.7,921.6c1.1,0.8,2.2,1.6,3.3,2.3l0.6-0.8c-1.1-0.7-2.2-1.5-3.2-2.3L510.7,921.6z
		 M524.4,929.8c1.2,0.6,2.4,1.1,3.7,1.6l0.4-0.9c-1.2-0.5-2.4-1.1-3.6-1.6L524.4,929.8z M539.5,935.3c1.3,0.3,2.6,0.6,3.9,0.9l0.2-1
		c-1.3-0.3-2.6-0.6-3.9-0.9L539.5,935.3z M504.4,916.6c1,0.9,2,1.7,3.1,2.6l0.6-0.8c-1-0.8-2.1-1.7-3.1-2.5L504.4,916.6z
		 M531.8,932.9c1.2,0.4,2.5,0.9,3.8,1.3l0.3-1c-1.3-0.4-2.5-0.8-3.8-1.2L531.8,932.9z M683.3,938h4v-1h-4V938z M667.3,938h4v-1h-4
		V938z M691.3,938h4v-1h-4V938z M675.3,938h4v-1h-4V938z M699.3,938h4v-1h-4V938z M619.3,938h4v-1h-4V938z M707.3,938h4v-1h-4V938z
		 M635.3,938h4v-1h-4V938z M627.3,938h4v-1h-4V938z M651.3,938h4v-1h-4V938z M643.3,938h4v-1h-4V938z M659.3,938h4v-1h-4V938z
		 M468.2,873.9c0.8,1.1,1.6,2.2,2.4,3.2l0.8-0.6c-0.8-1.1-1.6-2.1-2.4-3.2L468.2,873.9z M393.9,803.1c1.2,0.6,2.4,1.2,3.5,1.8
		l0.5-0.9c-1.2-0.6-2.4-1.2-3.6-1.8L393.9,803.1z M407.8,811c1.1,0.7,2.2,1.5,3.3,2.2l0.6-0.8c-1.1-0.7-2.2-1.5-3.3-2.2L407.8,811z
		 M432.6,830.8c1,0.9,1.9,1.9,2.8,2.8l0.7-0.7c-0.9-0.9-1.9-1.9-2.8-2.8L432.6,830.8z M414.3,815.5c1.1,0.8,2.1,1.6,3.2,2.4l0.6-0.8
		c-1.1-0.8-2.1-1.6-3.2-2.4L414.3,815.5z M426.8,825.4c1,0.9,2,1.8,3,2.7l0.7-0.7c-1-0.9-2-1.8-3-2.7L426.8,825.4z M420.7,820.3
		c1,0.8,2.1,1.7,3.1,2.5l0.6-0.8c-1-0.9-2-1.7-3.1-2.6L420.7,820.3z M401,806.8c1.2,0.7,2.3,1.3,3.4,2l0.5-0.9
		c-1.1-0.7-2.3-1.4-3.5-2L401,806.8z M364.2,791.9c1.3,0.3,2.6,0.7,3.8,1.1l0.3-1c-1.3-0.4-2.6-0.7-3.9-1.1L364.2,791.9z
		 M386.7,799.7c1.2,0.5,2.4,1.1,3.6,1.6l0.4-0.9h0c-1.2-0.6-2.4-1.1-3.7-1.6L386.7,799.7z M356.4,790.1c1.3,0.3,2.6,0.6,3.9,0.9
		l0.2-1c-1.3-0.3-2.6-0.6-3.9-0.9L356.4,790.1z M379.3,796.8c1.3,0.5,2.5,0.9,3.7,1.4l0.4-0.9c-1.2-0.5-2.5-1-3.7-1.5L379.3,796.8z
		 M371.8,794.2c1.3,0.4,2.5,0.8,3.8,1.3l0.3-0.9c-1.3-0.4-2.5-0.9-3.8-1.3L371.8,794.2z M487.7,899.3c0.9,1,1.7,2,2.6,3l0.8-0.7
		c-0.9-1-1.7-2-2.6-3L487.7,899.3z M477.7,886.7c0.8,1.1,1.6,2.1,2.4,3.2l0.8-0.6c-0.8-1.1-1.6-2.1-2.4-3.2L477.7,886.7z
		 M482.6,893.1c0.8,1.1,1.7,2.1,2.5,3.1l0.8-0.6c-0.8-1-1.7-2.1-2.5-3.1L482.6,893.1z M472.9,880.3c0.8,1.1,1.6,2.2,2.4,3.2l0.8-0.6
		c-0.8-1.1-1.6-2.1-2.4-3.2L472.9,880.3z M348.6,788.5c1.3,0.2,2.6,0.5,3.9,0.7l0.2-1c-1.3-0.3-2.6-0.5-3.9-0.7L348.6,788.5z
		 M498.5,911.1c1,0.9,1.9,1.9,2.9,2.8l0.7-0.7c-1-0.9-1.9-1.8-2.9-2.7L498.5,911.1z M492.9,905.4c0.9,1,1.8,2,2.7,2.9l0.7-0.7
		c-0.9-1-1.8-1.9-2.7-2.9L492.9,905.4z M463.5,867.4c0.8,1.1,1.6,2.1,2.4,3.2l0.8-0.6c-0.8-1.1-1.6-2.1-2.4-3.2L463.5,867.4z
		 M438.2,836.5c0.9,1,1.8,1.9,2.7,2.9l0.7-0.7c-0.9-1-1.8-2-2.7-2.9L438.2,836.5z M443.6,842.4c0.9,1,1.8,2,2.6,3l0.8-0.6
		c-0.9-1-1.7-2-2.6-3L443.6,842.4z M448.8,848.5c0.9,1,1.7,2.1,2.5,3.1l0.8-0.6c-0.8-1-1.7-2.1-2.5-3.1L448.8,848.5z M453.8,854.7
		c0.8,1,1.6,2.1,2.5,3.2l0.8-0.6c-0.8-1.1-1.6-2.1-2.5-3.2L453.8,854.7z M458.7,861c0.8,1.1,1.6,2.1,2.4,3.2l0.8-0.6
		c-0.8-1.1-1.6-2.1-2.4-3.2L458.7,861z"/>
	<path class="st2" d="M982.9,637.5l0.9,0.4c0.5-1.2,1-2.5,1.4-3.7l-0.9-0.4C983.8,635,983.3,636.3,982.9,637.5z M980,645l0.9,0.4
		c0.5-1.2,1-2.5,1.4-3.7l-0.9-0.4C980.9,642.5,980.5,643.7,980,645z M974.3,659.9l0.9,0.4c0.5-1.2,1-2.5,1.4-3.7l-0.9-0.4
		C975.2,657.5,974.7,658.7,974.3,659.9z M993.2,611.4L993.2,611.4L993.2,611.4L993.2,611.4z M1052.6,512.5l0.7,0.7
		c1-0.9,1.9-1.8,2.9-2.7l-0.7-0.7C1054.5,510.7,1053.6,511.6,1052.6,512.5z M991.6,615.2l0.9,0.4c0.5-1.2,1-2.5,1.5-3.7l-0.9-0.4
		C992.7,612.7,992.1,613.9,991.6,615.2z M990.2,618.9L990.2,618.9L990.2,618.9L990.2,618.9z M988.7,622.6l0.9,0.4
		c0.5-1.2,1-2.5,1.5-3.7l-0.9-0.4C989.7,620.1,989.2,621.4,988.7,622.6z M985.7,630l0.9,0.4c0.5-1.2,1-2.5,1.5-3.7l-0.9-0.4
		C986.7,627.6,986.2,628.8,985.7,630z M956,704.3l0.9,0.4c0.6-1.2,1.1-2.4,1.7-3.6l-0.9-0.4C957.1,701.9,956.6,703.1,956,704.3z
		 M971.4,667.4l0.9,0.4c0.5-1.2,1-2.5,1.4-3.7l-0.9-0.4C972.4,664.9,971.9,666.2,971.4,667.4z M952.6,711.5l0.9,0.4
		c0.6-1.2,1.2-2.4,1.7-3.6l-0.9-0.4C953.7,709.2,953.2,710.4,952.6,711.5z M960.9,693.4c-0.5,1.2-1.1,2.5-1.6,3.7l0.9,0.4
		c0.5-1.2,1.1-2.4,1.6-3.7L960.9,693.4L960.9,693.4z M968.5,674.9l0.9,0.4c0.5-1.2,1-2.5,1.5-3.7l-0.9-0.4
		C969.4,672.4,969,673.6,968.5,674.9z M965.5,682.3l0.9,0.4c0.5-1.2,1-2.5,1.5-3.7l-0.9-0.4C966.5,679.8,966,681.1,965.5,682.3z
		 M949,718.7l0.9,0.5c0.6-1.2,1.2-2.4,1.8-3.6l-0.9-0.5C950.2,716.3,949.6,717.5,949,718.7z M962.4,689.7l0.9,0.4
		c0.5-1.2,1-2.5,1.5-3.7L964,686C963.5,687.2,963,688.5,962.4,689.7z M1027.4,543.6l0.8,0.5c0.7-1.1,1.5-2.2,2.2-3.3l-0.8-0.6
		C1028.9,541.3,1028.1,542.5,1027.4,543.6z M1031.9,537l0.8,0.6c0.8-1.1,1.6-2.2,2.3-3.2l-0.8-0.6
		C1033.5,534.8,1032.7,535.9,1031.9,537z M1023.1,550.3l0.9,0.5c0.7-1.1,1.4-2.3,2.1-3.4l-0.8-0.5
		C1024.5,548.1,1023.8,549.2,1023.1,550.3z M1041.7,524.3l0.8,0.6c0.9-1,1.7-2,2.6-3l-0.7-0.7
		C1043.4,522.2,1042.6,523.2,1041.7,524.3z M1047,518.3l0.7,0.7c0.9-1,1.8-1.9,2.7-2.9l-0.7-0.7
		C1048.8,516.3,1047.9,517.3,1047,518.3z M1039.1,527.4c-0.8,1-1.7,2.1-2.5,3.2l0.8,0.6c0.8-1.1,1.6-2.1,2.5-3.1L1039.1,527.4
		L1039.1,527.4z M1021,553.8c-0.7,1.1-1.4,2.3-2,3.5l0.9,0.5c0.7-1.2,1.3-2.3,2-3.5L1021,553.8L1021,553.8z M1013.2,567.8
		c-0.6,1.2-1.2,2.4-1.8,3.6l0.9,0.5c0.6-1.2,1.2-2.4,1.8-3.5L1013.2,567.8L1013.2,567.8z M999.4,596.7L999.4,596.7L999.4,596.7
		L999.4,596.7z M997.8,600.3l0.9,0.4c0.5-1.2,1.1-2.4,1.6-3.7l-0.9-0.4C998.9,597.9,998.3,599.1,997.8,600.3z M1001,593l0.9,0.4
		c0.5-1.2,1.1-2.4,1.6-3.6l-0.9-0.4C1002.1,590.6,1001.6,591.8,1001,593z M1007.8,578.5l0.9,0.4c0.6-1.2,1.2-2.4,1.8-3.6l-0.9-0.4
		C1009,576.1,1008.4,577.3,1007.8,578.5z M1006,582.1c-0.6,1.2-1.1,2.4-1.7,3.6l0.9,0.4c0.6-1.2,1.1-2.4,1.7-3.6L1006,582.1
		L1006,582.1z M994.7,607.7l0.9,0.4c0.5-1.2,1-2.5,1.5-3.7l-0.9-0.4C995.7,605.3,995.2,606.5,994.7,607.7z M1015.1,564.2l0.9,0.5
		c0.6-1.2,1.3-2.3,1.9-3.5l-0.9-0.5C1016.4,561.9,1015.7,563.1,1015.1,564.2z M978.6,648.7c-0.5,1.2-1,2.5-1.4,3.7l0.9,0.4
		c0.5-1.2,1-2.5,1.4-3.7L978.6,648.7L978.6,648.7z M812.4,771.1h4v-1h-4V771.1z M804.4,771.1h4v-1h-4V771.1z M780.4,771.1h4v-1h-4
		V771.1z M788.4,771.1h4v-1h-4V771.1z M796.4,771.1h4v-1h-4V771.1z M820.4,771.1h4v-1h-4V771.1z M836.4,771.1h4v-1h-4V771.1z
		 M828.4,771.1h4v-1h-4V771.1z M844.4,771.1h4v-1h-4V771.1z M772.4,771.1h4v-1h-4V771.1z M724.4,771.1h4v-1h-4V771.1z M740.4,771.1
		h4v-1h-4V771.1z M732.4,771.1h4v-1h-4V771.1z M748.4,771.1h4v-1h-4V771.1z M764.4,771.1h4v-1h-4V771.1z M756.4,771.1h4v-1h-4V771.1
		z M852.4,771.1h4v-1h-4V771.1z M947.1,722.2c-0.6,1.2-1.3,2.3-2,3.5l0.9,0.5c0.7-1.1,1.3-2.3,2-3.5L947.1,722.2L947.1,722.2z
		 M914.3,761.5l0.5,0.8c1.1-0.7,2.2-1.5,3.3-2.3l-0.6-0.8C916.5,760,915.4,760.8,914.3,761.5z M708.4,771.1h4v-1h-4V771.1z
		 M920.7,756.8l0.6,0.8c1-0.9,2-1.7,3-2.7l-0.7-0.7C922.7,755.1,921.7,755.9,920.7,756.8z M943.1,729.1L943.1,729.1L943.1,729.1
		L943.1,729.1z M938.8,735.8c-0.7,1.1-1.5,2.2-2.3,3.3l0.8,0.6c0.8-1.1,1.5-2.2,2.3-3.3L938.8,735.8L938.8,735.8z M941,732.5
		l0.8,0.5c0.7-1.1,1.4-2.3,2.1-3.4l-0.9-0.5C942.4,730.3,941.7,731.4,941,732.5z M926.5,751.4l0.7,0.7c0.9-1,1.8-1.9,2.7-2.9
		l-0.7-0.7C928.3,749.5,927.4,750.4,926.5,751.4z M868.4,771.1h4v-1h-4V771.1z M876.4,771.1h4v-1h-4V771.1z M860.4,771.1h4v-1h-4
		V771.1z M892.3,769.6l0.1,1c1.3-0.2,2.7-0.4,4-0.7l-0.2-1C895,769.3,893.7,769.5,892.3,769.6z M900.1,768l0.3,1
		c1.3-0.4,2.6-0.8,3.8-1.3l-0.4-0.9C902.6,767.3,901.3,767.7,900.1,768z M907.4,765.3l0.4,0.9c1.2-0.6,2.4-1.2,3.6-1.8l-0.5-0.9
		C909.8,764.1,908.6,764.7,907.4,765.3z M885.3,770.1c-0.3,0-0.6,0-0.8,0h0v1h0c0.3,0,0.6,0,0.8,0c1.1,0,2.1,0,3.2-0.1l-0.1-1
		C887.4,770.1,886.4,770.1,885.3,770.1z M934.2,742.3c-0.8,1.1-1.6,2.1-2.5,3.1l0.8,0.6c0.8-1,1.7-2.1,2.5-3.1L934.2,742.3
		L934.2,742.3z M1304.7,298.9l0.9,0.5c0.6-1.2,1.3-2.3,1.9-3.5l-0.9-0.5C1305.9,296.5,1305.3,297.7,1304.7,298.9z M1302.7,302.4
		c-0.6,1.2-1.3,2.3-1.9,3.5l0.9,0.5c0.6-1.2,1.2-2.4,1.9-3.5L1302.7,302.4L1302.7,302.4z M1308.6,291.9l0.9,0.5
		c0.7-1.2,1.4-2.3,2-3.4l-0.9-0.5C1309.9,289.6,1309.3,290.7,1308.6,291.9z M1297.2,313.1l0.9,0.5c0.6-1.2,1.2-2.4,1.8-3.6l-0.9-0.5
		C1298.4,310.7,1297.8,311.9,1297.2,313.1z M1293.6,320.2l0.9,0.4c0.6-1.2,1.2-2.4,1.8-3.6l-0.9-0.4
		C1294.8,317.8,1294.2,319,1293.6,320.2z M1321.9,271.8l0.8,0.6c0.8-1.1,1.7-2.1,2.5-3.1l-0.8-0.6
		C1323.6,269.7,1322.7,270.8,1321.9,271.8z M1310.6,288.4L1310.6,288.4C1310.6,288.4,1310.6,288.4,1310.6,288.4L1310.6,288.4z
		 M1264.7,377.3l0.9,0.5c0.6-1.2,1.3-2.3,1.9-3.5l-0.9-0.5C1266,375,1265.3,376.1,1264.7,377.3z M1317.1,278.3l0.8,0.6
		c0.8-1.1,1.5-2.2,2.3-3.2l-0.8-0.6C1318.7,276.1,1317.9,277.2,1317.1,278.3z M1272.2,363.2l0.9,0.5c0.6-1.2,1.2-2.4,1.8-3.6
		l-0.9-0.5C1273.4,360.9,1272.8,362,1272.2,363.2z M1290.1,327.4l0.9,0.4c0.6-1.2,1.2-2.4,1.8-3.6l-0.9-0.4
		C1291.2,325,1290.7,326.2,1290.1,327.4z M1275.9,356.1l0.9,0.5c0.6-1.2,1.2-2.4,1.8-3.6l-0.9-0.4
		C1277.1,353.7,1276.5,354.9,1275.9,356.1z M1270.4,366.8c-0.6,1.2-1.2,2.3-1.9,3.5l0.9,0.5c0.6-1.2,1.3-2.4,1.9-3.5L1270.4,366.8
		L1270.4,366.8z M1279.5,349l0.9,0.4c0.6-1.2,1.2-2.4,1.8-3.6l-0.9-0.4C1280.7,346.6,1280.1,347.8,1279.5,349z M1286.5,334.6
		l0.9,0.4c0.6-1.2,1.2-2.4,1.8-3.6l-0.9-0.4C1287.7,332.2,1287.1,333.4,1286.5,334.6z M1283,341.8l0.9,0.4c0.6-1.2,1.2-2.4,1.8-3.6
		l-0.9-0.4C1284.2,339.4,1283.6,340.6,1283,341.8z M1312.7,285l0.8,0.5c0.7-1.1,1.4-2.3,2.2-3.4l-0.8-0.5
		C1314.2,282.8,1313.4,283.9,1312.7,285z M1402.1,247.2l0.3,1c1.3-0.3,2.6-0.7,3.9-1.1l-0.3-1
		C1404.7,246.6,1403.4,246.9,1402.1,247.2z M1394.4,248.9l0.2,1c1.3-0.2,2.6-0.5,4-0.7l-0.2-1C1397,248.4,1395.7,248.7,1394.4,248.9
		z M1409.7,244.9l0.3,0.9c1.2-0.5,2.5-1,3.7-1.5l-0.4-0.9C1412.2,243.9,1410.9,244.4,1409.7,244.9z M1427.2,235.6
		c-1.1,0.8-2.2,1.5-3.3,2.2l0.5,0.8c1.1-0.7,2.2-1.4,3.3-2.2L1427.2,235.6L1427.2,235.6z M1417,241.7l0.4,0.9
		c1.2-0.6,2.4-1.2,3.6-1.9l-0.5-0.9C1419.3,240.5,1418.2,241.1,1417,241.7z M1430.4,233.3l0.6,0.8c1-0.8,2.1-1.6,3.1-2.5l-0.6-0.8
		C1432.5,231.7,1431.4,232.5,1430.4,233.3z M1327.1,265.7l0.7,0.7c0.9-1,1.8-1.9,2.8-2.8l-0.7-0.7
		C1329,263.8,1328,264.7,1327.1,265.7z M1390.4,249.4c-1.3,0.2-2.6,0.3-4,0.4l0.1,1c1.3-0.1,2.7-0.2,4-0.4L1390.4,249.4
		L1390.4,249.4z M1343,253.5c-1.2,0.6-2.4,1.2-3.5,1.9l0.5,0.9c1.1-0.7,2.3-1.3,3.5-1.9L1343,253.5L1343,253.5z M1332.9,260.2
		l0.6,0.8c1-0.9,2.1-1.7,3.1-2.4l-0.6-0.8C1335,258.5,1334,259.3,1332.9,260.2z M1346.7,252l0.3,0.9c1.2-0.4,2.5-0.8,3.8-1.1l-0.2-1
		C1349.2,251.1,1348,251.5,1346.7,252z M1378.5,250.2l0,1c1.3,0,2.7-0.1,4-0.1l0-1C1381.2,250.1,1379.8,250.2,1378.5,250.2z
		 M1370.5,250.2l0,1c1.3,0,2.5,0,3.8,0h0.2v-1h-0.2C1373,250.3,1371.8,250.2,1370.5,250.2z M1354.5,250.2l0.1,1
		c1.2-0.1,2.5-0.2,3.8-0.2h0.1l0-1c0,0-0.1,0-0.1,0C1357.1,250,1355.8,250,1354.5,250.2z M1362.5,251c1.3,0,2.7,0.1,4,0.1l0-1
		c-1.3,0-2.7-0.1-4-0.1L1362.5,251z M1198.9,456.3l0.6,0.8c1.1-0.7,2.2-1.5,3.3-2.3l-0.6-0.8C1201,454.8,1200,455.6,1198.9,456.3z
		 M1147.3,476.1l0.1,1c1.3-0.2,2.7-0.4,4-0.6l-0.2-1C1149.9,475.7,1148.6,475.9,1147.3,476.1z M1139.4,477l0.1,1
		c1.3-0.1,2.7-0.2,4-0.4l-0.1-1C1142,476.7,1140.7,476.8,1139.4,477z M1260.8,384.3l0.9,0.5c0.7-1.2,1.3-2.3,2-3.5l-0.9-0.5
		C1262.1,381.9,1261.4,383.1,1260.8,384.3z M1123.4,478.1l0.1,1c1.3-0.2,2.6-0.3,4-0.4l-0.1-1C1126.1,477.8,1124.7,478,1123.4,478.1
		z M1133.8,477.3c-0.8,0-1.6,0.1-2.4,0.1l0.1,1c0.8,0,1.6-0.1,2.3-0.1c0.6,0,1.1,0,1.6-0.1l-0.1-1
		C1134.9,477.3,1134.3,477.3,1133.8,477.3z M1170.5,470.5l0.3,0.9c1.3-0.4,2.5-0.9,3.8-1.4l-0.4-0.9
		C1173,469.6,1171.7,470,1170.5,470.5z M1162.9,472.8l0.3,1c1.3-0.4,2.6-0.7,3.8-1.1l-0.3-1C1165.4,472.1,1164.1,472.5,1162.9,472.8
		z M1155.1,474.7l0.2,1c1.3-0.3,2.6-0.6,3.9-0.9l-0.2-1C1157.7,474.1,1156.4,474.4,1155.1,474.7z M1064.7,502l0.6,0.8
		c1.1-0.8,2.1-1.6,3.2-2.4l-0.6-0.8C1066.9,500.4,1065.8,501.2,1064.7,502z M1078,493.1l0.5,0.9c1.1-0.7,2.3-1.3,3.5-1.9l-0.5-0.9
		C1080.4,491.8,1079.2,492.4,1078,493.1z M1071.2,497.3l0.6,0.8c1.1-0.7,2.2-1.5,3.3-2.2l-0.5-0.8
		C1073.5,495.9,1072.3,496.6,1071.2,497.3z M1177.9,467.6l0.4,0.9c1.2-0.5,2.5-1.1,3.7-1.6l-0.4-0.9
		C1180.3,466.6,1179.1,467.1,1177.9,467.6z M1111.6,480.1c-1.3,0.3-2.6,0.6-3.9,0.9l0.2,1c1.3-0.3,2.6-0.6,3.9-0.9L1111.6,480.1
		L1111.6,480.1z M1100,483.3l0.3,1c1.3-0.4,2.5-0.8,3.8-1.2l-0.3-1C1102.5,482.5,1101.2,482.9,1100,483.3z M1085.1,489.3l0.4,0.9
		c1.2-0.6,2.4-1.1,3.6-1.7l-0.4-0.9C1087.5,488.2,1086.3,488.7,1085.1,489.3z M1092.4,486l0.4,0.9c1.2-0.5,2.5-1,3.7-1.4l-0.3-0.9
		C1094.9,485,1093.7,485.5,1092.4,486z M1119.5,478.7c-1.3,0.2-2.6,0.4-4,0.7l0.2,1c1.3-0.2,2.6-0.5,3.9-0.7L1119.5,478.7
		L1119.5,478.7z M1243.5,411.2l0.8,0.6c0.8-1.1,1.5-2.2,2.3-3.3l-0.8-0.6C1245.1,409.1,1244.3,410.1,1243.5,411.2z M1238.8,417.6
		l0.8,0.6c0.8-1.1,1.6-2.1,2.4-3.2l-0.8-0.6C1240.4,415.5,1239.6,416.6,1238.8,417.6z M1245.8,408L1245.8,408
		C1245.8,408,1245.8,408,1245.8,408L1245.8,408z M1252.5,398l0.8,0.5c0.7-1.1,1.4-2.3,2.1-3.4l-0.8-0.5
		C1253.9,395.7,1253.2,396.8,1252.5,398z M1256.7,391.2l0.9,0.5c0.7-1.1,1.4-2.3,2.1-3.4l-0.9-0.5
		C1258.1,388.9,1257.4,390,1256.7,391.2z M1233.8,423.9l0.8,0.6c0.8-1,1.7-2.1,2.5-3.1l-0.8-0.6
		C1235.5,421.8,1234.7,422.9,1233.8,423.9z M1248.1,404.7l0.8,0.6c0.7-1.1,1.5-2.2,2.2-3.3l-0.8-0.5
		C1249.6,402.4,1248.8,403.6,1248.1,404.7z M1058.5,507.1l0.7,0.8c1-0.9,2-1.7,3-2.6l-0.6-0.8
		C1060.5,505.3,1059.5,506.2,1058.5,507.1z M1205.3,451.7l0.6,0.8c1.1-0.8,2.1-1.6,3.2-2.5l-0.6-0.8
		C1207.4,450.1,1206.4,450.9,1205.3,451.7z M1185.1,464.3l0.4,0.9c1.2-0.6,2.4-1.2,3.6-1.9l-0.5-0.9
		C1187.5,463.1,1186.3,463.7,1185.1,464.3z M1192.1,460.5l0.5,0.9c1.2-0.7,2.3-1.4,3.4-2.1l-0.5-0.8
		C1194.4,459.2,1193.3,459.8,1192.1,460.5z M1228.6,430l0.7,0.7c0.9-1,1.8-2,2.6-3l-0.8-0.7C1230.4,428,1229.5,429,1228.6,430z
		 M1223.2,435.8l0.7,0.7c0.9-1,1.9-1.9,2.8-2.9l-0.7-0.7C1225,433.9,1224.1,434.9,1223.2,435.8z M1217.5,441.4l0.7,0.7
		c1-0.9,1.9-1.8,2.9-2.8l-0.7-0.7C1219.4,439.6,1218.5,440.5,1217.5,441.4z M1211.5,446.7l0.6,0.8c1-0.9,2-1.7,3-2.6l-0.7-0.7
		C1213.6,445,1212.6,445.9,1211.5,446.7z M716.4,771.1h4v-1h-4V771.1z M208.9,419c0.8,1.1,1.6,2.1,2.5,3.2l0.8-0.6
		c-0.8-1-1.7-2.1-2.5-3.1L208.9,419z M207.3,415.2L207.3,415.2L207.3,415.2L207.3,415.2z M204.2,412.6c0.8,1.1,1.6,2.2,2.4,3.2
		l0.8-0.6c-0.8-1.1-1.6-2.1-2.3-3.2L204.2,412.6z M231.1,442l-0.7,0.7c1,0.9,2,1.8,3,2.7l0.7-0.7h0
		C233.1,443.8,232.1,442.9,231.1,442z M219.2,431.3c0.9,1,1.8,2,2.7,3l0.7-0.7c-0.9-1-1.8-1.9-2.7-2.9L219.2,431.3z M213.9,425.2
		c0.9,1,1.7,2.1,2.6,3.1l0.8-0.7c-0.9-1-1.7-2-2.6-3L213.9,425.2z M224.7,437.2c0.9,1,1.9,1.9,2.8,2.8l0.7-0.7
		c-1-0.9-1.9-1.9-2.8-2.8L224.7,437.2z M195.2,399.3c0.7,1.1,1.4,2.2,2.2,3.4l0.8-0.6c-0.7-1.1-1.5-2.2-2.2-3.3L195.2,399.3z
		 M199.6,406c0.7,1.1,1.5,2.2,2.3,3.3l0.8-0.6c-0.8-1.1-1.5-2.2-2.3-3.3L199.6,406z M171.6,357.4c0.6,1.2,1.2,2.4,1.8,3.6l0.9-0.5
		c-0.6-1.2-1.2-2.4-1.8-3.6L171.6,357.4z M168,350.3c0.6,1.2,1.2,2.4,1.8,3.6l0.9-0.5c-0.6-1.2-1.2-2.4-1.8-3.6L168,350.3z
		 M190.9,392.5c0.7,1.1,1.4,2.3,2.1,3.4l0.8-0.5c-0.7-1.1-1.4-2.3-2.1-3.4L190.9,392.5z M175.3,364.5c0.6,1.2,1.2,2.4,1.9,3.5
		l0.9-0.5c-0.6-1.2-1.2-2.4-1.9-3.5L175.3,364.5z M186.8,385.6c0.7,1.2,1.3,2.3,2,3.5l0.9-0.5c-0.7-1.1-1.4-2.3-2-3.5L186.8,385.6z
		 M179,371.6c0.6,1.2,1.3,2.3,1.9,3.5l0.9-0.5c-0.6-1.2-1.3-2.3-1.9-3.5L179,371.6z M182.9,378.6c0.7,1.2,1.3,2.3,2,3.5l0.9-0.5
		c-0.7-1.2-1.3-2.3-2-3.5L182.9,378.6z M329.4,478.8L329.4,478.8L329.4,478.8L329.4,478.8z M317.4,478.5c1.3,0.1,2.7,0.2,4,0.3
		l0.1-1c-1.3-0.1-2.7-0.2-4-0.3L317.4,478.5z M301.4,477.2c1.3,0.2,2.6,0.3,4,0.5l0.1-1c-1.3-0.1-2.6-0.3-3.9-0.5L301.4,477.2z
		 M285.7,474c1.3,0.3,2.6,0.7,3.9,1l0.2-1c-1.3-0.3-2.6-0.6-3.9-1L285.7,474z M236.4,448.1c1,0.9,2.1,1.7,3.1,2.5l0.6-0.8
		c-1-0.8-2.1-1.7-3.1-2.5L236.4,448.1z M309.4,478c1.3,0.1,2.7,0.2,4,0.2l0-1c-1.3-0.1-2.7-0.1-4-0.2L309.4,478z M333.2,480.5
		c1.3,0.3,2.6,0.5,3.9,0.8l0.2-1c-1.3-0.3-2.6-0.6-3.9-0.8L333.2,480.5z M325.3,479.2c1.3,0.2,2.6,0.4,3.9,0.6l0.2-1
		c-1.3-0.2-2.6-0.4-4-0.6L325.3,479.2z M164.5,343.1c0.6,1.2,1.2,2.4,1.8,3.6l0.9-0.4h0c-0.6-1.2-1.2-2.4-1.8-3.6L164.5,343.1z
		 M293.5,475.9c1.3,0.3,2.6,0.5,3.9,0.7l0.2-1c-1.3-0.2-2.6-0.5-3.9-0.7L293.5,475.9z M242.7,453c1.1,0.8,2.2,1.6,3.2,2.3l0.6-0.8h0
		c-1.1-0.8-2.2-1.5-3.2-2.3L242.7,453z M278,471.7c1.3,0.4,2.5,0.8,3.8,1.2l0.3-1c-1.3-0.4-2.5-0.8-3.8-1.2L278,471.7z M249.3,457.6
		c1.1,0.7,2.2,1.5,3.4,2.2l0.5-0.9c-1.1-0.7-2.3-1.4-3.4-2.1L249.3,457.6z M240.2,449.8L240.2,449.8L240.2,449.8
		C240.2,449.8,240.2,449.8,240.2,449.8z M270.5,468.9c1.2,0.5,2.5,1,3.7,1.5l0.4-0.9v0c-1.2-0.5-2.5-1-3.7-1.5L270.5,468.9z
		 M256.1,461.8c1.2,0.7,2.3,1.3,3.5,1.9l0.5-0.9c-1.2-0.6-2.3-1.3-3.5-1.9L256.1,461.8z M263.2,465.6c1.2,0.6,2.4,1.2,3.6,1.7
		l0.4-0.9c-1.2-0.5-2.4-1.1-3.6-1.7L263.2,465.6z M154.8,321.1l-0.9,0.4c0.6,1.2,1.2,2.4,1.8,3.6l0.9-0.4h0
		C155.9,323.5,155.3,322.3,154.8,321.1z M54.4,250c1.3,0.2,2.7,0.4,4,0.5l0.1-1c-1.3-0.1-2.6-0.3-3.9-0.5L54.4,250z M163.6,339
		L163.6,339L163.6,339C163.6,339,163.6,339,163.6,339z M31.4,243c1.2,0.6,2.4,1.1,3.7,1.6l0.4-0.9c-1.2-0.5-2.4-1-3.6-1.6L31.4,243z
		 M38.8,246.1c1.3,0.5,2.5,0.9,3.8,1.3l0.3-1c-1.3-0.4-2.5-0.8-3.8-1.2L38.8,246.1z M62.4,249.9l-0.1,1c1.3,0.1,2.7,0.2,4,0.2l0-1h0
		C65.1,250.1,63.7,250,62.4,249.9z M88.8,250c-0.8,0-1.6,0-2.5,0.1l0,1c0.8,0,1.6,0,2.5-0.1c0.2,0,0.5,0,0.7,0c0.3,0,0.5,0,0.8,0
		l0-1c-0.3,0-0.5,0-0.8,0C89.3,250,89.1,250,88.8,250z M73.6,250.3c-1.1,0-2.2,0-3.3,0l0,1c1.1,0,2.2,0,3.3,0h0.7l0-1
		C74.1,250.3,73.9,250.3,73.6,250.3z M82.4,250.1c-1.3,0-2.7,0.1-4,0.1l0,1c1.3,0,2.7-0.1,4-0.1L82.4,250.1L82.4,250.1z M0.4,217.9
		c0.9,1,1.7,2.1,2.6,3l0.7-0.7c-0.9-1-1.7-2-2.6-3L0.4,217.9z M1439.3,225.4L1439.3,225.4C1439.3,225.4,1439.3,225.4,1439.3,225.4
		L1439.3,225.4z M1439.3,225.4c-1,1-1.9,1.9-2.9,2.7l0.7,0.7c1-0.9,1.9-1.8,2.9-2.7v-0.1L1439.3,225.4z M94.4,250.3l-0.1,1
		c1.3,0.2,2.6,0.4,3.8,0.8l0.3-1h0C97.1,250.7,95.8,250.5,94.4,250.3z M24.3,239.2c1.2,0.7,2.3,1.4,3.5,2l0.5-0.9
		c-1.1-0.6-2.3-1.3-3.4-2L24.3,239.2z M5.8,223.9c0.9,1,1.9,1.9,2.8,2.9l0.7-0.7c-0.9-0.9-1.9-1.8-2.8-2.8L5.8,223.9z M17.7,234.6
		c1.1,0.8,2.2,1.6,3.3,2.3l0.6-0.8c-1.1-0.7-2.1-1.5-3.2-2.3L17.7,234.6z M11.5,229.5c1,0.9,2,1.8,3,2.6l0.6-0.8c-1-0.8-2-1.7-3-2.6
		L11.5,229.5z M46.7,247.5l-0.2,1c1.3,0.3,2.6,0.6,3.9,0.9l0.2-1h0C49.3,248.1,48,247.8,46.7,247.5z M146.6,307.2
		c0.6,1.2,1.2,2.4,1.8,3.6l0.9-0.5c-0.6-1.2-1.2-2.4-1.8-3.6L146.6,307.2z M150.3,314.4c0.6,1.2,1.2,2.4,1.8,3.6l0.9-0.4
		c-0.6-1.2-1.2-2.4-1.8-3.6L150.3,314.4z M142.9,300.2c0.6,1.2,1.3,2.3,1.9,3.5l0.9-0.5c-0.6-1.2-1.3-2.4-1.9-3.5L142.9,300.2z
		 M101.8,253.3c1.2,0.5,2.4,1,3.6,1.6l0.5-0.9c-1.2-0.6-2.4-1.2-3.7-1.6L101.8,253.3z M160.9,335.9c0.6,1.2,1.2,2.4,1.8,3.6l0.9-0.4
		c-0.6-1.2-1.2-2.4-1.8-3.6L160.9,335.9z M340.9,482.2c1.3,0.3,2.6,0.7,3.8,1.1l0.3-1c-1.3-0.4-2.6-0.7-3.9-1.1L340.9,482.2z
		 M157.4,328.7c0.6,1.2,1.2,2.4,1.8,3.6l0.9-0.4c-0.6-1.2-1.2-2.4-1.8-3.6L157.4,328.7z M139,293.2c0.7,1.1,1.3,2.3,2,3.5l0.9-0.5
		c-0.7-1.2-1.3-2.3-2-3.5L139,293.2z M112.6,258.3L112.6,258.3L112.6,258.3C112.6,258.3,112.6,258.3,112.6,258.3z M115.1,261.6
		c1,0.9,1.9,1.8,2.9,2.7l0.7-0.7c-1-1-2-1.9-2.9-2.7L115.1,261.6z M108.8,256.8c1.1,0.7,2.2,1.4,3.2,2.3l0.6-0.8
		c-1.1-0.8-2.2-1.6-3.3-2.3L108.8,256.8z M125.9,273.2c0.8,1,1.6,2.1,2.4,3.2l0.8-0.6v0c-0.8-1.1-1.6-2.2-2.4-3.2L125.9,273.2z
		 M130.5,279.7c0.7,1.1,1.5,2.2,2.2,3.3l0.8-0.5c-0.7-1.1-1.5-2.3-2.2-3.3L130.5,279.7z M134.9,286.3c0.7,1.1,1.4,2.3,2.1,3.4
		l0.9-0.5c-0.7-1.2-1.4-2.3-2.1-3.4L134.9,286.3z M120.7,267.1c0.9,1,1.7,2,2.6,3l0.8-0.6c-0.9-1-1.8-2.1-2.6-3L120.7,267.1z
		 M588.4,771.1h4v-1h-4V771.1z M533.9,762.8c1.1,0.7,2.3,1.4,3.5,2l0.5-0.9c-1.2-0.6-2.3-1.3-3.4-2L533.9,762.8z M541,766.6
		c1.2,0.5,2.5,1,3.7,1.5l0.3-0.9c-1.2-0.4-2.5-0.9-3.7-1.5L541,766.6z M528,757.4l-0.6,0.8c1,0.9,2.1,1.7,3.2,2.4l0.6-0.8h0
		C530.1,759,529,758.2,528,757.4z M521.4,752.7c1,1,1.9,1.9,2.9,2.8l0.7-0.7c-1-0.9-1.9-1.8-2.9-2.7L521.4,752.7z M548.5,769.3
		c1.3,0.3,2.6,0.6,3.9,0.9l0.2-1c-1.3-0.2-2.6-0.5-3.8-0.9L548.5,769.3z M564.4,771.1h4v-1h-4V771.1z M516,746.8c0.9,1,1.7,2,2.6,3
		l0.7-0.7c-0.9-1-1.8-2-2.6-3L516,746.8z M572.4,771.1h4v-1h-4V771.1z M556.4,770.7c1.3,0.1,2.6,0.2,4,0.3l0-1
		c-1.3,0-2.6-0.1-3.9-0.3L556.4,770.7z M491.4,705.6c0.6,1.2,1.1,2.4,1.7,3.6l0.9-0.4c-0.6-1.2-1.1-2.4-1.7-3.6L491.4,705.6z
		 M494.9,712.8c0.6,1.2,1.2,2.4,1.8,3.6l0.9-0.5v0c-0.6-1.2-1.2-2.4-1.8-3.6L494.9,712.8z M484.9,690.9c0.5,1.2,1,2.5,1.6,3.7
		l0.9-0.4c-0.5-1.2-1-2.4-1.6-3.7L484.9,690.9z M498.5,719.9c0.6,1.2,1.3,2.4,1.9,3.5l0.9-0.5c-0.6-1.2-1.3-2.3-1.9-3.5L498.5,719.9
		z M506.6,733.8c0.7,1.1,1.5,2.3,2.2,3.4l0.8-0.6l0,0c-0.7-1.1-1.5-2.2-2.2-3.3L506.6,733.8z M502.4,726.9c0.7,1.2,1.4,2.3,2,3.4
		l0.9-0.5v0c-0.7-1.1-1.4-2.3-2-3.4L502.4,726.9z M511.1,740.4c0.8,1.1,1.6,2.2,2.4,3.2l0.8-0.6c-0.8-1-1.6-2.1-2.4-3.2L511.1,740.4
		z M488.1,698.3c0.5,1.2,1.1,2.5,1.6,3.7l0.9-0.4c-0.5-1.2-1.1-2.4-1.6-3.7L488.1,698.3z M660.4,771.1h4v-1h-4V771.1z M652.4,771.1
		h4v-1h-4V771.1z M580.4,771.1h4v-1h-4V771.1z M692.4,771.1h4v-1h-4V771.1z M676.4,771.1h4v-1h-4V771.1z M644.4,771.1h4v-1h-4V771.1
		z M348.5,484.5c1.3,0.4,2.5,0.9,3.7,1.3l0.4-0.9c-1.2-0.5-2.5-0.9-3.8-1.3L348.5,484.5z M668.4,771.1h4v-1h-4V771.1z M596.4,771.1
		h4v-1h-4V771.1z M700.4,771.1h4v-1h-4V771.1z M636.4,771.1h4v-1h-4V771.1z M604.4,771.1h4v-1h-4V771.1z M628.4,771.1h4v-1h-4V771.1
		z M612.4,771.1h4v-1h-4V771.1z M620.4,771.1h4v-1h-4V771.1z M684.4,771.1h4v-1h-4V771.1z M411,531.8c0.8,1.1,1.6,2.1,2.4,3.2
		l0.8-0.6c-0.8-1.1-1.6-2.1-2.4-3.2L411,531.8z M415.8,538.3c0.8,1.1,1.5,2.2,2.3,3.3l0.8-0.6c-0.8-1.1-1.5-2.2-2.3-3.3L415.8,538.3
		z M406.1,525.6c0.8,1,1.7,2,2.5,3.1l0.8-0.6c-0.8-1-1.7-2.1-2.5-3.1L406.1,525.6z M420.2,544.9c0.7,1.1,1.4,2.2,2.2,3.4l0.8-0.5
		c-0.7-1.1-1.4-2.3-2.2-3.4L420.2,544.9z M424.5,551.6c0.7,1.1,1.4,2.3,2.1,3.4l0.9-0.5c-0.7-1.2-1.4-2.3-2.1-3.4L424.5,551.6z
		 M400.8,519.6c0.9,1,1.8,2,2.7,3l0.8-0.7c-0.9-1-1.8-2-2.7-3L400.8,519.6z M433.3,565l-0.9,0.5c0.6,1.2,1.3,2.3,1.9,3.5l0.9-0.5h0
		C434.5,567.4,433.9,566.2,433.3,565z M436.1,572.6c0.6,1.2,1.2,2.4,1.8,3.6l0.9-0.4c-0.6-1.2-1.2-2.4-1.8-3.6L436.1,572.6z
		 M428.5,558.5c0.7,1.2,1.3,2.3,2,3.5l0.9-0.5v0c-0.6-1.2-1.3-2.3-2-3.5L428.5,558.5z M363.2,490.6c1.2,0.6,2.4,1.2,3.5,1.8l0.5-0.9
		c-1.2-0.6-2.4-1.3-3.6-1.9L363.2,490.6z M395.3,513.9c0.9,0.9,1.9,1.9,2.8,2.8l0.7-0.7c-0.9-1-1.9-1.9-2.8-2.8L395.3,513.9z
		 M356,487.3c1.2,0.5,2.4,1,3.6,1.6l0.4-0.9c-1.2-0.6-2.4-1.1-3.7-1.6L356,487.3z M370.2,494.4c1.1,0.7,2.3,1.4,3.4,2.1l0.5-0.8
		c-1.1-0.7-2.3-1.4-3.4-2.1L370.2,494.4z M376.9,498.7c1.1,0.7,2.2,1.5,3.3,2.3l0.6-0.8c-1.1-0.8-2.2-1.6-3.3-2.3L376.9,498.7z
		 M390.1,507.7l-0.7,0.8c1,0.9,2,1.8,3,2.7l0.7-0.7h0C392.1,509.5,391.1,508.6,390.1,507.7z M383.3,503.4c1,0.8,2.1,1.6,3.1,2.5
		l0.6-0.8c-1-0.8-2.1-1.7-3.1-2.5L383.3,503.4z M461.6,631.3c0.5,1.2,1,2.5,1.4,3.7l0.9-0.4c-0.5-1.2-1-2.5-1.4-3.7L461.6,631.3z
		 M467.3,646.2c0.5,1.2,1,2.5,1.4,3.7l0.9-0.4c-0.5-1.2-1-2.5-1.4-3.7L467.3,646.2z M470.2,653.7c0.5,1.3,1,2.5,1.4,3.7l0.9-0.4
		c-0.5-1.2-1-2.5-1.4-3.7L470.2,653.7z M464.5,638.7c0.5,1.2,1,2.5,1.4,3.7l0.9-0.4c-0.5-1.2-1-2.5-1.4-3.7L464.5,638.7z
		 M478.9,676.1c0.5,1.2,1,2.5,1.5,3.7l0.9-0.4c-0.5-1.2-1-2.5-1.5-3.7L478.9,676.1z M481.9,683.5c0.5,1.2,1,2.5,1.5,3.7l0.9-0.4
		c-0.5-1.2-1-2.5-1.5-3.7L481.9,683.5z M476,668.6c0.5,1.2,1,2.5,1.5,3.7l0.9-0.4c-0.5-1.2-1-2.5-1.5-3.7L476,668.6z M473.1,661.1
		c0.5,1.3,1,2.5,1.4,3.7l0.9-0.4c-0.5-1.2-1-2.5-1.4-3.7L473.1,661.1z M446.4,594.3c0.5,1.2,1.1,2.4,1.6,3.7l0.9-0.4
		c-0.5-1.2-1.1-2.4-1.6-3.7L446.4,594.3z M458.7,623.8c0.5,1.2,1,2.5,1.5,3.7l0.9-0.4c-0.5-1.2-1-2.5-1.5-3.7L458.7,623.8z
		 M443.1,587c0.6,1.2,1.1,2.4,1.7,3.6l0.9-0.4c-0.6-1.2-1.1-2.4-1.7-3.6L443.1,587z M439.7,579.7c0.6,1.2,1.2,2.4,1.7,3.6l0.9-0.4
		c-0.6-1.2-1.1-2.4-1.7-3.6L439.7,579.7z M445.7,590.2L445.7,590.2L445.7,590.2C445.7,590.2,445.7,590.2,445.7,590.2z M455.7,616.4
		c0.5,1.2,1,2.5,1.5,3.7l0.9-0.4c-0.5-1.2-1-2.5-1.5-3.7L455.7,616.4z M450.5,601.2l-0.9,0.4c0.5,1.2,1,2.5,1.6,3.7l0.9-0.4l0,0
		C451.5,603.6,451,602.4,450.5,601.2z M452.7,609c0.5,1.2,1,2.5,1.5,3.7l0.9-0.4c-0.5-1.2-1-2.5-1.5-3.7L452.7,609z"/>
	<circle class="st1" cx="133" cy="497" r="18"/>
	<circle class="st1" cx="570.7" cy="465.5" r="18"/>
	<circle class="st3" cx="262.7" cy="251.5" r="18"/>
	<circle class="st3" cx="224.7" cy="841.5" r="8"/>
	<circle class="st3" cx="148.7" cy="193.5" r="8"/>
	<circle class="st3" cx="1170.5" cy="329.3" r="14"/>
	<circle class="st3" cx="1385" cy="805.8" r="14"/>
	<circle class="st1" cx="1121.7" cy="168.5" r="15"/>
	<circle class="st1" cx="75" cy="582" r="6"/>
	<circle class="st1" cx="627.5" cy="516.3" r="6"/>
	<circle class="st1" cx="1053" cy="675" r="6"/>
	<circle class="st1" cx="1360" cy="632" r="6"/>
</g>
</svg>
