<?xml version="1.0" encoding="utf-8"?>
<!-- Generator: Adobe Illustrator 24.1.2, SVG Export Plug-In . SVG Version: 6.00 Build 0)  -->
<svg version="1.1" id="Layer_1" xmlns="http://www.w3.org/2000/svg" xmlns:xlink="http://www.w3.org/1999/xlink" x="0px" y="0px"
	 viewBox="0 0 37.3 61.85" style="enable-background:new 0 0 37.3 61.85;" xml:space="preserve">
<style type="text/css">
	.st0{fill:url(#SVGID_1_);}
	.st1{fill:#233148;}
</style>
<g>
	<linearGradient id="SVGID_1_" gradientUnits="userSpaceOnUse" x1="1.9942" y1="28.7864" x2="35.3086" y2="28.7864">
		<stop  offset="0" style="stop-color:#15EDED"/>
		<stop  offset="1" style="stop-color:#029CF5"/>
	</linearGradient>
	<path class="st0" d="M30.32,49.62H6.98c-2.74,0-4.98-2.23-4.98-4.98v-31.7c0-2.75,2.24-4.98,4.98-4.99h23.35
		c2.74,0,4.98,2.24,4.99,4.98v31.7C35.3,47.39,33.07,49.62,30.32,49.62L30.32,49.62z"/>
	<path class="st1" d="M30.32,0H6.98C3.13,0.01,0.01,3.13,0,6.98V24.6v20.03c0,0,0,0.01,0,0.01v10.23c0.01,3.85,3.13,6.97,6.98,6.98
		h23.34c3.85-0.01,6.97-3.13,6.98-6.98h0V6.98C37.29,3.13,34.18,0.01,30.32,0z M6.98,3.99h23.34c1.51,0,2.77,1.17,2.95,2.64
		c-0.9-0.42-1.89-0.67-2.95-0.67l-23.34,0c-1.06,0-2.05,0.25-2.95,0.67C4.21,5.16,5.47,3.99,6.98,3.99z M33.31,54.87
		c0,1.63-1.36,2.99-2.99,2.99H6.98c-1.63,0-2.99-1.36-2.99-2.99v-3.94c0.91,0.43,1.92,0.68,2.99,0.68h23.34
		c1.07,0,2.09-0.25,2.99-0.68V54.87z M33.31,44.64c0,1.63-1.36,2.99-2.99,2.99H6.98c-1.63,0-2.99-1.36-2.99-2.99v-31.7
		c0-1.63,1.36-2.99,2.99-2.99h23.34c1.63,0,2.99,1.36,2.99,2.99V44.64z M22.52,52.63h-7.74c-0.55,0-1,0.45-1,1v2c0,0.55,0.45,1,1,1
		h7.74c0.55,0,1-0.45,1-1v-2C23.52,53.08,23.07,52.63,22.52,52.63z"/>
</g>
</svg>
