<?xml version="1.0" encoding="utf-8"?>
<!-- Generator: Adobe Illustrator 24.1.2, SVG Export Plug-In . SVG Version: 6.00 Build 0)  -->
<svg version="1.1" id="Layer_1" xmlns="http://www.w3.org/2000/svg" xmlns:xlink="http://www.w3.org/1999/xlink" x="0px" y="0px"
	 viewBox="0 0 55.82 52.02" style="enable-background:new 0 0 55.82 52.02;" xml:space="preserve">
<style type="text/css">
	.st0{fill:url(#SVGID_1_);}
	.st1{fill:#233148;}
</style>
<g>
	<linearGradient id="SVGID_1_" gradientUnits="userSpaceOnUse" x1="3.1842" y1="18.6259" x2="53.9782" y2="18.6259">
		<stop  offset="0" style="stop-color:#15EDED"/>
		<stop  offset="1" style="stop-color:#029CF5"/>
	</linearGradient>
	<path class="st0" d="M49.36,35.4L49.36,35.4L49.36,35.4H7.8c-1.84-0.01-3.5-1.1-4.23-2.8c-0.25-0.58-0.38-1.19-0.38-1.82V6.46
		C3.19,3.92,5.26,1.85,7.8,1.85h41.56c2.54,0.01,4.61,2.08,4.62,4.62l0,24.32C53.97,33.33,51.9,35.4,49.36,35.4L49.36,35.4z"/>
	<path class="st1" d="M49.36,0L7.8,0C4.23,0.01,1.34,2.9,1.34,6.46l0,24.32c0,2.67,1.62,4.95,3.92,5.94v10.91
		c0.01,1.06,0.2,2.05,0.78,2.92c0.54,0.86,1.62,1.46,2.66,1.46c0.03,0,0.05,0,0.08,0c1.17-0.02,2.16-0.53,3.07-1.26l12.79-10.47
		c1.06-0.87,2.65-2.01,4.2-3.04h20.52c3.57-0.01,6.46-2.9,6.46-6.47V6.46C55.82,2.9,52.93,0.01,49.36,0z M22.3,37.44L9.51,47.9
		c-0.2,0.16-0.37,0.27-0.5,0.34c-0.03-0.14-0.06-0.34-0.05-0.6V37.25h13.58C22.46,37.31,22.37,37.38,22.3,37.44z M52.13,30.78
		c0,1.51-1.26,2.77-2.77,2.77H7.8c-1.13,0-2.11-0.7-2.54-1.69c-0.14-0.33-0.23-0.7-0.23-1.09V6.46c0-1.51,1.26-2.77,2.77-2.77h41.56
		c1.51,0,2.77,1.26,2.77,2.77V30.78L52.13,30.78z"/>
</g>
</svg>
