<?xml version="1.0" encoding="utf-8"?>
<!-- Generator: Adobe Illustrator 24.1.2, SVG Export Plug-In . SVG Version: 6.00 Build 0)  -->
<svg version="1.1" id="Layer_1" xmlns="http://www.w3.org/2000/svg" xmlns:xlink="http://www.w3.org/1999/xlink" x="0px" y="0px"
	 viewBox="0 0 50.26 51.38" style="enable-background:new 0 0 50.26 51.38;" xml:space="preserve">
<style type="text/css">
	.st0{fill:url(#SVGID_1_);}
	.st1{fill:#233148;}
</style>
<g>
	<linearGradient id="SVGID_1_" gradientUnits="userSpaceOnUse" x1="6.7988" y1="14.1202" x2="50.1886" y2="14.1202">
		<stop  offset="0" style="stop-color:#15EDED"/>
		<stop  offset="1" style="stop-color:#029CF5"/>
	</linearGradient>
	<path class="st0" d="M42.78,23.75l7.25-20.6c0.12-0.33,0.16-0.61,0.16-0.83c-0.01-0.45-0.13-0.66-0.33-0.86
		c-0.09-0.09-0.23-0.17-0.4-0.24c-0.06-0.02-0.12-0.04-0.17-0.05c-0.05-0.01-0.1-0.03-0.15-0.04c-0.17-0.04-0.35-0.06-0.54-0.06
		c-0.01,0-0.01,0-0.02,0H9.83C8.17,1.07,6.8,2.44,6.8,4.1v20.98c0.41,1.2,1.54,2.09,2.87,2.09h28.29
		C39.73,27.26,42.28,25.45,42.78,23.75z"/>
	<path class="st1" d="M16.47,40.74c-2.94,0-5.32,2.38-5.32,5.33c0,2.94,2.38,5.32,5.32,5.32c2.94,0,5.32-2.38,5.32-5.32
		C21.79,43.12,19.41,40.74,16.47,40.74z M16.47,47.73c-0.92,0-1.67-0.75-1.67-1.67c0-0.92,0.75-1.67,1.67-1.67
		c0.92,0,1.67,0.75,1.67,1.67C18.14,46.98,17.39,47.73,16.47,47.73z M37.72,40.74c-2.94,0-5.32,2.38-5.32,5.32
		c0,2.94,2.38,5.32,5.32,5.32c2.94,0,5.32-2.38,5.32-5.32C43.04,43.12,40.66,40.74,37.72,40.74z M37.72,47.73
		c-0.92,0-1.67-0.75-1.67-1.67c0-0.92,0.75-1.67,1.67-1.67c0.92,0,1.67,0.75,1.67,1.67C39.4,46.98,38.65,47.73,37.72,47.73z
		 M50.26,0c-0.7-0.64-1.58-1.04-2.53-1.22c-0.07-0.01-0.14-0.02-0.21-0.03c-0.29-0.04-0.59-0.07-0.9-0.07H32.77
		c-0.11-0.01-0.23-0.01-0.34-0.01H1.83C0.82-1.33,0-0.51,0,0.49c0,1,0.82,1.82,1.83,1.82h3.91c0,0-0.01,0.01-0.01,0.02h0.15
		c-0.4,0.83-0.63,1.76-0.63,2.74v28.14c0.01,3.52,2.86,6.38,6.39,6.39h18.1v0h2.28l0,0c0,0,0.82,0,1.83,0H44.8
		c1,0,1.83-0.82,1.83-1.82c0-1.01-0.82-1.83-1.83-1.83h-4.79v0H11.64c-1.5,0-2.74-1.25-2.74-2.74V29c0.79,0.35,1.66,0.55,2.59,0.55
		h25.55c3.42-0.08,6.59-2.32,7.8-5.52l4.52-12.85l2.03-5.77c0.22-0.65,0.34-1.3,0.34-1.95C51.75,2.15,51.22,0.87,50.26,0z
		 M47.94,4.21L41.4,22.82c-0.45,1.53-2.76,3.17-4.36,3.09H11.49c-1.2,0-2.22-0.81-2.59-1.89V5.07c0-1.49,1.24-2.73,2.73-2.74h34.99
		c0.01,0,0.01,0,0.02,0c0.17,0,0.33,0.02,0.49,0.05c0.05,0.01,0.09,0.02,0.14,0.03c0.05,0.01,0.1,0.03,0.16,0.05
		c0.16,0.06,0.28,0.14,0.36,0.22c0.18,0.18,0.29,0.37,0.3,0.78C48.09,3.66,48.05,3.91,47.94,4.21z"/>
</g>
</svg>
