<?xml version="1.0" encoding="utf-8"?>
<!-- Generator: Adobe Illustrator 24.1.2, SVG Export Plug-In . SVG Version: 6.00 Build 0)  -->
<svg version="1.1" id="Layer_1" xmlns="http://www.w3.org/2000/svg" xmlns:xlink="http://www.w3.org/1999/xlink" x="0px" y="0px"
	 viewBox="0 0 51.7 52.7" style="enable-background:new 0 0 51.7 52.7;" xml:space="preserve">
<style type="text/css">
	.st0{fill:url(#SVGID_1_);}
	.st1{fill:#233148;}
</style>
<g>
	<linearGradient id="SVGID_1_" gradientUnits="userSpaceOnUse" x1="6.7988" y1="15.4542" x2="50.1886" y2="15.4542">
		<stop  offset="0" style="stop-color:#15EDED"/>
		<stop  offset="1" style="stop-color:#029CF5"/>
	</linearGradient>
	<path class="st0" d="M42.8,25.1L50,4.5c0.1-0.3,0.2-0.6,0.2-0.8c0-0.4-0.1-0.7-0.3-0.9c-0.1-0.1-0.2-0.2-0.4-0.2
		c-0.1,0-0.1,0-0.2-0.1c0,0-0.1,0-0.2,0c-0.2,0-0.4-0.1-0.5-0.1c0,0,0,0,0,0H9.8c-1.7,0-3,1.4-3,3v21c0.4,1.2,1.5,2.1,2.9,2.1H38
		C39.7,28.6,42.3,26.8,42.8,25.1z"/>
	<path class="st1" d="M16.5,42.1c-2.9,0-5.3,2.4-5.3,5.3c0,2.9,2.4,5.3,5.3,5.3c2.9,0,5.3-2.4,5.3-5.3
		C21.8,44.5,19.4,42.1,16.5,42.1z M16.5,49.1c-0.9,0-1.7-0.8-1.7-1.7c0-0.9,0.8-1.7,1.7-1.7c0.9,0,1.7,0.8,1.7,1.7
		C18.1,48.3,17.4,49.1,16.5,49.1z M37.7,42.1c-2.9,0-5.3,2.4-5.3,5.3c0,2.9,2.4,5.3,5.3,5.3c2.9,0,5.3-2.4,5.3-5.3
		C43,44.5,40.7,42.1,37.7,42.1z M37.7,49.1c-0.9,0-1.7-0.8-1.7-1.7c0-0.9,0.7-1.7,1.7-1.7c0.9,0,1.7,0.7,1.7,1.7
		C39.4,48.3,38.6,49.1,37.7,49.1z M50.3,1.3c-0.7-0.6-1.6-1-2.5-1.2c-0.1,0-0.1,0-0.2,0C47.2,0,46.9,0,46.6,0H32.8
		c-0.1,0-0.2,0-0.3,0H1.8C0.8,0,0,0.8,0,1.8c0,1,0.8,1.8,1.8,1.8h3.9c0,0,0,0,0,0h0.1C5.5,4.5,5.3,5.4,5.3,6.4v28.1
		c0,3.5,2.9,6.4,6.4,6.4h18.1v0H32l0,0c0,0,0.8,0,1.8,0h10.9c1,0,1.8-0.8,1.8-1.8c0-1-0.8-1.8-1.8-1.8H40v0H11.6
		c-1.5,0-2.7-1.2-2.7-2.7v-4.2c0.8,0.4,1.7,0.6,2.6,0.6H37c3.4-0.1,6.6-2.3,7.8-5.5l4.5-12.8l2-5.8c0.2-0.6,0.3-1.3,0.3-2
		C51.7,3.5,51.2,2.2,50.3,1.3z M47.9,5.5l-6.5,18.6c-0.5,1.5-2.8,3.2-4.4,3.1H11.5c-1.2,0-2.2-0.8-2.6-1.9V6.4
		c0-1.5,1.2-2.7,2.7-2.7h35c0,0,0,0,0,0c0.2,0,0.3,0,0.5,0.1c0,0,0.1,0,0.1,0c0.1,0,0.1,0,0.2,0c0.2,0.1,0.3,0.1,0.4,0.2
		c0.2,0.2,0.3,0.4,0.3,0.8C48.1,5,48.1,5.2,47.9,5.5z"/>
</g>
</svg>
