<?xml version="1.0" encoding="utf-8"?>
<!-- Generator: Adobe Illustrator 24.1.2, SVG Export Plug-In . SVG Version: 6.00 Build 0)  -->
<svg version="1.1" id="Layer_1" xmlns="http://www.w3.org/2000/svg" xmlns:xlink="http://www.w3.org/1999/xlink" x="0px" y="0px"
	 viewBox="0 0 49.84 58.91" style="enable-background:new 0 0 49.84 58.91;" xml:space="preserve">
<style type="text/css">
	.st0{fill:url(#SVGID_1_);}
	.st1{fill:#233148;}
</style>
<g>
	<linearGradient id="SVGID_1_" gradientUnits="userSpaceOnUse" x1="3.5821" y1="9.143" x2="39.6914" y2="9.143">
		<stop  offset="0" style="stop-color:#15EDED"/>
		<stop  offset="1" style="stop-color:#029CF5"/>
	</linearGradient>
	<path class="st0" d="M35.06,16.43L35.06,16.43L35.06,16.43H8.21c-2.55-0.01-4.63-2.08-4.63-4.63V6.48c0-2.55,2.08-4.63,4.63-4.63
		h26.85c2.55,0.01,4.62,2.08,4.63,4.63l0,5.32C39.69,14.35,37.61,16.43,35.06,16.43L35.06,16.43z"/>
	<path class="st1" d="M43.76,6.17c-0.82,0-1.58,0-2.24,0C41.36,2.74,38.53,0.01,35.06,0H8.21C4.63,0.01,1.74,2.9,1.73,6.48v5.32
		c0.01,3.58,2.9,6.47,6.48,6.48h26.85c3.58-0.01,6.47-2.9,6.48-6.48V9.88h2.22c1.23,0,2.37,1.1,2.37,2.55
		c0.09,1.47-1.54,3.91-3.13,4.49l-17.85,7.52c-3.14,1.42-5.31,4.69-5.4,8.13v2.04c-2.77,0.74-4.82,3.25-4.82,6.26v11.57
		c0.01,3.58,2.9,6.47,6.48,6.48v0h0.46c3.58-0.01,6.47-2.9,6.48-6.48V40.85c0-3.03-2.09-5.56-4.9-6.28v-2.02
		c-0.09-1.64,1.58-4.16,3.13-4.72l17.85-7.52c3.1-1.4,5.31-4.54,5.4-7.9C49.83,9.03,47.17,6.19,43.76,6.17z M37.84,11.8
		c0,1.52-1.26,2.77-2.78,2.78H8.21c-1.52,0-2.77-1.26-2.78-2.78V6.48c0-1.52,1.26-2.78,2.78-2.78h26.85c1.51,0,2.77,1.26,2.78,2.78
		V11.8L37.84,11.8z M24.64,40.85v11.57c0,1.51-1.26,2.78-2.78,2.78h-0.46c-1.52,0-2.78-1.26-2.78-2.78V40.85
		c0-1.52,1.26-2.78,2.78-2.78l0.46,0C23.38,38.08,24.64,39.34,24.64,40.85z"/>
</g>
</svg>
